<?xml version="1.0" encoding="utf-8" standalone="no"?>
<!DOCTYPE svg PUBLIC "-//W3C//DTD SVG 1.1//EN"
  "http://www.w3.org/Graphics/SVG/1.1/DTD/svg11.dtd">
<svg xmlns:xlink="http://www.w3.org/1999/xlink" width="576pt" height="720pt" viewBox="0 0 576 720" xmlns="http://www.w3.org/2000/svg" version="1.1">
 <metadata>
  <rdf:RDF xmlns:dc="http://purl.org/dc/elements/1.1/" xmlns:cc="http://creativecommons.org/ns#" xmlns:rdf="http://www.w3.org/1999/02/22-rdf-syntax-ns#">
   <cc:Work>
    <dc:type rdf:resource="http://purl.org/dc/dcmitype/StillImage"/>
    <dc:date>2025-05-12T10:32:22.086333</dc:date>
    <dc:format>image/svg+xml</dc:format>
    <dc:creator>
     <cc:Agent>
      <dc:title>Matplotlib v3.9.2, https://matplotlib.org/</dc:title>
     </cc:Agent>
    </dc:creator>
   </cc:Work>
  </rdf:RDF>
 </metadata>
 <defs>
  <style type="text/css">*{stroke-linejoin: round; stroke-linecap: butt}</style>
 </defs>
 <g id="figure_1">
  <g id="patch_1">
   <path d="M 0 720 
L 576 720 
L 576 0 
L 0 0 
z
" style="fill: #ffffff"/>
  </g>
  <g id="axes_1">
   <g id="patch_2">
    <path d="M 57.17 205.24 
L 565.2 205.24 
L 565.2 26.88 
L 57.17 26.88 
z
" style="fill: #ffffff"/>
   </g>
   <g id="matplotlib.axis_1">
    <g id="xtick_1">
     <g id="line2d_1">
      <defs>
       <path id="m2c9c2c7f78" d="M 0 0 
L 0 3.5 
" style="stroke: #000000; stroke-width: 0.8"/>
      </defs>
      <g>
       <use xlink:href="#m2c9c2c7f78" x="80.262273" y="205.24" style="stroke: #000000; stroke-width: 0.8"/>
      </g>
     </g>
     <g id="text_1">
      <!-- 0.0 -->
      <g transform="translate(72.31071 219.838437) scale(0.1 -0.1)">
       <defs>
        <path id="DejaVuSans-30" d="M 2034 4250 
Q 1547 4250 1301 3770 
Q 1056 3291 1056 2328 
Q 1056 1369 1301 889 
Q 1547 409 2034 409 
Q 2525 409 2770 889 
Q 3016 1369 3016 2328 
Q 3016 3291 2770 3770 
Q 2525 4250 2034 4250 
z
M 2034 4750 
Q 2819 4750 3233 4129 
Q 3647 3509 3647 2328 
Q 3647 1150 3233 529 
Q 2819 -91 2034 -91 
Q 1250 -91 836 529 
Q 422 1150 422 2328 
Q 422 3509 836 4129 
Q 1250 4750 2034 4750 
z
" transform="scale(0.015625)"/>
        <path id="DejaVuSans-2e" d="M 684 794 
L 1344 794 
L 1344 0 
L 684 0 
L 684 794 
z
" transform="scale(0.015625)"/>
       </defs>
       <use xlink:href="#DejaVuSans-30"/>
       <use xlink:href="#DejaVuSans-2e" x="63.623047"/>
       <use xlink:href="#DejaVuSans-30" x="95.410156"/>
      </g>
     </g>
    </g>
    <g id="xtick_2">
     <g id="line2d_2">
      <g>
       <use xlink:href="#m2c9c2c7f78" x="172.631364" y="205.24" style="stroke: #000000; stroke-width: 0.8"/>
      </g>
     </g>
     <g id="text_2">
      <!-- 0.2 -->
      <g transform="translate(164.679801 219.838437) scale(0.1 -0.1)">
       <defs>
        <path id="DejaVuSans-32" d="M 1228 531 
L 3431 531 
L 3431 0 
L 469 0 
L 469 531 
Q 828 903 1448 1529 
Q 2069 2156 2228 2338 
Q 2531 2678 2651 2914 
Q 2772 3150 2772 3378 
Q 2772 3750 2511 3984 
Q 2250 4219 1831 4219 
Q 1534 4219 1204 4116 
Q 875 4013 500 3803 
L 500 4441 
Q 881 4594 1212 4672 
Q 1544 4750 1819 4750 
Q 2544 4750 2975 4387 
Q 3406 4025 3406 3419 
Q 3406 3131 3298 2873 
Q 3191 2616 2906 2266 
Q 2828 2175 2409 1742 
Q 1991 1309 1228 531 
z
" transform="scale(0.015625)"/>
       </defs>
       <use xlink:href="#DejaVuSans-30"/>
       <use xlink:href="#DejaVuSans-2e" x="63.623047"/>
       <use xlink:href="#DejaVuSans-32" x="95.410156"/>
      </g>
     </g>
    </g>
    <g id="xtick_3">
     <g id="line2d_3">
      <g>
       <use xlink:href="#m2c9c2c7f78" x="265.000455" y="205.24" style="stroke: #000000; stroke-width: 0.8"/>
      </g>
     </g>
     <g id="text_3">
      <!-- 0.4 -->
      <g transform="translate(257.048892 219.838437) scale(0.1 -0.1)">
       <defs>
        <path id="DejaVuSans-34" d="M 2419 4116 
L 825 1625 
L 2419 1625 
L 2419 4116 
z
M 2253 4666 
L 3047 4666 
L 3047 1625 
L 3713 1625 
L 3713 1100 
L 3047 1100 
L 3047 0 
L 2419 0 
L 2419 1100 
L 313 1100 
L 313 1709 
L 2253 4666 
z
" transform="scale(0.015625)"/>
       </defs>
       <use xlink:href="#DejaVuSans-30"/>
       <use xlink:href="#DejaVuSans-2e" x="63.623047"/>
       <use xlink:href="#DejaVuSans-34" x="95.410156"/>
      </g>
     </g>
    </g>
    <g id="xtick_4">
     <g id="line2d_4">
      <g>
       <use xlink:href="#m2c9c2c7f78" x="357.369545" y="205.24" style="stroke: #000000; stroke-width: 0.8"/>
      </g>
     </g>
     <g id="text_4">
      <!-- 0.6 -->
      <g transform="translate(349.417983 219.838437) scale(0.1 -0.1)">
       <defs>
        <path id="DejaVuSans-36" d="M 2113 2584 
Q 1688 2584 1439 2293 
Q 1191 2003 1191 1497 
Q 1191 994 1439 701 
Q 1688 409 2113 409 
Q 2538 409 2786 701 
Q 3034 994 3034 1497 
Q 3034 2003 2786 2293 
Q 2538 2584 2113 2584 
z
M 3366 4563 
L 3366 3988 
Q 3128 4100 2886 4159 
Q 2644 4219 2406 4219 
Q 1781 4219 1451 3797 
Q 1122 3375 1075 2522 
Q 1259 2794 1537 2939 
Q 1816 3084 2150 3084 
Q 2853 3084 3261 2657 
Q 3669 2231 3669 1497 
Q 3669 778 3244 343 
Q 2819 -91 2113 -91 
Q 1303 -91 875 529 
Q 447 1150 447 2328 
Q 447 3434 972 4092 
Q 1497 4750 2381 4750 
Q 2619 4750 2861 4703 
Q 3103 4656 3366 4563 
z
" transform="scale(0.015625)"/>
       </defs>
       <use xlink:href="#DejaVuSans-30"/>
       <use xlink:href="#DejaVuSans-2e" x="63.623047"/>
       <use xlink:href="#DejaVuSans-36" x="95.410156"/>
      </g>
     </g>
    </g>
    <g id="xtick_5">
     <g id="line2d_5">
      <g>
       <use xlink:href="#m2c9c2c7f78" x="449.738636" y="205.24" style="stroke: #000000; stroke-width: 0.8"/>
      </g>
     </g>
     <g id="text_5">
      <!-- 0.8 -->
      <g transform="translate(441.787074 219.838437) scale(0.1 -0.1)">
       <defs>
        <path id="DejaVuSans-38" d="M 2034 2216 
Q 1584 2216 1326 1975 
Q 1069 1734 1069 1313 
Q 1069 891 1326 650 
Q 1584 409 2034 409 
Q 2484 409 2743 651 
Q 3003 894 3003 1313 
Q 3003 1734 2745 1975 
Q 2488 2216 2034 2216 
z
M 1403 2484 
Q 997 2584 770 2862 
Q 544 3141 544 3541 
Q 544 4100 942 4425 
Q 1341 4750 2034 4750 
Q 2731 4750 3128 4425 
Q 3525 4100 3525 3541 
Q 3525 3141 3298 2862 
Q 3072 2584 2669 2484 
Q 3125 2378 3379 2068 
Q 3634 1759 3634 1313 
Q 3634 634 3220 271 
Q 2806 -91 2034 -91 
Q 1263 -91 848 271 
Q 434 634 434 1313 
Q 434 1759 690 2068 
Q 947 2378 1403 2484 
z
M 1172 3481 
Q 1172 3119 1398 2916 
Q 1625 2713 2034 2713 
Q 2441 2713 2670 2916 
Q 2900 3119 2900 3481 
Q 2900 3844 2670 4047 
Q 2441 4250 2034 4250 
Q 1625 4250 1398 4047 
Q 1172 3844 1172 3481 
z
" transform="scale(0.015625)"/>
       </defs>
       <use xlink:href="#DejaVuSans-30"/>
       <use xlink:href="#DejaVuSans-2e" x="63.623047"/>
       <use xlink:href="#DejaVuSans-38" x="95.410156"/>
      </g>
     </g>
    </g>
    <g id="xtick_6">
     <g id="line2d_6">
      <g>
       <use xlink:href="#m2c9c2c7f78" x="542.107727" y="205.24" style="stroke: #000000; stroke-width: 0.8"/>
      </g>
     </g>
     <g id="text_6">
      <!-- 1.0 -->
      <g transform="translate(534.156165 219.838437) scale(0.1 -0.1)">
       <defs>
        <path id="DejaVuSans-31" d="M 794 531 
L 1825 531 
L 1825 4091 
L 703 3866 
L 703 4441 
L 1819 4666 
L 2450 4666 
L 2450 531 
L 3481 531 
L 3481 0 
L 794 0 
L 794 531 
z
" transform="scale(0.015625)"/>
       </defs>
       <use xlink:href="#DejaVuSans-31"/>
       <use xlink:href="#DejaVuSans-2e" x="63.623047"/>
       <use xlink:href="#DejaVuSans-30" x="95.410156"/>
      </g>
     </g>
    </g>
    <g id="text_7">
     <!-- time in hours -->
     <g transform="translate(278.095937 233.516563) scale(0.1 -0.1)">
      <defs>
       <path id="DejaVuSans-74" d="M 1172 4494 
L 1172 3500 
L 2356 3500 
L 2356 3053 
L 1172 3053 
L 1172 1153 
Q 1172 725 1289 603 
Q 1406 481 1766 481 
L 2356 481 
L 2356 0 
L 1766 0 
Q 1100 0 847 248 
Q 594 497 594 1153 
L 594 3053 
L 172 3053 
L 172 3500 
L 594 3500 
L 594 4494 
L 1172 4494 
z
" transform="scale(0.015625)"/>
       <path id="DejaVuSans-69" d="M 603 3500 
L 1178 3500 
L 1178 0 
L 603 0 
L 603 3500 
z
M 603 4863 
L 1178 4863 
L 1178 4134 
L 603 4134 
L 603 4863 
z
" transform="scale(0.015625)"/>
       <path id="DejaVuSans-6d" d="M 3328 2828 
Q 3544 3216 3844 3400 
Q 4144 3584 4550 3584 
Q 5097 3584 5394 3201 
Q 5691 2819 5691 2113 
L 5691 0 
L 5113 0 
L 5113 2094 
Q 5113 2597 4934 2840 
Q 4756 3084 4391 3084 
Q 3944 3084 3684 2787 
Q 3425 2491 3425 1978 
L 3425 0 
L 2847 0 
L 2847 2094 
Q 2847 2600 2669 2842 
Q 2491 3084 2119 3084 
Q 1678 3084 1418 2786 
Q 1159 2488 1159 1978 
L 1159 0 
L 581 0 
L 581 3500 
L 1159 3500 
L 1159 2956 
Q 1356 3278 1631 3431 
Q 1906 3584 2284 3584 
Q 2666 3584 2933 3390 
Q 3200 3197 3328 2828 
z
" transform="scale(0.015625)"/>
       <path id="DejaVuSans-65" d="M 3597 1894 
L 3597 1613 
L 953 1613 
Q 991 1019 1311 708 
Q 1631 397 2203 397 
Q 2534 397 2845 478 
Q 3156 559 3463 722 
L 3463 178 
Q 3153 47 2828 -22 
Q 2503 -91 2169 -91 
Q 1331 -91 842 396 
Q 353 884 353 1716 
Q 353 2575 817 3079 
Q 1281 3584 2069 3584 
Q 2775 3584 3186 3129 
Q 3597 2675 3597 1894 
z
M 3022 2063 
Q 3016 2534 2758 2815 
Q 2500 3097 2075 3097 
Q 1594 3097 1305 2825 
Q 1016 2553 972 2059 
L 3022 2063 
z
" transform="scale(0.015625)"/>
       <path id="DejaVuSans-20" transform="scale(0.015625)"/>
       <path id="DejaVuSans-6e" d="M 3513 2113 
L 3513 0 
L 2938 0 
L 2938 2094 
Q 2938 2591 2744 2837 
Q 2550 3084 2163 3084 
Q 1697 3084 1428 2787 
Q 1159 2491 1159 1978 
L 1159 0 
L 581 0 
L 581 3500 
L 1159 3500 
L 1159 2956 
Q 1366 3272 1645 3428 
Q 1925 3584 2291 3584 
Q 2894 3584 3203 3211 
Q 3513 2838 3513 2113 
z
" transform="scale(0.015625)"/>
       <path id="DejaVuSans-68" d="M 3513 2113 
L 3513 0 
L 2938 0 
L 2938 2094 
Q 2938 2591 2744 2837 
Q 2550 3084 2163 3084 
Q 1697 3084 1428 2787 
Q 1159 2491 1159 1978 
L 1159 0 
L 581 0 
L 581 4863 
L 1159 4863 
L 1159 2956 
Q 1366 3272 1645 3428 
Q 1925 3584 2291 3584 
Q 2894 3584 3203 3211 
Q 3513 2838 3513 2113 
z
" transform="scale(0.015625)"/>
       <path id="DejaVuSans-6f" d="M 1959 3097 
Q 1497 3097 1228 2736 
Q 959 2375 959 1747 
Q 959 1119 1226 758 
Q 1494 397 1959 397 
Q 2419 397 2687 759 
Q 2956 1122 2956 1747 
Q 2956 2369 2687 2733 
Q 2419 3097 1959 3097 
z
M 1959 3584 
Q 2709 3584 3137 3096 
Q 3566 2609 3566 1747 
Q 3566 888 3137 398 
Q 2709 -91 1959 -91 
Q 1206 -91 779 398 
Q 353 888 353 1747 
Q 353 2609 779 3096 
Q 1206 3584 1959 3584 
z
" transform="scale(0.015625)"/>
       <path id="DejaVuSans-75" d="M 544 1381 
L 544 3500 
L 1119 3500 
L 1119 1403 
Q 1119 906 1312 657 
Q 1506 409 1894 409 
Q 2359 409 2629 706 
Q 2900 1003 2900 1516 
L 2900 3500 
L 3475 3500 
L 3475 0 
L 2900 0 
L 2900 538 
Q 2691 219 2414 64 
Q 2138 -91 1772 -91 
Q 1169 -91 856 284 
Q 544 659 544 1381 
z
M 1991 3584 
L 1991 3584 
z
" transform="scale(0.015625)"/>
       <path id="DejaVuSans-72" d="M 2631 2963 
Q 2534 3019 2420 3045 
Q 2306 3072 2169 3072 
Q 1681 3072 1420 2755 
Q 1159 2438 1159 1844 
L 1159 0 
L 581 0 
L 581 3500 
L 1159 3500 
L 1159 2956 
Q 1341 3275 1631 3429 
Q 1922 3584 2338 3584 
Q 2397 3584 2469 3576 
Q 2541 3569 2628 3553 
L 2631 2963 
z
" transform="scale(0.015625)"/>
       <path id="DejaVuSans-73" d="M 2834 3397 
L 2834 2853 
Q 2591 2978 2328 3040 
Q 2066 3103 1784 3103 
Q 1356 3103 1142 2972 
Q 928 2841 928 2578 
Q 928 2378 1081 2264 
Q 1234 2150 1697 2047 
L 1894 2003 
Q 2506 1872 2764 1633 
Q 3022 1394 3022 966 
Q 3022 478 2636 193 
Q 2250 -91 1575 -91 
Q 1294 -91 989 -36 
Q 684 19 347 128 
L 347 722 
Q 666 556 975 473 
Q 1284 391 1588 391 
Q 1994 391 2212 530 
Q 2431 669 2431 922 
Q 2431 1156 2273 1281 
Q 2116 1406 1581 1522 
L 1381 1569 
Q 847 1681 609 1914 
Q 372 2147 372 2553 
Q 372 3047 722 3315 
Q 1072 3584 1716 3584 
Q 2034 3584 2315 3537 
Q 2597 3491 2834 3397 
z
" transform="scale(0.015625)"/>
      </defs>
      <use xlink:href="#DejaVuSans-74"/>
      <use xlink:href="#DejaVuSans-69" x="39.208984"/>
      <use xlink:href="#DejaVuSans-6d" x="66.992188"/>
      <use xlink:href="#DejaVuSans-65" x="164.404297"/>
      <use xlink:href="#DejaVuSans-20" x="225.927734"/>
      <use xlink:href="#DejaVuSans-69" x="257.714844"/>
      <use xlink:href="#DejaVuSans-6e" x="285.498047"/>
      <use xlink:href="#DejaVuSans-20" x="348.876953"/>
      <use xlink:href="#DejaVuSans-68" x="380.664062"/>
      <use xlink:href="#DejaVuSans-6f" x="444.042969"/>
      <use xlink:href="#DejaVuSans-75" x="505.224609"/>
      <use xlink:href="#DejaVuSans-72" x="568.603516"/>
      <use xlink:href="#DejaVuSans-73" x="609.716797"/>
     </g>
    </g>
   </g>
   <g id="matplotlib.axis_2">
    <g id="ytick_1">
     <g id="line2d_7">
      <defs>
       <path id="m80c7d43a2c" d="M 0 0 
L -3.5 0 
" style="stroke: #000000; stroke-width: 0.8"/>
      </defs>
      <g>
       <use xlink:href="#m80c7d43a2c" x="57.17" y="197.132727" style="stroke: #000000; stroke-width: 0.8"/>
      </g>
     </g>
     <g id="text_8">
      <!-- −1.0 -->
      <g transform="translate(25.887188 200.931946) scale(0.1 -0.1)">
       <defs>
        <path id="DejaVuSans-2212" d="M 678 2272 
L 4684 2272 
L 4684 1741 
L 678 1741 
L 678 2272 
z
" transform="scale(0.015625)"/>
       </defs>
       <use xlink:href="#DejaVuSans-2212"/>
       <use xlink:href="#DejaVuSans-31" x="83.789062"/>
       <use xlink:href="#DejaVuSans-2e" x="147.412109"/>
       <use xlink:href="#DejaVuSans-30" x="179.199219"/>
      </g>
     </g>
    </g>
    <g id="ytick_2">
     <g id="line2d_8">
      <g>
       <use xlink:href="#m80c7d43a2c" x="57.17" y="156.596364" style="stroke: #000000; stroke-width: 0.8"/>
      </g>
     </g>
     <g id="text_9">
      <!-- −0.5 -->
      <g transform="translate(25.887188 160.395582) scale(0.1 -0.1)">
       <defs>
        <path id="DejaVuSans-35" d="M 691 4666 
L 3169 4666 
L 3169 4134 
L 1269 4134 
L 1269 2991 
Q 1406 3038 1543 3061 
Q 1681 3084 1819 3084 
Q 2600 3084 3056 2656 
Q 3513 2228 3513 1497 
Q 3513 744 3044 326 
Q 2575 -91 1722 -91 
Q 1428 -91 1123 -41 
Q 819 9 494 109 
L 494 744 
Q 775 591 1075 516 
Q 1375 441 1709 441 
Q 2250 441 2565 725 
Q 2881 1009 2881 1497 
Q 2881 1984 2565 2268 
Q 2250 2553 1709 2553 
Q 1456 2553 1204 2497 
Q 953 2441 691 2322 
L 691 4666 
z
" transform="scale(0.015625)"/>
       </defs>
       <use xlink:href="#DejaVuSans-2212"/>
       <use xlink:href="#DejaVuSans-30" x="83.789062"/>
       <use xlink:href="#DejaVuSans-2e" x="147.412109"/>
       <use xlink:href="#DejaVuSans-35" x="179.199219"/>
      </g>
     </g>
    </g>
    <g id="ytick_3">
     <g id="line2d_9">
      <g>
       <use xlink:href="#m80c7d43a2c" x="57.17" y="116.06" style="stroke: #000000; stroke-width: 0.8"/>
      </g>
     </g>
     <g id="text_10">
      <!-- 0.0 -->
      <g transform="translate(34.266875 119.859219) scale(0.1 -0.1)">
       <use xlink:href="#DejaVuSans-30"/>
       <use xlink:href="#DejaVuSans-2e" x="63.623047"/>
       <use xlink:href="#DejaVuSans-30" x="95.410156"/>
      </g>
     </g>
    </g>
    <g id="ytick_4">
     <g id="line2d_10">
      <g>
       <use xlink:href="#m80c7d43a2c" x="57.17" y="75.523636" style="stroke: #000000; stroke-width: 0.8"/>
      </g>
     </g>
     <g id="text_11">
      <!-- 0.5 -->
      <g transform="translate(34.266875 79.322855) scale(0.1 -0.1)">
       <use xlink:href="#DejaVuSans-30"/>
       <use xlink:href="#DejaVuSans-2e" x="63.623047"/>
       <use xlink:href="#DejaVuSans-35" x="95.410156"/>
      </g>
     </g>
    </g>
    <g id="ytick_5">
     <g id="line2d_11">
      <g>
       <use xlink:href="#m80c7d43a2c" x="57.17" y="34.987273" style="stroke: #000000; stroke-width: 0.8"/>
      </g>
     </g>
     <g id="text_12">
      <!-- 1.0 -->
      <g transform="translate(34.266875 38.786491) scale(0.1 -0.1)">
       <use xlink:href="#DejaVuSans-31"/>
       <use xlink:href="#DejaVuSans-2e" x="63.623047"/>
       <use xlink:href="#DejaVuSans-30" x="95.410156"/>
      </g>
     </g>
    </g>
    <g id="text_13">
     <!-- reflectance -->
     <g transform="translate(19.8075 144.073281) rotate(-90) scale(0.1 -0.1)">
      <defs>
       <path id="DejaVuSans-66" d="M 2375 4863 
L 2375 4384 
L 1825 4384 
Q 1516 4384 1395 4259 
Q 1275 4134 1275 3809 
L 1275 3500 
L 2222 3500 
L 2222 3053 
L 1275 3053 
L 1275 0 
L 697 0 
L 697 3053 
L 147 3053 
L 147 3500 
L 697 3500 
L 697 3744 
Q 697 4328 969 4595 
Q 1241 4863 1831 4863 
L 2375 4863 
z
" transform="scale(0.015625)"/>
       <path id="DejaVuSans-6c" d="M 603 4863 
L 1178 4863 
L 1178 0 
L 603 0 
L 603 4863 
z
" transform="scale(0.015625)"/>
       <path id="DejaVuSans-63" d="M 3122 3366 
L 3122 2828 
Q 2878 2963 2633 3030 
Q 2388 3097 2138 3097 
Q 1578 3097 1268 2742 
Q 959 2388 959 1747 
Q 959 1106 1268 751 
Q 1578 397 2138 397 
Q 2388 397 2633 464 
Q 2878 531 3122 666 
L 3122 134 
Q 2881 22 2623 -34 
Q 2366 -91 2075 -91 
Q 1284 -91 818 406 
Q 353 903 353 1747 
Q 353 2603 823 3093 
Q 1294 3584 2113 3584 
Q 2378 3584 2631 3529 
Q 2884 3475 3122 3366 
z
" transform="scale(0.015625)"/>
       <path id="DejaVuSans-61" d="M 2194 1759 
Q 1497 1759 1228 1600 
Q 959 1441 959 1056 
Q 959 750 1161 570 
Q 1363 391 1709 391 
Q 2188 391 2477 730 
Q 2766 1069 2766 1631 
L 2766 1759 
L 2194 1759 
z
M 3341 1997 
L 3341 0 
L 2766 0 
L 2766 531 
Q 2569 213 2275 61 
Q 1981 -91 1556 -91 
Q 1019 -91 701 211 
Q 384 513 384 1019 
Q 384 1609 779 1909 
Q 1175 2209 1959 2209 
L 2766 2209 
L 2766 2266 
Q 2766 2663 2505 2880 
Q 2244 3097 1772 3097 
Q 1472 3097 1187 3025 
Q 903 2953 641 2809 
L 641 3341 
Q 956 3463 1253 3523 
Q 1550 3584 1831 3584 
Q 2591 3584 2966 3190 
Q 3341 2797 3341 1997 
z
" transform="scale(0.015625)"/>
      </defs>
      <use xlink:href="#DejaVuSans-72"/>
      <use xlink:href="#DejaVuSans-65" x="38.863281"/>
      <use xlink:href="#DejaVuSans-66" x="100.386719"/>
      <use xlink:href="#DejaVuSans-6c" x="135.591797"/>
      <use xlink:href="#DejaVuSans-65" x="163.375"/>
      <use xlink:href="#DejaVuSans-63" x="224.898438"/>
      <use xlink:href="#DejaVuSans-74" x="279.878906"/>
      <use xlink:href="#DejaVuSans-61" x="319.087891"/>
      <use xlink:href="#DejaVuSans-6e" x="380.367188"/>
      <use xlink:href="#DejaVuSans-63" x="443.746094"/>
      <use xlink:href="#DejaVuSans-65" x="498.726562"/>
     </g>
    </g>
   </g>
   <g id="line2d_12">
    <path d="M 80.262273 34.987273 
L 86.04981 35.124084 
L 91.837347 35.522396 
L 97.624884 36.190503 
L 102.254913 36.92807 
L 106.884943 37.856507 
L 111.514973 38.988839 
L 116.145002 40.34268 
L 120.775032 41.942392 
L 125.405062 43.822332 
L 128.877584 45.444619 
L 132.350106 47.278292 
L 135.822628 49.357124 
L 139.29515 51.72282 
L 142.767673 54.426343 
L 146.240195 57.529402 
L 148.55521 59.856147 
L 150.870224 62.418616 
L 153.185239 65.245372 
L 155.500254 68.36832 
L 157.815269 71.822863 
L 160.130284 75.64798 
L 162.445298 79.886078 
L 164.760313 84.582478 
L 167.075328 89.784454 
L 169.390343 95.539413 
L 171.705358 101.89194 
L 174.020373 108.879114 
L 176.335387 116.5235 
L 178.650402 124.823254 
L 182.122924 138.399792 
L 186.752954 157.901823 
L 190.225476 172.390967 
L 192.540491 181.166008 
L 193.697998 185.076033 
L 194.855506 188.564236 
L 196.013013 191.552529 
L 197.170521 193.966069 
L 198.328028 195.736673 
L 199.485535 196.806341 
L 200.643043 197.130579 
L 201.80055 196.681233 
L 202.958058 195.448515 
L 204.115565 193.441989 
L 205.273072 190.690406 
L 206.43058 187.240361 
L 207.588087 183.153907 
L 208.745595 178.50538 
L 211.060609 167.858705 
L 214.533132 149.828131 
L 219.163161 125.173493 
L 221.478176 113.579735 
L 223.793191 102.816223 
L 226.108206 92.998977 
L 228.423221 84.165257 
L 230.738235 76.299327 
L 233.05325 69.353109 
L 235.368265 63.26134 
L 237.68328 57.951983 
L 239.998295 53.352987 
L 242.313309 49.396351 
L 244.628324 46.020387 
L 246.943339 43.170801 
L 249.258354 40.80111 
L 251.573369 38.872614 
L 253.888383 37.354197 
L 256.203398 36.222079 
L 258.518413 35.45962 
L 260.833428 35.057224 
L 263.148443 35.01239 
L 265.463458 35.329962 
L 267.778472 36.0226 
L 270.093487 37.111507 
L 272.408502 38.627452 
L 274.723517 40.612137 
L 277.038532 43.119913 
L 279.353546 46.219862 
L 281.668561 49.998191 
L 283.983576 54.560731 
L 286.298591 60.035097 
L 288.613606 66.571548 
L 290.92862 74.340771 
L 293.243635 83.525211 
L 295.55865 94.298335 
L 297.873665 106.783066 
L 300.18868 120.977987 
L 302.503694 136.641287 
L 307.133724 169.287393 
L 308.291231 176.704661 
L 309.448739 183.343325 
L 310.606246 188.935197 
L 311.763754 193.226609 
L 312.921261 196.003394 
L 314.078769 197.115068 
L 315.236276 196.493543 
L 316.393783 194.162281 
L 317.551291 190.233707 
L 318.708798 184.895442 
L 319.866306 178.388436 
L 322.18132 162.947267 
L 327.968857 121.148554 
L 330.283872 106.30339 
L 332.598887 93.258095 
L 334.913902 82.041933 
L 337.228917 72.534253 
L 339.543931 64.551436 
L 341.858946 57.89665 
L 344.173961 52.384988 
L 346.488976 47.854202 
L 348.803991 44.16772 
L 351.119005 41.213942 
L 353.43402 38.904034 
L 355.749035 37.169377 
L 358.06405 35.959201 
L 359.221557 35.539328 
L 360.379065 35.238679 
L 361.536572 35.055171 
L 362.69408 34.987577 
L 363.851587 35.035519 
L 365.009094 35.199466 
L 366.166602 35.480744 
L 367.324109 35.88155 
L 368.481617 36.404981 
L 369.639124 37.055075 
L 370.796631 37.836855 
L 371.954139 38.75639 
L 373.111646 39.820862 
L 374.269154 41.038646 
L 375.426661 42.419401 
L 376.584168 43.974167 
L 378.899183 47.657434 
L 381.214198 52.208478 
L 383.529213 57.776137 
L 385.844228 64.539954 
L 388.159242 72.708197 
L 390.474257 82.507163 
L 392.789272 94.15317 
L 395.104287 107.793496 
L 397.419302 123.398123 
L 400.891824 149.510277 
L 403.206839 167.075725 
L 404.364346 175.20222 
L 405.521853 182.483521 
L 406.679361 188.594395 
L 407.836868 193.228096 
L 408.994376 196.130538 
L 410.151883 197.132727 
L 411.309391 196.174296 
L 412.466898 193.312288 
L 413.624405 188.712888 
L 414.781913 182.628262 
L 415.93942 175.36428 
L 418.254435 158.58915 
L 422.884465 123.520642 
L 425.199479 107.880119 
L 427.514494 94.205587 
L 429.829509 82.530017 
L 432.144524 72.707065 
L 434.459539 64.520289 
L 436.774553 57.742833 
L 439.089568 52.165778 
L 441.404583 47.609003 
L 443.719598 43.923236 
L 446.034613 40.988187 
L 448.349627 38.709298 
L 450.664642 37.014368 
L 451.82215 36.368697 
L 452.979657 35.850591 
L 454.137165 35.456099 
L 455.294672 35.182228 
L 456.452179 35.026907 
L 457.609687 34.988968 
L 458.767194 35.068128 
L 459.924702 35.264986 
L 461.082209 35.581031 
L 462.239716 36.01866 
L 463.397224 36.581206 
L 464.554731 37.272977 
L 465.712239 38.099303 
L 466.869746 39.066601 
L 468.027253 40.182446 
L 469.184761 41.455649 
L 470.342268 42.896353 
L 471.499776 44.516137 
L 472.657283 46.328116 
L 473.81479 48.347059 
L 476.129805 53.073813 
L 478.44482 58.851342 
L 480.759835 65.865578 
L 483.07485 74.330296 
L 485.389864 84.473922 
L 487.704879 96.506731 
L 490.019894 110.553531 
L 492.334909 126.533254 
L 495.807431 152.933387 
L 498.122446 170.297058 
L 499.279953 178.148776 
L 500.437461 185.024959 
L 501.594968 190.602157 
L 502.752476 194.588797 
L 503.909983 196.759767 
L 505.06749 196.986399 
L 506.224998 195.254837 
L 507.382505 191.668067 
L 508.540013 186.431092 
L 509.69752 179.823082 
L 512.012535 163.77722 
L 517.800072 120.132217 
L 520.115087 104.857856 
L 522.430101 91.584091 
L 524.745116 80.294467 
L 527.060131 70.820214 
L 529.375146 62.938213 
L 531.690161 56.423001 
L 534.005175 51.070599 
L 536.32019 46.706991 
L 538.635205 43.189029 
L 540.95022 40.402115 
L 542.107727 39.25397 
L 542.107727 39.25397 
" clip-path="url(#pf1d948f3fa)" style="fill: none; stroke: #1f77b4; stroke-width: 1.5; stroke-linecap: square"/>
   </g>
   <g id="line2d_13">
    <path d="M 80.262273 34.987273 
L 84.892302 35.100874 
L 89.522332 35.416816 
L 95.309869 36.072301 
L 101.097406 36.986983 
L 106.884943 38.131568 
L 112.67248 39.514142 
L 117.30251 40.823972 
L 121.932539 42.37574 
L 125.405062 43.738681 
L 128.877584 45.321871 
L 132.350106 47.154088 
L 135.822628 49.239737 
L 139.29515 51.619612 
L 142.767673 54.353946 
L 146.240195 57.496747 
L 148.55521 59.856632 
L 150.870224 62.450309 
L 153.185239 65.297345 
L 155.500254 68.427648 
L 157.815269 71.881007 
L 160.130284 75.704396 
L 162.445298 79.934266 
L 164.760313 84.608915 
L 167.075328 89.784279 
L 169.390343 95.517299 
L 171.705358 101.861774 
L 174.020373 108.855031 
L 176.335387 116.510086 
L 178.650402 124.818542 
L 182.122924 138.40558 
L 186.752954 157.89652 
L 190.225476 172.392459 
L 192.540491 181.182079 
L 193.697998 185.096194 
L 194.855506 188.584476 
L 196.013013 191.570249 
L 197.170521 193.979658 
L 198.328028 195.745244 
L 199.485535 196.810067 
L 200.643043 197.130256 
L 201.80055 196.677119 
L 202.958058 195.440046 
L 204.115565 193.428056 
L 205.273072 190.669503 
L 206.43058 187.211924 
L 207.588087 183.119017 
L 208.745595 178.467225 
L 211.060609 167.828083 
L 214.533132 149.830304 
L 220.320669 119.338567 
L 222.635684 108.145293 
L 224.950698 97.840287 
L 227.265713 88.497145 
L 229.580728 80.122293 
L 231.895743 72.683419 
L 234.210758 66.126073 
L 236.525772 60.383957 
L 238.840787 55.388168 
L 241.155802 51.075188 
L 243.470817 47.393792 
L 245.785832 44.293133 
L 248.100846 41.713385 
L 250.415861 39.603586 
L 252.730876 37.922901 
L 255.045891 36.639805 
L 257.360906 35.731416 
L 259.67592 35.182993 
L 261.990935 34.987678 
L 264.30595 35.14609 
L 266.620965 35.666456 
L 268.93598 36.565306 
L 271.250995 37.86836 
L 273.566009 39.611667 
L 275.881024 41.843181 
L 278.196039 44.624607 
L 280.511054 48.033653 
L 282.826069 52.16659 
L 285.141083 57.140511 
L 287.456098 63.09545 
L 289.771113 70.194157 
L 292.086128 78.617303 
L 294.401143 88.549842 
L 296.716157 100.15118 
L 299.031172 113.498672 
L 301.346187 128.492543 
L 304.818709 153.032002 
L 307.133724 169.236196 
L 308.291231 176.679378 
L 309.448739 183.339863 
L 310.606246 188.946941 
L 311.763754 193.244937 
L 312.921261 196.018567 
L 314.078769 197.117484 
L 315.236276 196.47506 
L 316.393783 194.117309 
L 317.551291 190.159862 
L 318.708798 184.793658 
L 319.866306 178.262556 
L 322.18132 162.792273 
L 327.968857 121.033295 
L 330.283872 106.22737 
L 332.598887 93.221369 
L 334.913902 82.039215 
L 337.228917 72.558088 
L 339.543931 64.593893 
L 341.858946 57.950351 
L 344.173961 52.443607 
L 346.488976 47.912448 
L 348.803991 44.221361 
L 351.119005 41.260066 
L 353.43402 38.940974 
L 355.749035 37.196468 
L 358.06405 35.976542 
L 359.221557 35.552026 
L 360.379065 35.246974 
L 361.536572 35.059346 
L 362.69408 34.987943 
L 363.851587 35.032401 
L 365.009094 35.193194 
L 366.166602 35.471638 
L 367.324109 35.869913 
L 368.481617 36.391104 
L 369.639124 37.039227 
L 370.796631 37.819282 
L 371.954139 38.737324 
L 373.111646 39.800525 
L 374.269154 41.017258 
L 375.426661 42.397163 
L 376.584168 43.951259 
L 377.741676 45.692065 
L 380.056691 49.791999 
L 382.371705 54.830985 
L 384.68672 60.973169 
L 387.001735 68.413161 
L 389.31675 77.370497 
L 391.631765 88.071588 
L 393.946779 100.708144 
L 396.261794 115.355976 
L 398.576809 131.835737 
L 404.364346 175.208121 
L 405.521853 182.489505 
L 406.679361 188.599755 
L 407.836868 193.232165 
L 408.994376 196.13276 
L 410.151883 197.132727 
L 411.309391 196.171915 
L 412.466898 193.307585 
L 413.624405 188.706107 
L 414.781913 182.619774 
L 415.93942 175.354536 
L 418.254435 158.578385 
L 422.884465 123.512186 
L 425.199479 107.873921 
L 427.514494 94.201632 
L 429.829509 82.528031 
L 432.144524 72.706699 
L 434.459539 64.521148 
L 436.774553 57.744539 
L 439.089568 52.168001 
L 441.404583 47.611467 
L 443.719598 43.925721 
L 446.034613 40.990516 
L 448.349627 38.711332 
L 450.664642 37.015998 
L 451.82215 36.370089 
L 452.979657 35.851727 
L 454.137165 35.45696 
L 455.294672 35.182797 
L 456.452179 35.02717 
L 457.609687 34.988911 
L 458.767194 35.067738 
L 459.924702 35.264251 
L 461.082209 35.57994 
L 462.239716 36.017203 
L 463.397224 36.579374 
L 464.554731 37.270761 
L 465.712239 38.096696 
L 466.869746 39.063598 
L 468.027253 40.179041 
L 469.184761 41.45184 
L 470.342268 42.89214 
L 471.499776 44.511522 
L 472.657283 46.323105 
L 473.81479 48.341663 
L 476.129805 53.0677 
L 478.44482 58.844634 
L 480.759835 65.858481 
L 483.07485 74.323132 
L 485.389864 84.467161 
L 487.704879 96.501017 
L 490.019894 110.549661 
L 492.334909 126.532062 
L 495.807431 152.937135 
L 498.122446 170.303468 
L 499.279953 178.155827 
L 500.437461 185.031955 
L 501.594968 190.608276 
L 502.752476 194.593176 
L 503.909983 196.761613 
L 505.06749 196.985108 
L 506.224998 195.250086 
L 507.382505 191.659869 
L 508.540013 186.41979 
L 509.69752 179.809296 
L 512.012535 163.760979 
L 517.800072 120.123474 
L 520.115087 104.85509 
L 522.430101 91.587628 
L 524.745116 80.304087 
L 527.060131 70.835384 
L 529.375146 62.95823 
L 531.690161 56.447063 
L 534.005175 51.09783 
L 536.32019 46.736416 
L 538.635205 43.219541 
L 540.95022 40.432406 
L 542.107727 39.283576 
L 542.107727 39.283576 
" clip-path="url(#pf1d948f3fa)" style="fill: none; stroke: #ff7f0e; stroke-width: 1.5; stroke-linecap: square"/>
   </g>
   <g id="patch_3">
    <path d="M 57.17 205.24 
L 57.17 26.88 
" style="fill: none; stroke: #000000; stroke-width: 0.8; stroke-linejoin: miter; stroke-linecap: square"/>
   </g>
   <g id="patch_4">
    <path d="M 565.2 205.24 
L 565.2 26.88 
" style="fill: none; stroke: #000000; stroke-width: 0.8; stroke-linejoin: miter; stroke-linecap: square"/>
   </g>
   <g id="patch_5">
    <path d="M 57.17 205.24 
L 565.2 205.24 
" style="fill: none; stroke: #000000; stroke-width: 0.8; stroke-linejoin: miter; stroke-linecap: square"/>
   </g>
   <g id="patch_6">
    <path d="M 57.17 26.88 
L 565.2 26.88 
" style="fill: none; stroke: #000000; stroke-width: 0.8; stroke-linejoin: miter; stroke-linecap: square"/>
   </g>
   <g id="text_14">
    <!-- Reflectance -->
    <g transform="translate(276.001562 20.88) scale(0.12 -0.12)">
     <defs>
      <path id="DejaVuSans-52" d="M 2841 2188 
Q 3044 2119 3236 1894 
Q 3428 1669 3622 1275 
L 4263 0 
L 3584 0 
L 2988 1197 
Q 2756 1666 2539 1819 
Q 2322 1972 1947 1972 
L 1259 1972 
L 1259 0 
L 628 0 
L 628 4666 
L 2053 4666 
Q 2853 4666 3247 4331 
Q 3641 3997 3641 3322 
Q 3641 2881 3436 2590 
Q 3231 2300 2841 2188 
z
M 1259 4147 
L 1259 2491 
L 2053 2491 
Q 2509 2491 2742 2702 
Q 2975 2913 2975 3322 
Q 2975 3731 2742 3939 
Q 2509 4147 2053 4147 
L 1259 4147 
z
" transform="scale(0.015625)"/>
     </defs>
     <use xlink:href="#DejaVuSans-52"/>
     <use xlink:href="#DejaVuSans-65" x="64.982422"/>
     <use xlink:href="#DejaVuSans-66" x="126.505859"/>
     <use xlink:href="#DejaVuSans-6c" x="161.710938"/>
     <use xlink:href="#DejaVuSans-65" x="189.494141"/>
     <use xlink:href="#DejaVuSans-63" x="251.017578"/>
     <use xlink:href="#DejaVuSans-74" x="305.998047"/>
     <use xlink:href="#DejaVuSans-61" x="345.207031"/>
     <use xlink:href="#DejaVuSans-6e" x="406.486328"/>
     <use xlink:href="#DejaVuSans-63" x="469.865234"/>
     <use xlink:href="#DejaVuSans-65" x="524.845703"/>
    </g>
   </g>
   <g id="legend_1">
    <g id="patch_7">
     <path d="M 417.039062 64.23625 
L 558.2 64.23625 
Q 560.2 64.23625 560.2 62.23625 
L 560.2 33.88 
Q 560.2 31.88 558.2 31.88 
L 417.039062 31.88 
Q 415.039062 31.88 415.039062 33.88 
L 415.039062 62.23625 
Q 415.039062 64.23625 417.039062 64.23625 
z
" style="fill: #ffffff; opacity: 0.8; stroke: #cccccc; stroke-linejoin: miter"/>
    </g>
    <g id="line2d_14">
     <path d="M 419.039062 39.978438 
L 429.039062 39.978438 
L 439.039062 39.978438 
" style="fill: none; stroke: #1f77b4; stroke-width: 1.5; stroke-linecap: square"/>
    </g>
    <g id="text_15">
     <!-- measured reflectance -->
     <g transform="translate(447.039062 43.478438) scale(0.1 -0.1)">
      <defs>
       <path id="DejaVuSans-64" d="M 2906 2969 
L 2906 4863 
L 3481 4863 
L 3481 0 
L 2906 0 
L 2906 525 
Q 2725 213 2448 61 
Q 2172 -91 1784 -91 
Q 1150 -91 751 415 
Q 353 922 353 1747 
Q 353 2572 751 3078 
Q 1150 3584 1784 3584 
Q 2172 3584 2448 3432 
Q 2725 3281 2906 2969 
z
M 947 1747 
Q 947 1113 1208 752 
Q 1469 391 1925 391 
Q 2381 391 2643 752 
Q 2906 1113 2906 1747 
Q 2906 2381 2643 2742 
Q 2381 3103 1925 3103 
Q 1469 3103 1208 2742 
Q 947 2381 947 1747 
z
" transform="scale(0.015625)"/>
      </defs>
      <use xlink:href="#DejaVuSans-6d"/>
      <use xlink:href="#DejaVuSans-65" x="97.412109"/>
      <use xlink:href="#DejaVuSans-61" x="158.935547"/>
      <use xlink:href="#DejaVuSans-73" x="220.214844"/>
      <use xlink:href="#DejaVuSans-75" x="272.314453"/>
      <use xlink:href="#DejaVuSans-72" x="335.693359"/>
      <use xlink:href="#DejaVuSans-65" x="374.556641"/>
      <use xlink:href="#DejaVuSans-64" x="436.080078"/>
      <use xlink:href="#DejaVuSans-20" x="499.556641"/>
      <use xlink:href="#DejaVuSans-72" x="531.34375"/>
      <use xlink:href="#DejaVuSans-65" x="570.207031"/>
      <use xlink:href="#DejaVuSans-66" x="631.730469"/>
      <use xlink:href="#DejaVuSans-6c" x="666.935547"/>
      <use xlink:href="#DejaVuSans-65" x="694.71875"/>
      <use xlink:href="#DejaVuSans-63" x="756.242188"/>
      <use xlink:href="#DejaVuSans-74" x="811.222656"/>
      <use xlink:href="#DejaVuSans-61" x="850.431641"/>
      <use xlink:href="#DejaVuSans-6e" x="911.710938"/>
      <use xlink:href="#DejaVuSans-63" x="975.089844"/>
      <use xlink:href="#DejaVuSans-65" x="1030.070312"/>
     </g>
    </g>
    <g id="line2d_15">
     <path d="M 419.039062 54.656563 
L 429.039062 54.656563 
L 439.039062 54.656563 
" style="fill: none; stroke: #ff7f0e; stroke-width: 1.5; stroke-linecap: square"/>
    </g>
    <g id="text_16">
     <!-- predicted reflectance -->
     <g transform="translate(447.039062 58.156563) scale(0.1 -0.1)">
      <defs>
       <path id="DejaVuSans-70" d="M 1159 525 
L 1159 -1331 
L 581 -1331 
L 581 3500 
L 1159 3500 
L 1159 2969 
Q 1341 3281 1617 3432 
Q 1894 3584 2278 3584 
Q 2916 3584 3314 3078 
Q 3713 2572 3713 1747 
Q 3713 922 3314 415 
Q 2916 -91 2278 -91 
Q 1894 -91 1617 61 
Q 1341 213 1159 525 
z
M 3116 1747 
Q 3116 2381 2855 2742 
Q 2594 3103 2138 3103 
Q 1681 3103 1420 2742 
Q 1159 2381 1159 1747 
Q 1159 1113 1420 752 
Q 1681 391 2138 391 
Q 2594 391 2855 752 
Q 3116 1113 3116 1747 
z
" transform="scale(0.015625)"/>
      </defs>
      <use xlink:href="#DejaVuSans-70"/>
      <use xlink:href="#DejaVuSans-72" x="63.476562"/>
      <use xlink:href="#DejaVuSans-65" x="102.339844"/>
      <use xlink:href="#DejaVuSans-64" x="163.863281"/>
      <use xlink:href="#DejaVuSans-69" x="227.339844"/>
      <use xlink:href="#DejaVuSans-63" x="255.123047"/>
      <use xlink:href="#DejaVuSans-74" x="310.103516"/>
      <use xlink:href="#DejaVuSans-65" x="349.3125"/>
      <use xlink:href="#DejaVuSans-64" x="410.835938"/>
      <use xlink:href="#DejaVuSans-20" x="474.3125"/>
      <use xlink:href="#DejaVuSans-72" x="506.099609"/>
      <use xlink:href="#DejaVuSans-65" x="544.962891"/>
      <use xlink:href="#DejaVuSans-66" x="606.486328"/>
      <use xlink:href="#DejaVuSans-6c" x="641.691406"/>
      <use xlink:href="#DejaVuSans-65" x="669.474609"/>
      <use xlink:href="#DejaVuSans-63" x="730.998047"/>
      <use xlink:href="#DejaVuSans-74" x="785.978516"/>
      <use xlink:href="#DejaVuSans-61" x="825.1875"/>
      <use xlink:href="#DejaVuSans-6e" x="886.466797"/>
      <use xlink:href="#DejaVuSans-63" x="949.845703"/>
      <use xlink:href="#DejaVuSans-65" x="1004.826172"/>
     </g>
    </g>
   </g>
  </g>
  <g id="axes_2">
   <g id="patch_8">
    <path d="M 57.17 441.64 
L 565.2 441.64 
L 565.2 263.28 
L 57.17 263.28 
z
" style="fill: #ffffff"/>
   </g>
   <g id="matplotlib.axis_3">
    <g id="xtick_7">
     <g id="line2d_16">
      <g>
       <use xlink:href="#m2c9c2c7f78" x="80.262273" y="441.64" style="stroke: #000000; stroke-width: 0.8"/>
      </g>
     </g>
     <g id="text_17">
      <!-- 0.0 -->
      <g transform="translate(72.31071 456.238438) scale(0.1 -0.1)">
       <use xlink:href="#DejaVuSans-30"/>
       <use xlink:href="#DejaVuSans-2e" x="63.623047"/>
       <use xlink:href="#DejaVuSans-30" x="95.410156"/>
      </g>
     </g>
    </g>
    <g id="xtick_8">
     <g id="line2d_17">
      <g>
       <use xlink:href="#m2c9c2c7f78" x="172.631364" y="441.64" style="stroke: #000000; stroke-width: 0.8"/>
      </g>
     </g>
     <g id="text_18">
      <!-- 0.2 -->
      <g transform="translate(164.679801 456.238438) scale(0.1 -0.1)">
       <use xlink:href="#DejaVuSans-30"/>
       <use xlink:href="#DejaVuSans-2e" x="63.623047"/>
       <use xlink:href="#DejaVuSans-32" x="95.410156"/>
      </g>
     </g>
    </g>
    <g id="xtick_9">
     <g id="line2d_18">
      <g>
       <use xlink:href="#m2c9c2c7f78" x="265.000455" y="441.64" style="stroke: #000000; stroke-width: 0.8"/>
      </g>
     </g>
     <g id="text_19">
      <!-- 0.4 -->
      <g transform="translate(257.048892 456.238438) scale(0.1 -0.1)">
       <use xlink:href="#DejaVuSans-30"/>
       <use xlink:href="#DejaVuSans-2e" x="63.623047"/>
       <use xlink:href="#DejaVuSans-34" x="95.410156"/>
      </g>
     </g>
    </g>
    <g id="xtick_10">
     <g id="line2d_19">
      <g>
       <use xlink:href="#m2c9c2c7f78" x="357.369545" y="441.64" style="stroke: #000000; stroke-width: 0.8"/>
      </g>
     </g>
     <g id="text_20">
      <!-- 0.6 -->
      <g transform="translate(349.417983 456.238438) scale(0.1 -0.1)">
       <use xlink:href="#DejaVuSans-30"/>
       <use xlink:href="#DejaVuSans-2e" x="63.623047"/>
       <use xlink:href="#DejaVuSans-36" x="95.410156"/>
      </g>
     </g>
    </g>
    <g id="xtick_11">
     <g id="line2d_20">
      <g>
       <use xlink:href="#m2c9c2c7f78" x="449.738636" y="441.64" style="stroke: #000000; stroke-width: 0.8"/>
      </g>
     </g>
     <g id="text_21">
      <!-- 0.8 -->
      <g transform="translate(441.787074 456.238438) scale(0.1 -0.1)">
       <use xlink:href="#DejaVuSans-30"/>
       <use xlink:href="#DejaVuSans-2e" x="63.623047"/>
       <use xlink:href="#DejaVuSans-38" x="95.410156"/>
      </g>
     </g>
    </g>
    <g id="xtick_12">
     <g id="line2d_21">
      <g>
       <use xlink:href="#m2c9c2c7f78" x="542.107727" y="441.64" style="stroke: #000000; stroke-width: 0.8"/>
      </g>
     </g>
     <g id="text_22">
      <!-- 1.0 -->
      <g transform="translate(534.156165 456.238438) scale(0.1 -0.1)">
       <use xlink:href="#DejaVuSans-31"/>
       <use xlink:href="#DejaVuSans-2e" x="63.623047"/>
       <use xlink:href="#DejaVuSans-30" x="95.410156"/>
      </g>
     </g>
    </g>
    <g id="text_23">
     <!-- time in hours -->
     <g transform="translate(278.095937 469.916563) scale(0.1 -0.1)">
      <use xlink:href="#DejaVuSans-74"/>
      <use xlink:href="#DejaVuSans-69" x="39.208984"/>
      <use xlink:href="#DejaVuSans-6d" x="66.992188"/>
      <use xlink:href="#DejaVuSans-65" x="164.404297"/>
      <use xlink:href="#DejaVuSans-20" x="225.927734"/>
      <use xlink:href="#DejaVuSans-69" x="257.714844"/>
      <use xlink:href="#DejaVuSans-6e" x="285.498047"/>
      <use xlink:href="#DejaVuSans-20" x="348.876953"/>
      <use xlink:href="#DejaVuSans-68" x="380.664062"/>
      <use xlink:href="#DejaVuSans-6f" x="444.042969"/>
      <use xlink:href="#DejaVuSans-75" x="505.224609"/>
      <use xlink:href="#DejaVuSans-72" x="568.603516"/>
      <use xlink:href="#DejaVuSans-73" x="609.716797"/>
     </g>
    </g>
   </g>
   <g id="matplotlib.axis_4">
    <g id="ytick_6">
     <g id="line2d_22">
      <g>
       <use xlink:href="#m80c7d43a2c" x="57.17" y="433.532727" style="stroke: #000000; stroke-width: 0.8"/>
      </g>
     </g>
     <g id="text_24">
      <!-- 0 -->
      <g transform="translate(43.8075 437.331946) scale(0.1 -0.1)">
       <use xlink:href="#DejaVuSans-30"/>
      </g>
     </g>
    </g>
    <g id="ytick_7">
     <g id="line2d_23">
      <g>
       <use xlink:href="#m80c7d43a2c" x="57.17" y="404.844543" style="stroke: #000000; stroke-width: 0.8"/>
      </g>
     </g>
     <g id="text_25">
      <!-- 200 -->
      <g transform="translate(31.0825 408.643762) scale(0.1 -0.1)">
       <use xlink:href="#DejaVuSans-32"/>
       <use xlink:href="#DejaVuSans-30" x="63.623047"/>
       <use xlink:href="#DejaVuSans-30" x="127.246094"/>
      </g>
     </g>
    </g>
    <g id="ytick_8">
     <g id="line2d_24">
      <g>
       <use xlink:href="#m80c7d43a2c" x="57.17" y="376.156359" style="stroke: #000000; stroke-width: 0.8"/>
      </g>
     </g>
     <g id="text_26">
      <!-- 400 -->
      <g transform="translate(31.0825 379.955577) scale(0.1 -0.1)">
       <use xlink:href="#DejaVuSans-34"/>
       <use xlink:href="#DejaVuSans-30" x="63.623047"/>
       <use xlink:href="#DejaVuSans-30" x="127.246094"/>
      </g>
     </g>
    </g>
    <g id="ytick_9">
     <g id="line2d_25">
      <g>
       <use xlink:href="#m80c7d43a2c" x="57.17" y="347.468174" style="stroke: #000000; stroke-width: 0.8"/>
      </g>
     </g>
     <g id="text_27">
      <!-- 600 -->
      <g transform="translate(31.0825 351.267393) scale(0.1 -0.1)">
       <use xlink:href="#DejaVuSans-36"/>
       <use xlink:href="#DejaVuSans-30" x="63.623047"/>
       <use xlink:href="#DejaVuSans-30" x="127.246094"/>
      </g>
     </g>
    </g>
    <g id="ytick_10">
     <g id="line2d_26">
      <g>
       <use xlink:href="#m80c7d43a2c" x="57.17" y="318.77999" style="stroke: #000000; stroke-width: 0.8"/>
      </g>
     </g>
     <g id="text_28">
      <!-- 800 -->
      <g transform="translate(31.0825 322.579209) scale(0.1 -0.1)">
       <use xlink:href="#DejaVuSans-38"/>
       <use xlink:href="#DejaVuSans-30" x="63.623047"/>
       <use xlink:href="#DejaVuSans-30" x="127.246094"/>
      </g>
     </g>
    </g>
    <g id="ytick_11">
     <g id="line2d_27">
      <g>
       <use xlink:href="#m80c7d43a2c" x="57.17" y="290.091806" style="stroke: #000000; stroke-width: 0.8"/>
      </g>
     </g>
     <g id="text_29">
      <!-- 1000 -->
      <g transform="translate(24.72 293.891025) scale(0.1 -0.1)">
       <use xlink:href="#DejaVuSans-31"/>
       <use xlink:href="#DejaVuSans-30" x="63.623047"/>
       <use xlink:href="#DejaVuSans-30" x="127.246094"/>
       <use xlink:href="#DejaVuSans-30" x="190.869141"/>
      </g>
     </g>
    </g>
    <g id="text_30">
     <!-- thickness in nm -->
     <g transform="translate(18.640313 391.852188) rotate(-90) scale(0.1 -0.1)">
      <defs>
       <path id="DejaVuSans-6b" d="M 581 4863 
L 1159 4863 
L 1159 1991 
L 2875 3500 
L 3609 3500 
L 1753 1863 
L 3688 0 
L 2938 0 
L 1159 1709 
L 1159 0 
L 581 0 
L 581 4863 
z
" transform="scale(0.015625)"/>
      </defs>
      <use xlink:href="#DejaVuSans-74"/>
      <use xlink:href="#DejaVuSans-68" x="39.208984"/>
      <use xlink:href="#DejaVuSans-69" x="102.587891"/>
      <use xlink:href="#DejaVuSans-63" x="130.371094"/>
      <use xlink:href="#DejaVuSans-6b" x="185.351562"/>
      <use xlink:href="#DejaVuSans-6e" x="243.261719"/>
      <use xlink:href="#DejaVuSans-65" x="306.640625"/>
      <use xlink:href="#DejaVuSans-73" x="368.164062"/>
      <use xlink:href="#DejaVuSans-73" x="420.263672"/>
      <use xlink:href="#DejaVuSans-20" x="472.363281"/>
      <use xlink:href="#DejaVuSans-69" x="504.150391"/>
      <use xlink:href="#DejaVuSans-6e" x="531.933594"/>
      <use xlink:href="#DejaVuSans-20" x="595.3125"/>
      <use xlink:href="#DejaVuSans-6e" x="627.099609"/>
      <use xlink:href="#DejaVuSans-6d" x="690.478516"/>
     </g>
    </g>
   </g>
   <g id="line2d_28">
    <path d="M 80.262273 433.532727 
L 128.877584 427.078184 
L 143.92518 424.86921 
L 155.500254 422.945016 
L 165.917821 420.987763 
L 176.335387 418.791915 
L 186.752954 416.351953 
L 197.170521 413.672566 
L 207.588087 410.759996 
L 218.005654 407.617623 
L 228.423221 404.248385 
L 239.998295 400.251265 
L 252.730876 395.58723 
L 267.778472 389.814998 
L 288.613606 381.5671 
L 311.763754 372.169465 
L 330.283872 364.416454 
L 351.119005 355.438389 
L 393.946779 336.670956 
L 527.060131 278.03569 
L 542.107727 271.387273 
L 542.107727 271.387273 
" clip-path="url(#p5d87940ee6)" style="fill: none; stroke: #1f77b4; stroke-width: 1.5; stroke-linecap: square"/>
   </g>
   <g id="line2d_29">
    <path d="M 80.262273 433.532727 
L 95.309869 431.371924 
L 109.199958 429.594738 
L 130.035091 426.95048 
L 143.92518 424.87997 
L 155.500254 422.937614 
L 165.917821 420.986604 
L 175.17788 419.049231 
L 185.595447 416.635212 
L 196.013013 413.97987 
L 206.43058 411.092493 
L 216.848147 407.979622 
L 227.265713 404.637041 
L 237.68328 401.045171 
L 250.415861 396.371564 
L 267.778472 389.770058 
L 287.456098 382.039697 
L 307.133724 374.074715 
L 327.968857 365.391524 
L 348.803991 356.461675 
L 380.056691 342.778082 
L 514.32755 283.651465 
L 542.107727 271.401398 
L 542.107727 271.401398 
" clip-path="url(#p5d87940ee6)" style="fill: none; stroke: #ff7f0e; stroke-width: 1.5; stroke-linecap: square"/>
   </g>
   <g id="line2d_30">
    <path d="M 80.262273 433.532727 
L 542.107727 290.091806 
L 542.107727 290.091806 
" clip-path="url(#p5d87940ee6)" style="fill: none; stroke-dasharray: 5.55,2.4; stroke-dashoffset: 0; stroke: #2ca02c; stroke-width: 1.5"/>
   </g>
   <g id="patch_9">
    <path d="M 57.17 441.64 
L 57.17 263.28 
" style="fill: none; stroke: #000000; stroke-width: 0.8; stroke-linejoin: miter; stroke-linecap: square"/>
   </g>
   <g id="patch_10">
    <path d="M 565.2 441.64 
L 565.2 263.28 
" style="fill: none; stroke: #000000; stroke-width: 0.8; stroke-linejoin: miter; stroke-linecap: square"/>
   </g>
   <g id="patch_11">
    <path d="M 57.17 441.64 
L 565.2 441.64 
" style="fill: none; stroke: #000000; stroke-width: 0.8; stroke-linejoin: miter; stroke-linecap: square"/>
   </g>
   <g id="patch_12">
    <path d="M 57.17 263.28 
L 565.2 263.28 
" style="fill: none; stroke: #000000; stroke-width: 0.8; stroke-linejoin: miter; stroke-linecap: square"/>
   </g>
   <g id="text_31">
    <!-- Thickness -->
    <g transform="translate(281.531875 257.28) scale(0.12 -0.12)">
     <defs>
      <path id="DejaVuSans-54" d="M -19 4666 
L 3928 4666 
L 3928 4134 
L 2272 4134 
L 2272 0 
L 1638 0 
L 1638 4134 
L -19 4134 
L -19 4666 
z
" transform="scale(0.015625)"/>
     </defs>
     <use xlink:href="#DejaVuSans-54"/>
     <use xlink:href="#DejaVuSans-68" x="61.083984"/>
     <use xlink:href="#DejaVuSans-69" x="124.462891"/>
     <use xlink:href="#DejaVuSans-63" x="152.246094"/>
     <use xlink:href="#DejaVuSans-6b" x="207.226562"/>
     <use xlink:href="#DejaVuSans-6e" x="265.136719"/>
     <use xlink:href="#DejaVuSans-65" x="328.515625"/>
     <use xlink:href="#DejaVuSans-73" x="390.039062"/>
     <use xlink:href="#DejaVuSans-73" x="442.138672"/>
    </g>
   </g>
   <g id="legend_2">
    <g id="patch_13">
     <path d="M 428.353125 315.314375 
L 558.2 315.314375 
Q 560.2 315.314375 560.2 313.314375 
L 560.2 270.28 
Q 560.2 268.28 558.2 268.28 
L 428.353125 268.28 
Q 426.353125 268.28 426.353125 270.28 
L 426.353125 313.314375 
Q 426.353125 315.314375 428.353125 315.314375 
z
" style="fill: #ffffff; opacity: 0.8; stroke: #cccccc; stroke-linejoin: miter"/>
    </g>
    <g id="line2d_31">
     <path d="M 430.353125 276.378438 
L 440.353125 276.378438 
L 450.353125 276.378438 
" style="fill: none; stroke: #1f77b4; stroke-width: 1.5; stroke-linecap: square"/>
    </g>
    <g id="text_32">
     <!-- true thickness -->
     <g transform="translate(458.353125 279.878438) scale(0.1 -0.1)">
      <use xlink:href="#DejaVuSans-74"/>
      <use xlink:href="#DejaVuSans-72" x="39.208984"/>
      <use xlink:href="#DejaVuSans-75" x="80.322266"/>
      <use xlink:href="#DejaVuSans-65" x="143.701172"/>
      <use xlink:href="#DejaVuSans-20" x="205.224609"/>
      <use xlink:href="#DejaVuSans-74" x="237.011719"/>
      <use xlink:href="#DejaVuSans-68" x="276.220703"/>
      <use xlink:href="#DejaVuSans-69" x="339.599609"/>
      <use xlink:href="#DejaVuSans-63" x="367.382812"/>
      <use xlink:href="#DejaVuSans-6b" x="422.363281"/>
      <use xlink:href="#DejaVuSans-6e" x="480.273438"/>
      <use xlink:href="#DejaVuSans-65" x="543.652344"/>
      <use xlink:href="#DejaVuSans-73" x="605.175781"/>
      <use xlink:href="#DejaVuSans-73" x="657.275391"/>
     </g>
    </g>
    <g id="line2d_32">
     <path d="M 430.353125 291.056563 
L 440.353125 291.056563 
L 450.353125 291.056563 
" style="fill: none; stroke: #ff7f0e; stroke-width: 1.5; stroke-linecap: square"/>
    </g>
    <g id="text_33">
     <!-- predicted thickness -->
     <g transform="translate(458.353125 294.556563) scale(0.1 -0.1)">
      <use xlink:href="#DejaVuSans-70"/>
      <use xlink:href="#DejaVuSans-72" x="63.476562"/>
      <use xlink:href="#DejaVuSans-65" x="102.339844"/>
      <use xlink:href="#DejaVuSans-64" x="163.863281"/>
      <use xlink:href="#DejaVuSans-69" x="227.339844"/>
      <use xlink:href="#DejaVuSans-63" x="255.123047"/>
      <use xlink:href="#DejaVuSans-74" x="310.103516"/>
      <use xlink:href="#DejaVuSans-65" x="349.3125"/>
      <use xlink:href="#DejaVuSans-64" x="410.835938"/>
      <use xlink:href="#DejaVuSans-20" x="474.3125"/>
      <use xlink:href="#DejaVuSans-74" x="506.099609"/>
      <use xlink:href="#DejaVuSans-68" x="545.308594"/>
      <use xlink:href="#DejaVuSans-69" x="608.6875"/>
      <use xlink:href="#DejaVuSans-63" x="636.470703"/>
      <use xlink:href="#DejaVuSans-6b" x="691.451172"/>
      <use xlink:href="#DejaVuSans-6e" x="749.361328"/>
      <use xlink:href="#DejaVuSans-65" x="812.740234"/>
      <use xlink:href="#DejaVuSans-73" x="874.263672"/>
      <use xlink:href="#DejaVuSans-73" x="926.363281"/>
     </g>
    </g>
    <g id="line2d_33">
     <path d="M 430.353125 305.734688 
L 440.353125 305.734688 
L 450.353125 305.734688 
" style="fill: none; stroke-dasharray: 5.55,2.4; stroke-dashoffset: 0; stroke: #2ca02c; stroke-width: 1.5"/>
    </g>
    <g id="text_34">
     <!-- initial prediction -->
     <g transform="translate(458.353125 309.234688) scale(0.1 -0.1)">
      <use xlink:href="#DejaVuSans-69"/>
      <use xlink:href="#DejaVuSans-6e" x="27.783203"/>
      <use xlink:href="#DejaVuSans-69" x="91.162109"/>
      <use xlink:href="#DejaVuSans-74" x="118.945312"/>
      <use xlink:href="#DejaVuSans-69" x="158.154297"/>
      <use xlink:href="#DejaVuSans-61" x="185.9375"/>
      <use xlink:href="#DejaVuSans-6c" x="247.216797"/>
      <use xlink:href="#DejaVuSans-20" x="275"/>
      <use xlink:href="#DejaVuSans-70" x="306.787109"/>
      <use xlink:href="#DejaVuSans-72" x="370.263672"/>
      <use xlink:href="#DejaVuSans-65" x="409.126953"/>
      <use xlink:href="#DejaVuSans-64" x="470.650391"/>
      <use xlink:href="#DejaVuSans-69" x="534.126953"/>
      <use xlink:href="#DejaVuSans-63" x="561.910156"/>
      <use xlink:href="#DejaVuSans-74" x="616.890625"/>
      <use xlink:href="#DejaVuSans-69" x="656.099609"/>
      <use xlink:href="#DejaVuSans-6f" x="683.882812"/>
      <use xlink:href="#DejaVuSans-6e" x="745.064453"/>
     </g>
    </g>
   </g>
  </g>
  <g id="axes_3">
   <g id="patch_14">
    <path d="M 57.17 678.04 
L 565.2 678.04 
L 565.2 499.68 
L 57.17 499.68 
z
" style="fill: #ffffff"/>
   </g>
   <g id="matplotlib.axis_5">
    <g id="xtick_13">
     <g id="line2d_34">
      <g>
       <use xlink:href="#m2c9c2c7f78" x="80.262273" y="678.04" style="stroke: #000000; stroke-width: 0.8"/>
      </g>
     </g>
     <g id="text_35">
      <!-- 0.0 -->
      <g transform="translate(72.31071 692.638438) scale(0.1 -0.1)">
       <use xlink:href="#DejaVuSans-30"/>
       <use xlink:href="#DejaVuSans-2e" x="63.623047"/>
       <use xlink:href="#DejaVuSans-30" x="95.410156"/>
      </g>
     </g>
    </g>
    <g id="xtick_14">
     <g id="line2d_35">
      <g>
       <use xlink:href="#m2c9c2c7f78" x="172.631364" y="678.04" style="stroke: #000000; stroke-width: 0.8"/>
      </g>
     </g>
     <g id="text_36">
      <!-- 0.2 -->
      <g transform="translate(164.679801 692.638438) scale(0.1 -0.1)">
       <use xlink:href="#DejaVuSans-30"/>
       <use xlink:href="#DejaVuSans-2e" x="63.623047"/>
       <use xlink:href="#DejaVuSans-32" x="95.410156"/>
      </g>
     </g>
    </g>
    <g id="xtick_15">
     <g id="line2d_36">
      <g>
       <use xlink:href="#m2c9c2c7f78" x="265.000455" y="678.04" style="stroke: #000000; stroke-width: 0.8"/>
      </g>
     </g>
     <g id="text_37">
      <!-- 0.4 -->
      <g transform="translate(257.048892 692.638438) scale(0.1 -0.1)">
       <use xlink:href="#DejaVuSans-30"/>
       <use xlink:href="#DejaVuSans-2e" x="63.623047"/>
       <use xlink:href="#DejaVuSans-34" x="95.410156"/>
      </g>
     </g>
    </g>
    <g id="xtick_16">
     <g id="line2d_37">
      <g>
       <use xlink:href="#m2c9c2c7f78" x="357.369545" y="678.04" style="stroke: #000000; stroke-width: 0.8"/>
      </g>
     </g>
     <g id="text_38">
      <!-- 0.6 -->
      <g transform="translate(349.417983 692.638438) scale(0.1 -0.1)">
       <use xlink:href="#DejaVuSans-30"/>
       <use xlink:href="#DejaVuSans-2e" x="63.623047"/>
       <use xlink:href="#DejaVuSans-36" x="95.410156"/>
      </g>
     </g>
    </g>
    <g id="xtick_17">
     <g id="line2d_38">
      <g>
       <use xlink:href="#m2c9c2c7f78" x="449.738636" y="678.04" style="stroke: #000000; stroke-width: 0.8"/>
      </g>
     </g>
     <g id="text_39">
      <!-- 0.8 -->
      <g transform="translate(441.787074 692.638438) scale(0.1 -0.1)">
       <use xlink:href="#DejaVuSans-30"/>
       <use xlink:href="#DejaVuSans-2e" x="63.623047"/>
       <use xlink:href="#DejaVuSans-38" x="95.410156"/>
      </g>
     </g>
    </g>
    <g id="xtick_18">
     <g id="line2d_39">
      <g>
       <use xlink:href="#m2c9c2c7f78" x="542.107727" y="678.04" style="stroke: #000000; stroke-width: 0.8"/>
      </g>
     </g>
     <g id="text_40">
      <!-- 1.0 -->
      <g transform="translate(534.156165 692.638438) scale(0.1 -0.1)">
       <use xlink:href="#DejaVuSans-31"/>
       <use xlink:href="#DejaVuSans-2e" x="63.623047"/>
       <use xlink:href="#DejaVuSans-30" x="95.410156"/>
      </g>
     </g>
    </g>
    <g id="text_41">
     <!-- time in hours -->
     <g transform="translate(278.095937 706.316563) scale(0.1 -0.1)">
      <use xlink:href="#DejaVuSans-74"/>
      <use xlink:href="#DejaVuSans-69" x="39.208984"/>
      <use xlink:href="#DejaVuSans-6d" x="66.992188"/>
      <use xlink:href="#DejaVuSans-65" x="164.404297"/>
      <use xlink:href="#DejaVuSans-20" x="225.927734"/>
      <use xlink:href="#DejaVuSans-69" x="257.714844"/>
      <use xlink:href="#DejaVuSans-6e" x="285.498047"/>
      <use xlink:href="#DejaVuSans-20" x="348.876953"/>
      <use xlink:href="#DejaVuSans-68" x="380.664062"/>
      <use xlink:href="#DejaVuSans-6f" x="444.042969"/>
      <use xlink:href="#DejaVuSans-75" x="505.224609"/>
      <use xlink:href="#DejaVuSans-72" x="568.603516"/>
      <use xlink:href="#DejaVuSans-73" x="609.716797"/>
     </g>
    </g>
   </g>
   <g id="matplotlib.axis_6">
    <g id="ytick_12">
     <g id="line2d_40">
      <g>
       <use xlink:href="#m80c7d43a2c" x="57.17" y="668.338318" style="stroke: #000000; stroke-width: 0.8"/>
      </g>
     </g>
     <g id="text_42">
      <!-- 400 -->
      <g transform="translate(31.0825 672.137537) scale(0.1 -0.1)">
       <use xlink:href="#DejaVuSans-34"/>
       <use xlink:href="#DejaVuSans-30" x="63.623047"/>
       <use xlink:href="#DejaVuSans-30" x="127.246094"/>
      </g>
     </g>
    </g>
    <g id="ytick_13">
     <g id="line2d_41">
      <g>
       <use xlink:href="#m80c7d43a2c" x="57.17" y="636.993923" style="stroke: #000000; stroke-width: 0.8"/>
      </g>
     </g>
     <g id="text_43">
      <!-- 600 -->
      <g transform="translate(31.0825 640.793142) scale(0.1 -0.1)">
       <use xlink:href="#DejaVuSans-36"/>
       <use xlink:href="#DejaVuSans-30" x="63.623047"/>
       <use xlink:href="#DejaVuSans-30" x="127.246094"/>
      </g>
     </g>
    </g>
    <g id="ytick_14">
     <g id="line2d_42">
      <g>
       <use xlink:href="#m80c7d43a2c" x="57.17" y="605.649528" style="stroke: #000000; stroke-width: 0.8"/>
      </g>
     </g>
     <g id="text_44">
      <!-- 800 -->
      <g transform="translate(31.0825 609.448747) scale(0.1 -0.1)">
       <use xlink:href="#DejaVuSans-38"/>
       <use xlink:href="#DejaVuSans-30" x="63.623047"/>
       <use xlink:href="#DejaVuSans-30" x="127.246094"/>
      </g>
     </g>
    </g>
    <g id="ytick_15">
     <g id="line2d_43">
      <g>
       <use xlink:href="#m80c7d43a2c" x="57.17" y="574.305133" style="stroke: #000000; stroke-width: 0.8"/>
      </g>
     </g>
     <g id="text_45">
      <!-- 1000 -->
      <g transform="translate(24.72 578.104352) scale(0.1 -0.1)">
       <use xlink:href="#DejaVuSans-31"/>
       <use xlink:href="#DejaVuSans-30" x="63.623047"/>
       <use xlink:href="#DejaVuSans-30" x="127.246094"/>
       <use xlink:href="#DejaVuSans-30" x="190.869141"/>
      </g>
     </g>
    </g>
    <g id="ytick_16">
     <g id="line2d_44">
      <g>
       <use xlink:href="#m80c7d43a2c" x="57.17" y="542.960738" style="stroke: #000000; stroke-width: 0.8"/>
      </g>
     </g>
     <g id="text_46">
      <!-- 1200 -->
      <g transform="translate(24.72 546.759957) scale(0.1 -0.1)">
       <use xlink:href="#DejaVuSans-31"/>
       <use xlink:href="#DejaVuSans-32" x="63.623047"/>
       <use xlink:href="#DejaVuSans-30" x="127.246094"/>
       <use xlink:href="#DejaVuSans-30" x="190.869141"/>
      </g>
     </g>
    </g>
    <g id="ytick_17">
     <g id="line2d_45">
      <g>
       <use xlink:href="#m80c7d43a2c" x="57.17" y="511.616343" style="stroke: #000000; stroke-width: 0.8"/>
      </g>
     </g>
     <g id="text_47">
      <!-- 1400 -->
      <g transform="translate(24.72 515.415562) scale(0.1 -0.1)">
       <use xlink:href="#DejaVuSans-31"/>
       <use xlink:href="#DejaVuSans-34" x="63.623047"/>
       <use xlink:href="#DejaVuSans-30" x="127.246094"/>
       <use xlink:href="#DejaVuSans-30" x="190.869141"/>
      </g>
     </g>
    </g>
    <g id="text_48">
     <!-- growth rate in nm/h -->
     <g transform="translate(18.640313 638.627969) rotate(-90) scale(0.1 -0.1)">
      <defs>
       <path id="DejaVuSans-67" d="M 2906 1791 
Q 2906 2416 2648 2759 
Q 2391 3103 1925 3103 
Q 1463 3103 1205 2759 
Q 947 2416 947 1791 
Q 947 1169 1205 825 
Q 1463 481 1925 481 
Q 2391 481 2648 825 
Q 2906 1169 2906 1791 
z
M 3481 434 
Q 3481 -459 3084 -895 
Q 2688 -1331 1869 -1331 
Q 1566 -1331 1297 -1286 
Q 1028 -1241 775 -1147 
L 775 -588 
Q 1028 -725 1275 -790 
Q 1522 -856 1778 -856 
Q 2344 -856 2625 -561 
Q 2906 -266 2906 331 
L 2906 616 
Q 2728 306 2450 153 
Q 2172 0 1784 0 
Q 1141 0 747 490 
Q 353 981 353 1791 
Q 353 2603 747 3093 
Q 1141 3584 1784 3584 
Q 2172 3584 2450 3431 
Q 2728 3278 2906 2969 
L 2906 3500 
L 3481 3500 
L 3481 434 
z
" transform="scale(0.015625)"/>
       <path id="DejaVuSans-77" d="M 269 3500 
L 844 3500 
L 1563 769 
L 2278 3500 
L 2956 3500 
L 3675 769 
L 4391 3500 
L 4966 3500 
L 4050 0 
L 3372 0 
L 2619 2869 
L 1863 0 
L 1184 0 
L 269 3500 
z
" transform="scale(0.015625)"/>
       <path id="DejaVuSans-2f" d="M 1625 4666 
L 2156 4666 
L 531 -594 
L 0 -594 
L 1625 4666 
z
" transform="scale(0.015625)"/>
      </defs>
      <use xlink:href="#DejaVuSans-67"/>
      <use xlink:href="#DejaVuSans-72" x="63.476562"/>
      <use xlink:href="#DejaVuSans-6f" x="102.339844"/>
      <use xlink:href="#DejaVuSans-77" x="163.521484"/>
      <use xlink:href="#DejaVuSans-74" x="245.308594"/>
      <use xlink:href="#DejaVuSans-68" x="284.517578"/>
      <use xlink:href="#DejaVuSans-20" x="347.896484"/>
      <use xlink:href="#DejaVuSans-72" x="379.683594"/>
      <use xlink:href="#DejaVuSans-61" x="420.796875"/>
      <use xlink:href="#DejaVuSans-74" x="482.076172"/>
      <use xlink:href="#DejaVuSans-65" x="521.285156"/>
      <use xlink:href="#DejaVuSans-20" x="582.808594"/>
      <use xlink:href="#DejaVuSans-69" x="614.595703"/>
      <use xlink:href="#DejaVuSans-6e" x="642.378906"/>
      <use xlink:href="#DejaVuSans-20" x="705.757812"/>
      <use xlink:href="#DejaVuSans-6e" x="737.544922"/>
      <use xlink:href="#DejaVuSans-6d" x="800.923828"/>
      <use xlink:href="#DejaVuSans-2f" x="898.335938"/>
      <use xlink:href="#DejaVuSans-68" x="932.027344"/>
     </g>
    </g>
   </g>
   <g id="line2d_46">
    <path d="M 80.262273 665.10058 
L 105.727436 664.415524 
L 112.67248 663.986615 
L 117.30251 663.493665 
L 120.775032 662.943211 
L 124.247554 662.179547 
L 127.720076 661.153374 
L 131.192599 659.824619 
L 134.665121 658.168457 
L 138.137643 656.177012 
L 141.610165 653.854518 
L 145.082687 651.218303 
L 148.55521 648.293027 
L 152.027732 645.110655 
L 156.657761 640.529494 
L 161.287791 635.645393 
L 168.232835 627.952042 
L 193.697998 599.328834 
L 206.43058 585.602996 
L 223.793191 567.206192 
L 230.738235 560.11559 
L 236.525772 554.515532 
L 241.155802 550.338759 
L 245.785832 546.506773 
L 249.258354 543.894326 
L 252.730876 541.526932 
L 256.203398 539.413838 
L 259.67592 537.555818 
L 263.148443 535.942173 
L 266.620965 534.553148 
L 270.093487 533.360897 
L 274.723517 532.017686 
L 280.511054 530.616004 
L 292.086128 528.166234 
L 300.18868 526.311787 
L 305.976217 524.765314 
L 311.763754 522.997206 
L 318.708798 520.62716 
L 333.756394 515.382151 
L 338.386424 514.01164 
L 343.016454 512.850032 
L 347.646483 511.915348 
L 352.276513 511.198786 
L 358.06405 510.562277 
L 365.009094 510.070112 
L 374.269154 509.677889 
L 389.31675 509.307292 
L 414.781913 508.925068 
L 440.247076 508.770986 
L 520.115087 508.449146 
L 534.005175 508.113243 
L 542.107727 507.787273 
L 542.107727 507.787273 
" clip-path="url(#pefd6376893)" style="fill: none; stroke: #1f77b4; stroke-width: 1.5; stroke-linecap: square"/>
   </g>
   <g id="line2d_47">
    <path d="M 80.262273 655.063876 
L 86.04981 657.644654 
L 91.837347 660.519875 
L 97.624884 663.819961 
L 104.569928 667.969674 
L 105.727436 668.540777 
L 108.04245 669.338982 
L 110.357465 669.72898 
L 112.67248 669.929305 
L 114.987495 669.910575 
L 116.145002 669.696301 
L 118.460017 668.683539 
L 121.932539 666.862664 
L 124.247554 665.30967 
L 126.562569 663.171716 
L 128.877584 660.710605 
L 130.035091 659.844729 
L 134.665121 657.470124 
L 136.980136 656.132589 
L 139.29515 654.479743 
L 141.610165 652.645037 
L 145.082687 650.06972 
L 149.712717 646.271499 
L 153.185239 643.717651 
L 155.500254 641.769037 
L 157.815269 639.535747 
L 160.130284 636.999538 
L 163.602806 633.650921 
L 165.917821 631.094189 
L 169.390343 626.903524 
L 174.020373 621.21382 
L 179.80791 614.675297 
L 183.280432 610.957726 
L 186.752954 607.002217 
L 193.697998 599.178127 
L 199.485535 593.140337 
L 206.43058 585.499823 
L 218.005654 573.576666 
L 223.793191 567.216377 
L 228.423221 561.913048 
L 239.998295 548.084455 
L 241.155802 546.948022 
L 242.313309 546.145036 
L 250.415861 542.731206 
L 261.990935 537.934274 
L 267.778472 535.922298 
L 278.196039 532.587723 
L 294.401143 527.653349 
L 317.551291 520.730611 
L 338.386424 514.6859 
L 345.331468 512.911503 
L 351.119005 511.597568 
L 355.749035 510.75432 
L 360.379065 510.119131 
L 365.009094 509.728096 
L 371.954139 509.442887 
L 382.371705 509.249957 
L 417.096928 508.906402 
L 450.664642 508.77191 
L 542.107727 508.466976 
L 542.107727 508.466976 
" clip-path="url(#pefd6376893)" style="fill: none; stroke: #ff7f0e; stroke-width: 1.5; stroke-linecap: square"/>
   </g>
   <g id="line2d_48">
    <path d="M 80.262273 574.305133 
L 542.107727 574.305133 
L 542.107727 574.305133 
" clip-path="url(#pefd6376893)" style="fill: none; stroke-dasharray: 5.55,2.4; stroke-dashoffset: 0; stroke: #2ca02c; stroke-width: 1.5"/>
   </g>
   <g id="patch_15">
    <path d="M 57.17 678.04 
L 57.17 499.68 
" style="fill: none; stroke: #000000; stroke-width: 0.8; stroke-linejoin: miter; stroke-linecap: square"/>
   </g>
   <g id="patch_16">
    <path d="M 565.2 678.04 
L 565.2 499.68 
" style="fill: none; stroke: #000000; stroke-width: 0.8; stroke-linejoin: miter; stroke-linecap: square"/>
   </g>
   <g id="patch_17">
    <path d="M 57.17 678.04 
L 565.2 678.04 
" style="fill: none; stroke: #000000; stroke-width: 0.8; stroke-linejoin: miter; stroke-linecap: square"/>
   </g>
   <g id="patch_18">
    <path d="M 57.17 499.68 
L 565.2 499.68 
" style="fill: none; stroke: #000000; stroke-width: 0.8; stroke-linejoin: miter; stroke-linecap: square"/>
   </g>
   <g id="text_49">
    <!-- Growth Rate -->
    <g transform="translate(273.809687 493.68) scale(0.12 -0.12)">
     <defs>
      <path id="DejaVuSans-47" d="M 3809 666 
L 3809 1919 
L 2778 1919 
L 2778 2438 
L 4434 2438 
L 4434 434 
Q 4069 175 3628 42 
Q 3188 -91 2688 -91 
Q 1594 -91 976 548 
Q 359 1188 359 2328 
Q 359 3472 976 4111 
Q 1594 4750 2688 4750 
Q 3144 4750 3555 4637 
Q 3966 4525 4313 4306 
L 4313 3634 
Q 3963 3931 3569 4081 
Q 3175 4231 2741 4231 
Q 1884 4231 1454 3753 
Q 1025 3275 1025 2328 
Q 1025 1384 1454 906 
Q 1884 428 2741 428 
Q 3075 428 3337 486 
Q 3600 544 3809 666 
z
" transform="scale(0.015625)"/>
     </defs>
     <use xlink:href="#DejaVuSans-47"/>
     <use xlink:href="#DejaVuSans-72" x="77.490234"/>
     <use xlink:href="#DejaVuSans-6f" x="116.353516"/>
     <use xlink:href="#DejaVuSans-77" x="177.535156"/>
     <use xlink:href="#DejaVuSans-74" x="259.322266"/>
     <use xlink:href="#DejaVuSans-68" x="298.53125"/>
     <use xlink:href="#DejaVuSans-20" x="361.910156"/>
     <use xlink:href="#DejaVuSans-52" x="393.697266"/>
     <use xlink:href="#DejaVuSans-61" x="460.929688"/>
     <use xlink:href="#DejaVuSans-74" x="522.208984"/>
     <use xlink:href="#DejaVuSans-65" x="561.417969"/>
    </g>
   </g>
   <g id="legend_3">
    <g id="patch_19">
     <path d="M 417.307812 673.04 
L 558.2 673.04 
Q 560.2 673.04 560.2 671.04 
L 560.2 628.005625 
Q 560.2 626.005625 558.2 626.005625 
L 417.307812 626.005625 
Q 415.307812 626.005625 415.307812 628.005625 
L 415.307812 671.04 
Q 415.307812 673.04 417.307812 673.04 
z
" style="fill: #ffffff; opacity: 0.8; stroke: #cccccc; stroke-linejoin: miter"/>
    </g>
    <g id="line2d_49">
     <path d="M 419.307812 634.104063 
L 429.307812 634.104063 
L 439.307812 634.104063 
" style="fill: none; stroke: #1f77b4; stroke-width: 1.5; stroke-linecap: square"/>
    </g>
    <g id="text_50">
     <!-- true growth rate -->
     <g transform="translate(447.307812 637.604063) scale(0.1 -0.1)">
      <use xlink:href="#DejaVuSans-74"/>
      <use xlink:href="#DejaVuSans-72" x="39.208984"/>
      <use xlink:href="#DejaVuSans-75" x="80.322266"/>
      <use xlink:href="#DejaVuSans-65" x="143.701172"/>
      <use xlink:href="#DejaVuSans-20" x="205.224609"/>
      <use xlink:href="#DejaVuSans-67" x="237.011719"/>
      <use xlink:href="#DejaVuSans-72" x="300.488281"/>
      <use xlink:href="#DejaVuSans-6f" x="339.351562"/>
      <use xlink:href="#DejaVuSans-77" x="400.533203"/>
      <use xlink:href="#DejaVuSans-74" x="482.320312"/>
      <use xlink:href="#DejaVuSans-68" x="521.529297"/>
      <use xlink:href="#DejaVuSans-20" x="584.908203"/>
      <use xlink:href="#DejaVuSans-72" x="616.695312"/>
      <use xlink:href="#DejaVuSans-61" x="657.808594"/>
      <use xlink:href="#DejaVuSans-74" x="719.087891"/>
      <use xlink:href="#DejaVuSans-65" x="758.296875"/>
     </g>
    </g>
    <g id="line2d_50">
     <path d="M 419.307812 648.782187 
L 429.307812 648.782187 
L 439.307812 648.782187 
" style="fill: none; stroke: #ff7f0e; stroke-width: 1.5; stroke-linecap: square"/>
    </g>
    <g id="text_51">
     <!-- predicted growth rate -->
     <g transform="translate(447.307812 652.282187) scale(0.1 -0.1)">
      <use xlink:href="#DejaVuSans-70"/>
      <use xlink:href="#DejaVuSans-72" x="63.476562"/>
      <use xlink:href="#DejaVuSans-65" x="102.339844"/>
      <use xlink:href="#DejaVuSans-64" x="163.863281"/>
      <use xlink:href="#DejaVuSans-69" x="227.339844"/>
      <use xlink:href="#DejaVuSans-63" x="255.123047"/>
      <use xlink:href="#DejaVuSans-74" x="310.103516"/>
      <use xlink:href="#DejaVuSans-65" x="349.3125"/>
      <use xlink:href="#DejaVuSans-64" x="410.835938"/>
      <use xlink:href="#DejaVuSans-20" x="474.3125"/>
      <use xlink:href="#DejaVuSans-67" x="506.099609"/>
      <use xlink:href="#DejaVuSans-72" x="569.576172"/>
      <use xlink:href="#DejaVuSans-6f" x="608.439453"/>
      <use xlink:href="#DejaVuSans-77" x="669.621094"/>
      <use xlink:href="#DejaVuSans-74" x="751.408203"/>
      <use xlink:href="#DejaVuSans-68" x="790.617188"/>
      <use xlink:href="#DejaVuSans-20" x="853.996094"/>
      <use xlink:href="#DejaVuSans-72" x="885.783203"/>
      <use xlink:href="#DejaVuSans-61" x="926.896484"/>
      <use xlink:href="#DejaVuSans-74" x="988.175781"/>
      <use xlink:href="#DejaVuSans-65" x="1027.384766"/>
     </g>
    </g>
    <g id="line2d_51">
     <path d="M 419.307812 663.460312 
L 429.307812 663.460312 
L 439.307812 663.460312 
" style="fill: none; stroke-dasharray: 5.55,2.4; stroke-dashoffset: 0; stroke: #2ca02c; stroke-width: 1.5"/>
    </g>
    <g id="text_52">
     <!-- initial prediction -->
     <g transform="translate(447.307812 666.960312) scale(0.1 -0.1)">
      <use xlink:href="#DejaVuSans-69"/>
      <use xlink:href="#DejaVuSans-6e" x="27.783203"/>
      <use xlink:href="#DejaVuSans-69" x="91.162109"/>
      <use xlink:href="#DejaVuSans-74" x="118.945312"/>
      <use xlink:href="#DejaVuSans-69" x="158.154297"/>
      <use xlink:href="#DejaVuSans-61" x="185.9375"/>
      <use xlink:href="#DejaVuSans-6c" x="247.216797"/>
      <use xlink:href="#DejaVuSans-20" x="275"/>
      <use xlink:href="#DejaVuSans-70" x="306.787109"/>
      <use xlink:href="#DejaVuSans-72" x="370.263672"/>
      <use xlink:href="#DejaVuSans-65" x="409.126953"/>
      <use xlink:href="#DejaVuSans-64" x="470.650391"/>
      <use xlink:href="#DejaVuSans-69" x="534.126953"/>
      <use xlink:href="#DejaVuSans-63" x="561.910156"/>
      <use xlink:href="#DejaVuSans-74" x="616.890625"/>
      <use xlink:href="#DejaVuSans-69" x="656.099609"/>
      <use xlink:href="#DejaVuSans-6f" x="683.882812"/>
      <use xlink:href="#DejaVuSans-6e" x="745.064453"/>
     </g>
    </g>
   </g>
  </g>
 </g>
 <defs>
  <clipPath id="pf1d948f3fa">
   <rect x="57.17" y="26.88" width="508.03" height="178.36"/>
  </clipPath>
  <clipPath id="p5d87940ee6">
   <rect x="57.17" y="263.28" width="508.03" height="178.36"/>
  </clipPath>
  <clipPath id="pefd6376893">
   <rect x="57.17" y="499.68" width="508.03" height="178.36"/>
  </clipPath>
 </defs>
</svg>
