<?xml version="1.0" encoding="utf-8" standalone="no"?>
<!DOCTYPE svg PUBLIC "-//W3C//DTD SVG 1.1//EN"
  "http://www.w3.org/Graphics/SVG/1.1/DTD/svg11.dtd">
<svg xmlns:xlink="http://www.w3.org/1999/xlink" width="576pt" height="720pt" viewBox="0 0 576 720" xmlns="http://www.w3.org/2000/svg" version="1.1">
 <metadata>
  <rdf:RDF xmlns:dc="http://purl.org/dc/elements/1.1/" xmlns:cc="http://creativecommons.org/ns#" xmlns:rdf="http://www.w3.org/1999/02/22-rdf-syntax-ns#">
   <cc:Work>
    <dc:type rdf:resource="http://purl.org/dc/dcmitype/StillImage"/>
    <dc:date>2025-05-12T10:19:53.405830</dc:date>
    <dc:format>image/svg+xml</dc:format>
    <dc:creator>
     <cc:Agent>
      <dc:title>Matplotlib v3.9.2, https://matplotlib.org/</dc:title>
     </cc:Agent>
    </dc:creator>
   </cc:Work>
  </rdf:RDF>
 </metadata>
 <defs>
  <style type="text/css">*{stroke-linejoin: round; stroke-linecap: butt}</style>
 </defs>
 <g id="figure_1">
  <g id="patch_1">
   <path d="M 0 720 
L 576 720 
L 576 0 
L 0 0 
z
" style="fill: #ffffff"/>
  </g>
  <g id="axes_1">
   <g id="patch_2">
    <path d="M 56.09 205.24 
L 565.2 205.24 
L 565.2 26.88 
L 56.09 26.88 
z
" style="fill: #ffffff"/>
   </g>
   <g id="matplotlib.axis_1">
    <g id="xtick_1">
     <g id="line2d_1">
      <defs>
       <path id="m75352a6371" d="M 0 0 
L 0 3.5 
" style="stroke: #000000; stroke-width: 0.8"/>
      </defs>
      <g>
       <use xlink:href="#m75352a6371" x="79.231364" y="205.24" style="stroke: #000000; stroke-width: 0.8"/>
      </g>
     </g>
     <g id="text_1">
      <!-- 0.0 -->
      <g transform="translate(71.279801 219.838437) scale(0.1 -0.1)">
       <defs>
        <path id="DejaVuSans-30" d="M 2034 4250 
Q 1547 4250 1301 3770 
Q 1056 3291 1056 2328 
Q 1056 1369 1301 889 
Q 1547 409 2034 409 
Q 2525 409 2770 889 
Q 3016 1369 3016 2328 
Q 3016 3291 2770 3770 
Q 2525 4250 2034 4250 
z
M 2034 4750 
Q 2819 4750 3233 4129 
Q 3647 3509 3647 2328 
Q 3647 1150 3233 529 
Q 2819 -91 2034 -91 
Q 1250 -91 836 529 
Q 422 1150 422 2328 
Q 422 3509 836 4129 
Q 1250 4750 2034 4750 
z
" transform="scale(0.015625)"/>
        <path id="DejaVuSans-2e" d="M 684 794 
L 1344 794 
L 1344 0 
L 684 0 
L 684 794 
z
" transform="scale(0.015625)"/>
       </defs>
       <use xlink:href="#DejaVuSans-30"/>
       <use xlink:href="#DejaVuSans-2e" x="63.623047"/>
       <use xlink:href="#DejaVuSans-30" x="95.410156"/>
      </g>
     </g>
    </g>
    <g id="xtick_2">
     <g id="line2d_2">
      <g>
       <use xlink:href="#m75352a6371" x="171.796818" y="205.24" style="stroke: #000000; stroke-width: 0.8"/>
      </g>
     </g>
     <g id="text_2">
      <!-- 0.2 -->
      <g transform="translate(163.845256 219.838437) scale(0.1 -0.1)">
       <defs>
        <path id="DejaVuSans-32" d="M 1228 531 
L 3431 531 
L 3431 0 
L 469 0 
L 469 531 
Q 828 903 1448 1529 
Q 2069 2156 2228 2338 
Q 2531 2678 2651 2914 
Q 2772 3150 2772 3378 
Q 2772 3750 2511 3984 
Q 2250 4219 1831 4219 
Q 1534 4219 1204 4116 
Q 875 4013 500 3803 
L 500 4441 
Q 881 4594 1212 4672 
Q 1544 4750 1819 4750 
Q 2544 4750 2975 4387 
Q 3406 4025 3406 3419 
Q 3406 3131 3298 2873 
Q 3191 2616 2906 2266 
Q 2828 2175 2409 1742 
Q 1991 1309 1228 531 
z
" transform="scale(0.015625)"/>
       </defs>
       <use xlink:href="#DejaVuSans-30"/>
       <use xlink:href="#DejaVuSans-2e" x="63.623047"/>
       <use xlink:href="#DejaVuSans-32" x="95.410156"/>
      </g>
     </g>
    </g>
    <g id="xtick_3">
     <g id="line2d_3">
      <g>
       <use xlink:href="#m75352a6371" x="264.362273" y="205.24" style="stroke: #000000; stroke-width: 0.8"/>
      </g>
     </g>
     <g id="text_3">
      <!-- 0.4 -->
      <g transform="translate(256.41071 219.838437) scale(0.1 -0.1)">
       <defs>
        <path id="DejaVuSans-34" d="M 2419 4116 
L 825 1625 
L 2419 1625 
L 2419 4116 
z
M 2253 4666 
L 3047 4666 
L 3047 1625 
L 3713 1625 
L 3713 1100 
L 3047 1100 
L 3047 0 
L 2419 0 
L 2419 1100 
L 313 1100 
L 313 1709 
L 2253 4666 
z
" transform="scale(0.015625)"/>
       </defs>
       <use xlink:href="#DejaVuSans-30"/>
       <use xlink:href="#DejaVuSans-2e" x="63.623047"/>
       <use xlink:href="#DejaVuSans-34" x="95.410156"/>
      </g>
     </g>
    </g>
    <g id="xtick_4">
     <g id="line2d_4">
      <g>
       <use xlink:href="#m75352a6371" x="356.927727" y="205.24" style="stroke: #000000; stroke-width: 0.8"/>
      </g>
     </g>
     <g id="text_4">
      <!-- 0.6 -->
      <g transform="translate(348.976165 219.838437) scale(0.1 -0.1)">
       <defs>
        <path id="DejaVuSans-36" d="M 2113 2584 
Q 1688 2584 1439 2293 
Q 1191 2003 1191 1497 
Q 1191 994 1439 701 
Q 1688 409 2113 409 
Q 2538 409 2786 701 
Q 3034 994 3034 1497 
Q 3034 2003 2786 2293 
Q 2538 2584 2113 2584 
z
M 3366 4563 
L 3366 3988 
Q 3128 4100 2886 4159 
Q 2644 4219 2406 4219 
Q 1781 4219 1451 3797 
Q 1122 3375 1075 2522 
Q 1259 2794 1537 2939 
Q 1816 3084 2150 3084 
Q 2853 3084 3261 2657 
Q 3669 2231 3669 1497 
Q 3669 778 3244 343 
Q 2819 -91 2113 -91 
Q 1303 -91 875 529 
Q 447 1150 447 2328 
Q 447 3434 972 4092 
Q 1497 4750 2381 4750 
Q 2619 4750 2861 4703 
Q 3103 4656 3366 4563 
z
" transform="scale(0.015625)"/>
       </defs>
       <use xlink:href="#DejaVuSans-30"/>
       <use xlink:href="#DejaVuSans-2e" x="63.623047"/>
       <use xlink:href="#DejaVuSans-36" x="95.410156"/>
      </g>
     </g>
    </g>
    <g id="xtick_5">
     <g id="line2d_5">
      <g>
       <use xlink:href="#m75352a6371" x="449.493182" y="205.24" style="stroke: #000000; stroke-width: 0.8"/>
      </g>
     </g>
     <g id="text_5">
      <!-- 0.8 -->
      <g transform="translate(441.541619 219.838437) scale(0.1 -0.1)">
       <defs>
        <path id="DejaVuSans-38" d="M 2034 2216 
Q 1584 2216 1326 1975 
Q 1069 1734 1069 1313 
Q 1069 891 1326 650 
Q 1584 409 2034 409 
Q 2484 409 2743 651 
Q 3003 894 3003 1313 
Q 3003 1734 2745 1975 
Q 2488 2216 2034 2216 
z
M 1403 2484 
Q 997 2584 770 2862 
Q 544 3141 544 3541 
Q 544 4100 942 4425 
Q 1341 4750 2034 4750 
Q 2731 4750 3128 4425 
Q 3525 4100 3525 3541 
Q 3525 3141 3298 2862 
Q 3072 2584 2669 2484 
Q 3125 2378 3379 2068 
Q 3634 1759 3634 1313 
Q 3634 634 3220 271 
Q 2806 -91 2034 -91 
Q 1263 -91 848 271 
Q 434 634 434 1313 
Q 434 1759 690 2068 
Q 947 2378 1403 2484 
z
M 1172 3481 
Q 1172 3119 1398 2916 
Q 1625 2713 2034 2713 
Q 2441 2713 2670 2916 
Q 2900 3119 2900 3481 
Q 2900 3844 2670 4047 
Q 2441 4250 2034 4250 
Q 1625 4250 1398 4047 
Q 1172 3844 1172 3481 
z
" transform="scale(0.015625)"/>
       </defs>
       <use xlink:href="#DejaVuSans-30"/>
       <use xlink:href="#DejaVuSans-2e" x="63.623047"/>
       <use xlink:href="#DejaVuSans-38" x="95.410156"/>
      </g>
     </g>
    </g>
    <g id="xtick_6">
     <g id="line2d_6">
      <g>
       <use xlink:href="#m75352a6371" x="542.058636" y="205.24" style="stroke: #000000; stroke-width: 0.8"/>
      </g>
     </g>
     <g id="text_6">
      <!-- 1.0 -->
      <g transform="translate(534.107074 219.838437) scale(0.1 -0.1)">
       <defs>
        <path id="DejaVuSans-31" d="M 794 531 
L 1825 531 
L 1825 4091 
L 703 3866 
L 703 4441 
L 1819 4666 
L 2450 4666 
L 2450 531 
L 3481 531 
L 3481 0 
L 794 0 
L 794 531 
z
" transform="scale(0.015625)"/>
       </defs>
       <use xlink:href="#DejaVuSans-31"/>
       <use xlink:href="#DejaVuSans-2e" x="63.623047"/>
       <use xlink:href="#DejaVuSans-30" x="95.410156"/>
      </g>
     </g>
    </g>
    <g id="text_7">
     <!-- time in hours -->
     <g transform="translate(277.555937 233.516563) scale(0.1 -0.1)">
      <defs>
       <path id="DejaVuSans-74" d="M 1172 4494 
L 1172 3500 
L 2356 3500 
L 2356 3053 
L 1172 3053 
L 1172 1153 
Q 1172 725 1289 603 
Q 1406 481 1766 481 
L 2356 481 
L 2356 0 
L 1766 0 
Q 1100 0 847 248 
Q 594 497 594 1153 
L 594 3053 
L 172 3053 
L 172 3500 
L 594 3500 
L 594 4494 
L 1172 4494 
z
" transform="scale(0.015625)"/>
       <path id="DejaVuSans-69" d="M 603 3500 
L 1178 3500 
L 1178 0 
L 603 0 
L 603 3500 
z
M 603 4863 
L 1178 4863 
L 1178 4134 
L 603 4134 
L 603 4863 
z
" transform="scale(0.015625)"/>
       <path id="DejaVuSans-6d" d="M 3328 2828 
Q 3544 3216 3844 3400 
Q 4144 3584 4550 3584 
Q 5097 3584 5394 3201 
Q 5691 2819 5691 2113 
L 5691 0 
L 5113 0 
L 5113 2094 
Q 5113 2597 4934 2840 
Q 4756 3084 4391 3084 
Q 3944 3084 3684 2787 
Q 3425 2491 3425 1978 
L 3425 0 
L 2847 0 
L 2847 2094 
Q 2847 2600 2669 2842 
Q 2491 3084 2119 3084 
Q 1678 3084 1418 2786 
Q 1159 2488 1159 1978 
L 1159 0 
L 581 0 
L 581 3500 
L 1159 3500 
L 1159 2956 
Q 1356 3278 1631 3431 
Q 1906 3584 2284 3584 
Q 2666 3584 2933 3390 
Q 3200 3197 3328 2828 
z
" transform="scale(0.015625)"/>
       <path id="DejaVuSans-65" d="M 3597 1894 
L 3597 1613 
L 953 1613 
Q 991 1019 1311 708 
Q 1631 397 2203 397 
Q 2534 397 2845 478 
Q 3156 559 3463 722 
L 3463 178 
Q 3153 47 2828 -22 
Q 2503 -91 2169 -91 
Q 1331 -91 842 396 
Q 353 884 353 1716 
Q 353 2575 817 3079 
Q 1281 3584 2069 3584 
Q 2775 3584 3186 3129 
Q 3597 2675 3597 1894 
z
M 3022 2063 
Q 3016 2534 2758 2815 
Q 2500 3097 2075 3097 
Q 1594 3097 1305 2825 
Q 1016 2553 972 2059 
L 3022 2063 
z
" transform="scale(0.015625)"/>
       <path id="DejaVuSans-20" transform="scale(0.015625)"/>
       <path id="DejaVuSans-6e" d="M 3513 2113 
L 3513 0 
L 2938 0 
L 2938 2094 
Q 2938 2591 2744 2837 
Q 2550 3084 2163 3084 
Q 1697 3084 1428 2787 
Q 1159 2491 1159 1978 
L 1159 0 
L 581 0 
L 581 3500 
L 1159 3500 
L 1159 2956 
Q 1366 3272 1645 3428 
Q 1925 3584 2291 3584 
Q 2894 3584 3203 3211 
Q 3513 2838 3513 2113 
z
" transform="scale(0.015625)"/>
       <path id="DejaVuSans-68" d="M 3513 2113 
L 3513 0 
L 2938 0 
L 2938 2094 
Q 2938 2591 2744 2837 
Q 2550 3084 2163 3084 
Q 1697 3084 1428 2787 
Q 1159 2491 1159 1978 
L 1159 0 
L 581 0 
L 581 4863 
L 1159 4863 
L 1159 2956 
Q 1366 3272 1645 3428 
Q 1925 3584 2291 3584 
Q 2894 3584 3203 3211 
Q 3513 2838 3513 2113 
z
" transform="scale(0.015625)"/>
       <path id="DejaVuSans-6f" d="M 1959 3097 
Q 1497 3097 1228 2736 
Q 959 2375 959 1747 
Q 959 1119 1226 758 
Q 1494 397 1959 397 
Q 2419 397 2687 759 
Q 2956 1122 2956 1747 
Q 2956 2369 2687 2733 
Q 2419 3097 1959 3097 
z
M 1959 3584 
Q 2709 3584 3137 3096 
Q 3566 2609 3566 1747 
Q 3566 888 3137 398 
Q 2709 -91 1959 -91 
Q 1206 -91 779 398 
Q 353 888 353 1747 
Q 353 2609 779 3096 
Q 1206 3584 1959 3584 
z
" transform="scale(0.015625)"/>
       <path id="DejaVuSans-75" d="M 544 1381 
L 544 3500 
L 1119 3500 
L 1119 1403 
Q 1119 906 1312 657 
Q 1506 409 1894 409 
Q 2359 409 2629 706 
Q 2900 1003 2900 1516 
L 2900 3500 
L 3475 3500 
L 3475 0 
L 2900 0 
L 2900 538 
Q 2691 219 2414 64 
Q 2138 -91 1772 -91 
Q 1169 -91 856 284 
Q 544 659 544 1381 
z
M 1991 3584 
L 1991 3584 
z
" transform="scale(0.015625)"/>
       <path id="DejaVuSans-72" d="M 2631 2963 
Q 2534 3019 2420 3045 
Q 2306 3072 2169 3072 
Q 1681 3072 1420 2755 
Q 1159 2438 1159 1844 
L 1159 0 
L 581 0 
L 581 3500 
L 1159 3500 
L 1159 2956 
Q 1341 3275 1631 3429 
Q 1922 3584 2338 3584 
Q 2397 3584 2469 3576 
Q 2541 3569 2628 3553 
L 2631 2963 
z
" transform="scale(0.015625)"/>
       <path id="DejaVuSans-73" d="M 2834 3397 
L 2834 2853 
Q 2591 2978 2328 3040 
Q 2066 3103 1784 3103 
Q 1356 3103 1142 2972 
Q 928 2841 928 2578 
Q 928 2378 1081 2264 
Q 1234 2150 1697 2047 
L 1894 2003 
Q 2506 1872 2764 1633 
Q 3022 1394 3022 966 
Q 3022 478 2636 193 
Q 2250 -91 1575 -91 
Q 1294 -91 989 -36 
Q 684 19 347 128 
L 347 722 
Q 666 556 975 473 
Q 1284 391 1588 391 
Q 1994 391 2212 530 
Q 2431 669 2431 922 
Q 2431 1156 2273 1281 
Q 2116 1406 1581 1522 
L 1381 1569 
Q 847 1681 609 1914 
Q 372 2147 372 2553 
Q 372 3047 722 3315 
Q 1072 3584 1716 3584 
Q 2034 3584 2315 3537 
Q 2597 3491 2834 3397 
z
" transform="scale(0.015625)"/>
      </defs>
      <use xlink:href="#DejaVuSans-74"/>
      <use xlink:href="#DejaVuSans-69" x="39.208984"/>
      <use xlink:href="#DejaVuSans-6d" x="66.992188"/>
      <use xlink:href="#DejaVuSans-65" x="164.404297"/>
      <use xlink:href="#DejaVuSans-20" x="225.927734"/>
      <use xlink:href="#DejaVuSans-69" x="257.714844"/>
      <use xlink:href="#DejaVuSans-6e" x="285.498047"/>
      <use xlink:href="#DejaVuSans-20" x="348.876953"/>
      <use xlink:href="#DejaVuSans-68" x="380.664062"/>
      <use xlink:href="#DejaVuSans-6f" x="444.042969"/>
      <use xlink:href="#DejaVuSans-75" x="505.224609"/>
      <use xlink:href="#DejaVuSans-72" x="568.603516"/>
      <use xlink:href="#DejaVuSans-73" x="609.716797"/>
     </g>
    </g>
   </g>
   <g id="matplotlib.axis_2">
    <g id="ytick_1">
     <g id="line2d_7">
      <defs>
       <path id="ma95a17addc" d="M 0 0 
L -3.5 0 
" style="stroke: #000000; stroke-width: 0.8"/>
      </defs>
      <g>
       <use xlink:href="#ma95a17addc" x="56.09" y="197.132727" style="stroke: #000000; stroke-width: 0.8"/>
      </g>
     </g>
     <g id="text_8">
      <!-- −1.0 -->
      <g transform="translate(24.807188 200.931946) scale(0.1 -0.1)">
       <defs>
        <path id="DejaVuSans-2212" d="M 678 2272 
L 4684 2272 
L 4684 1741 
L 678 1741 
L 678 2272 
z
" transform="scale(0.015625)"/>
       </defs>
       <use xlink:href="#DejaVuSans-2212"/>
       <use xlink:href="#DejaVuSans-31" x="83.789062"/>
       <use xlink:href="#DejaVuSans-2e" x="147.412109"/>
       <use xlink:href="#DejaVuSans-30" x="179.199219"/>
      </g>
     </g>
    </g>
    <g id="ytick_2">
     <g id="line2d_8">
      <g>
       <use xlink:href="#ma95a17addc" x="56.09" y="156.596364" style="stroke: #000000; stroke-width: 0.8"/>
      </g>
     </g>
     <g id="text_9">
      <!-- −0.5 -->
      <g transform="translate(24.807188 160.395582) scale(0.1 -0.1)">
       <defs>
        <path id="DejaVuSans-35" d="M 691 4666 
L 3169 4666 
L 3169 4134 
L 1269 4134 
L 1269 2991 
Q 1406 3038 1543 3061 
Q 1681 3084 1819 3084 
Q 2600 3084 3056 2656 
Q 3513 2228 3513 1497 
Q 3513 744 3044 326 
Q 2575 -91 1722 -91 
Q 1428 -91 1123 -41 
Q 819 9 494 109 
L 494 744 
Q 775 591 1075 516 
Q 1375 441 1709 441 
Q 2250 441 2565 725 
Q 2881 1009 2881 1497 
Q 2881 1984 2565 2268 
Q 2250 2553 1709 2553 
Q 1456 2553 1204 2497 
Q 953 2441 691 2322 
L 691 4666 
z
" transform="scale(0.015625)"/>
       </defs>
       <use xlink:href="#DejaVuSans-2212"/>
       <use xlink:href="#DejaVuSans-30" x="83.789062"/>
       <use xlink:href="#DejaVuSans-2e" x="147.412109"/>
       <use xlink:href="#DejaVuSans-35" x="179.199219"/>
      </g>
     </g>
    </g>
    <g id="ytick_3">
     <g id="line2d_9">
      <g>
       <use xlink:href="#ma95a17addc" x="56.09" y="116.06" style="stroke: #000000; stroke-width: 0.8"/>
      </g>
     </g>
     <g id="text_10">
      <!-- 0.0 -->
      <g transform="translate(33.186875 119.859219) scale(0.1 -0.1)">
       <use xlink:href="#DejaVuSans-30"/>
       <use xlink:href="#DejaVuSans-2e" x="63.623047"/>
       <use xlink:href="#DejaVuSans-30" x="95.410156"/>
      </g>
     </g>
    </g>
    <g id="ytick_4">
     <g id="line2d_10">
      <g>
       <use xlink:href="#ma95a17addc" x="56.09" y="75.523636" style="stroke: #000000; stroke-width: 0.8"/>
      </g>
     </g>
     <g id="text_11">
      <!-- 0.5 -->
      <g transform="translate(33.186875 79.322855) scale(0.1 -0.1)">
       <use xlink:href="#DejaVuSans-30"/>
       <use xlink:href="#DejaVuSans-2e" x="63.623047"/>
       <use xlink:href="#DejaVuSans-35" x="95.410156"/>
      </g>
     </g>
    </g>
    <g id="ytick_5">
     <g id="line2d_11">
      <g>
       <use xlink:href="#ma95a17addc" x="56.09" y="34.987273" style="stroke: #000000; stroke-width: 0.8"/>
      </g>
     </g>
     <g id="text_12">
      <!-- 1.0 -->
      <g transform="translate(33.186875 38.786491) scale(0.1 -0.1)">
       <use xlink:href="#DejaVuSans-31"/>
       <use xlink:href="#DejaVuSans-2e" x="63.623047"/>
       <use xlink:href="#DejaVuSans-30" x="95.410156"/>
      </g>
     </g>
    </g>
    <g id="text_13">
     <!-- reflectance -->
     <g transform="translate(18.7275 144.073281) rotate(-90) scale(0.1 -0.1)">
      <defs>
       <path id="DejaVuSans-66" d="M 2375 4863 
L 2375 4384 
L 1825 4384 
Q 1516 4384 1395 4259 
Q 1275 4134 1275 3809 
L 1275 3500 
L 2222 3500 
L 2222 3053 
L 1275 3053 
L 1275 0 
L 697 0 
L 697 3053 
L 147 3053 
L 147 3500 
L 697 3500 
L 697 3744 
Q 697 4328 969 4595 
Q 1241 4863 1831 4863 
L 2375 4863 
z
" transform="scale(0.015625)"/>
       <path id="DejaVuSans-6c" d="M 603 4863 
L 1178 4863 
L 1178 0 
L 603 0 
L 603 4863 
z
" transform="scale(0.015625)"/>
       <path id="DejaVuSans-63" d="M 3122 3366 
L 3122 2828 
Q 2878 2963 2633 3030 
Q 2388 3097 2138 3097 
Q 1578 3097 1268 2742 
Q 959 2388 959 1747 
Q 959 1106 1268 751 
Q 1578 397 2138 397 
Q 2388 397 2633 464 
Q 2878 531 3122 666 
L 3122 134 
Q 2881 22 2623 -34 
Q 2366 -91 2075 -91 
Q 1284 -91 818 406 
Q 353 903 353 1747 
Q 353 2603 823 3093 
Q 1294 3584 2113 3584 
Q 2378 3584 2631 3529 
Q 2884 3475 3122 3366 
z
" transform="scale(0.015625)"/>
       <path id="DejaVuSans-61" d="M 2194 1759 
Q 1497 1759 1228 1600 
Q 959 1441 959 1056 
Q 959 750 1161 570 
Q 1363 391 1709 391 
Q 2188 391 2477 730 
Q 2766 1069 2766 1631 
L 2766 1759 
L 2194 1759 
z
M 3341 1997 
L 3341 0 
L 2766 0 
L 2766 531 
Q 2569 213 2275 61 
Q 1981 -91 1556 -91 
Q 1019 -91 701 211 
Q 384 513 384 1019 
Q 384 1609 779 1909 
Q 1175 2209 1959 2209 
L 2766 2209 
L 2766 2266 
Q 2766 2663 2505 2880 
Q 2244 3097 1772 3097 
Q 1472 3097 1187 3025 
Q 903 2953 641 2809 
L 641 3341 
Q 956 3463 1253 3523 
Q 1550 3584 1831 3584 
Q 2591 3584 2966 3190 
Q 3341 2797 3341 1997 
z
" transform="scale(0.015625)"/>
      </defs>
      <use xlink:href="#DejaVuSans-72"/>
      <use xlink:href="#DejaVuSans-65" x="38.863281"/>
      <use xlink:href="#DejaVuSans-66" x="100.386719"/>
      <use xlink:href="#DejaVuSans-6c" x="135.591797"/>
      <use xlink:href="#DejaVuSans-65" x="163.375"/>
      <use xlink:href="#DejaVuSans-63" x="224.898438"/>
      <use xlink:href="#DejaVuSans-74" x="279.878906"/>
      <use xlink:href="#DejaVuSans-61" x="319.087891"/>
      <use xlink:href="#DejaVuSans-6e" x="380.367188"/>
      <use xlink:href="#DejaVuSans-63" x="443.746094"/>
      <use xlink:href="#DejaVuSans-65" x="498.726562"/>
     </g>
    </g>
   </g>
   <g id="line2d_12">
    <path d="M 79.231364 34.987273 
L 82.711268 35.121277 
L 86.191172 35.510223 
L 89.671077 36.160512 
L 93.150981 37.082882 
L 96.630885 38.292687 
L 100.110789 39.810274 
L 103.590694 41.661478 
L 107.070598 43.878223 
L 109.390534 45.577945 
L 111.71047 47.47048 
L 114.030407 49.570721 
L 116.350343 51.895254 
L 118.670279 54.462441 
L 120.990215 57.292478 
L 123.310152 60.407413 
L 125.630088 63.831096 
L 127.950024 67.589028 
L 130.26996 71.708065 
L 132.589896 76.215918 
L 134.909833 81.140369 
L 137.229769 86.508105 
L 139.549705 92.343046 
L 141.869641 98.664019 
L 144.189577 105.481598 
L 146.509514 112.793969 
L 149.989418 124.641323 
L 153.469322 137.3777 
L 162.749067 172.250325 
L 165.069003 179.928596 
L 167.388939 186.568721 
L 168.548907 189.392627 
L 169.708876 191.831404 
L 170.868844 193.848012 
L 172.028812 195.409856 
L 173.18878 196.489961 
L 174.348748 197.067991 
L 175.508716 197.131076 
L 176.668684 196.674366 
L 177.828652 195.701293 
L 178.98862 194.223502 
L 180.148589 192.260457 
L 181.308557 189.838757 
L 182.468525 186.991198 
L 183.628493 183.755643 
L 185.948429 176.289835 
L 188.268365 167.797817 
L 191.74827 153.914191 
L 198.708078 125.656151 
L 202.187982 112.621374 
L 204.507919 104.582625 
L 206.827855 97.113309 
L 209.147791 90.224322 
L 211.467727 83.90771 
L 213.787663 78.14281 
L 216.1076 72.901059 
L 218.427536 68.14957 
L 220.747472 63.853689 
L 223.067408 59.978779 
L 225.387344 56.491406 
L 227.707281 53.360059 
L 230.027217 50.555573 
L 232.347153 48.051326 
L 234.667089 45.823299 
L 236.987026 43.850032 
L 239.306962 42.112521 
L 241.626898 40.594098 
L 243.946834 39.280282 
L 246.26677 38.158646 
L 248.586707 37.218675 
L 250.906643 36.451654 
L 253.226579 35.85056 
L 255.546515 35.409977 
L 257.866451 35.126026 
L 260.186388 34.996326 
L 262.506324 35.01996 
L 264.82626 35.197475 
L 267.146196 35.530901 
L 269.466132 36.023786 
L 271.786069 36.68126 
L 274.106005 37.510121 
L 276.425941 38.51894 
L 278.745877 39.7182 
L 281.065813 41.120448 
L 283.38575 42.740479 
L 285.705686 44.595537 
L 288.025622 46.705531 
L 290.345558 49.093263 
L 292.665494 51.784645 
L 294.985431 54.808889 
L 297.305367 58.19863 
L 299.625303 61.989931 
L 301.945239 66.222088 
L 304.265175 70.937123 
L 306.585112 76.178809 
L 308.905048 81.990988 
L 311.224984 88.414919 
L 313.54492 95.485267 
L 315.864856 103.224322 
L 318.184793 111.634022 
L 320.504729 120.685459 
L 323.984633 135.291179 
L 332.10441 170.694618 
L 334.424346 179.615603 
L 335.584314 183.59105 
L 336.744282 187.15979 
L 337.90425 190.261968 
L 339.064219 192.842486 
L 340.224187 194.853246 
L 341.384155 196.25524 
L 342.544123 197.020359 
L 343.704091 197.132727 
L 344.864059 196.58949 
L 346.024027 195.400944 
L 347.183995 193.590029 
L 348.343963 191.191204 
L 349.503931 188.248831 
L 350.6639 184.815182 
L 352.983836 176.709479 
L 355.303772 167.367034 
L 358.783676 152.082874 
L 364.583517 126.397372 
L 368.063421 112.214635 
L 370.383357 103.534266 
L 372.703293 95.526352 
L 375.02323 88.196887 
L 377.343166 81.529339 
L 379.663102 75.493108 
L 381.983038 70.049689 
L 384.302974 65.157016 
L 386.622911 60.772422 
L 388.942847 56.854506 
L 391.262783 53.364306 
L 393.582719 50.265926 
L 395.902656 47.526827 
L 398.222592 45.117896 
L 400.542528 43.01339 
L 402.862464 41.190809 
L 405.1824 39.630719 
L 407.502337 38.316569 
L 409.822273 37.234523 
L 412.142209 36.373313 
L 414.462145 35.72411 
L 416.782081 35.280438 
L 419.102018 35.038115 
L 421.421954 34.99524 
L 423.74189 35.152217 
L 426.061826 35.511819 
L 428.381762 36.079294 
L 430.701699 36.862511 
L 433.021635 37.872157 
L 435.341571 39.121975 
L 437.661507 40.629053 
L 439.981443 42.41416 
L 442.30138 44.502133 
L 444.621316 46.922299 
L 446.941252 49.708916 
L 449.261188 52.901602 
L 451.581124 56.545685 
L 453.901061 60.69238 
L 456.220997 65.398637 
L 458.540933 70.726406 
L 460.860869 76.740974 
L 463.180805 83.507827 
L 465.500742 91.087326 
L 467.820678 99.526252 
L 470.140614 108.84513 
L 472.46055 119.020333 
L 475.940455 135.663549 
L 482.900263 170.398843 
L 485.220199 180.541724 
L 486.380167 184.956356 
L 487.540136 188.809474 
L 488.700104 192.014579 
L 489.860072 194.495383 
L 491.02004 196.190057 
L 492.180008 197.054914 
L 493.339976 197.067141 
L 494.499944 196.226273 
L 495.659912 194.554222 
L 496.81988 192.093875 
L 497.979848 188.906406 
L 499.139817 185.067628 
L 500.299785 180.663764 
L 502.619721 170.531531 
L 506.099625 153.387431 
L 510.739498 130.04597 
L 514.219402 113.877961 
L 516.539338 104.100224 
L 518.859274 95.199363 
L 521.179211 87.17496 
L 523.499147 79.991718 
L 525.819083 73.594778 
L 528.139019 67.920245 
L 530.458955 62.90202 
L 532.778892 58.475972 
L 535.098828 54.582293 
L 537.418764 51.166658 
L 539.7387 48.180641 
L 542.058636 45.581683 
L 542.058636 45.581683 
" clip-path="url(#p253175cba4)" style="fill: none; stroke: #1f77b4; stroke-width: 1.5; stroke-linecap: square"/>
   </g>
   <g id="line2d_13">
    <path d="M 79.231364 34.987273 
L 82.711268 35.106688 
L 86.191172 35.451966 
L 89.671077 36.028957 
L 93.150981 36.850541 
L 96.630885 37.936702 
L 100.110789 39.313657 
L 103.590694 41.013066 
L 105.91063 42.344377 
L 108.230566 43.850755 
L 110.550502 45.547386 
L 112.870439 47.450469 
L 115.190375 49.578767 
L 117.510311 51.954277 
L 119.830247 54.600931 
L 122.150183 57.545157 
L 124.47012 60.81763 
L 126.790056 64.452192 
L 129.109992 68.48569 
L 131.429928 72.956793 
L 133.749864 77.906314 
L 136.069801 83.3762 
L 138.389737 89.406231 
L 140.709673 96.031807 
L 143.029609 103.279966 
L 145.349545 111.16229 
L 147.669482 119.666166 
L 151.149386 133.469583 
L 155.789258 153.15219 
L 159.269163 167.824291 
L 161.589099 176.878247 
L 163.909035 184.808352 
L 165.069003 188.196123 
L 166.228971 191.117728 
L 167.388939 193.517053 
L 168.548907 195.344616 
L 169.708876 196.559788 
L 170.868844 197.132727 
L 172.028812 197.045913 
L 173.18878 196.29514 
L 174.348748 194.889924 
L 175.508716 192.853227 
L 176.668684 190.220268 
L 177.828652 187.036803 
L 178.98862 183.357148 
L 181.308557 174.755092 
L 183.628493 164.931376 
L 188.268365 143.614117 
L 192.908238 122.658275 
L 195.228174 112.945308 
L 197.54811 103.926269 
L 199.868046 95.682753 
L 202.187982 88.226606 
L 204.507919 81.522119 
L 206.827855 75.518258 
L 209.147791 70.159331 
L 211.467727 65.398283 
L 213.787663 61.185943 
L 216.1076 57.465188 
L 218.427536 54.181743 
L 220.747472 51.286672 
L 223.067408 48.737033 
L 225.387344 46.495179 
L 227.707281 44.528459 
L 230.027217 42.808587 
L 232.347153 41.311065 
L 234.667089 40.01475 
L 236.987026 38.90223 
L 240.46693 37.547808 
L 243.946834 36.525472 
L 247.426738 35.791081 
L 250.906643 35.308925 
L 254.386547 35.049916 
L 257.866451 34.990181 
L 261.346356 35.109978 
L 265.986228 35.520901 
L 270.6261 36.189918 
L 275.265973 37.091029 
L 279.905845 38.202705 
L 284.545718 39.506673 
L 290.345558 41.382936 
L 296.145399 43.507238 
L 301.945239 45.854431 
L 308.905048 48.931914 
L 315.864856 52.256422 
L 323.984633 56.394674 
L 333.264378 61.389843 
L 344.864059 67.896082 
L 377.343166 86.278734 
L 387.782879 91.864282 
L 397.062624 96.588102 
L 406.342368 101.049098 
L 414.462145 104.719029 
L 422.581922 108.162152 
L 430.701699 111.375437 
L 438.821475 114.360144 
L 446.941252 117.121076 
L 455.061029 119.665771 
L 464.340774 122.321526 
L 473.620518 124.723732 
L 482.900263 126.890086 
L 492.180008 128.838796 
L 502.619721 130.793514 
L 513.059434 132.520727 
L 524.659115 134.201829 
L 536.258796 135.66155 
L 542.058636 136.317124 
L 542.058636 136.317124 
" clip-path="url(#p253175cba4)" style="fill: none; stroke: #ff7f0e; stroke-width: 1.5; stroke-linecap: square"/>
   </g>
   <g id="patch_3">
    <path d="M 56.09 205.24 
L 56.09 26.88 
" style="fill: none; stroke: #000000; stroke-width: 0.8; stroke-linejoin: miter; stroke-linecap: square"/>
   </g>
   <g id="patch_4">
    <path d="M 565.2 205.24 
L 565.2 26.88 
" style="fill: none; stroke: #000000; stroke-width: 0.8; stroke-linejoin: miter; stroke-linecap: square"/>
   </g>
   <g id="patch_5">
    <path d="M 56.09 205.24 
L 565.2 205.24 
" style="fill: none; stroke: #000000; stroke-width: 0.8; stroke-linejoin: miter; stroke-linecap: square"/>
   </g>
   <g id="patch_6">
    <path d="M 56.09 26.88 
L 565.2 26.88 
" style="fill: none; stroke: #000000; stroke-width: 0.8; stroke-linejoin: miter; stroke-linecap: square"/>
   </g>
   <g id="text_14">
    <!-- Reflectance -->
    <g transform="translate(275.461563 20.88) scale(0.12 -0.12)">
     <defs>
      <path id="DejaVuSans-52" d="M 2841 2188 
Q 3044 2119 3236 1894 
Q 3428 1669 3622 1275 
L 4263 0 
L 3584 0 
L 2988 1197 
Q 2756 1666 2539 1819 
Q 2322 1972 1947 1972 
L 1259 1972 
L 1259 0 
L 628 0 
L 628 4666 
L 2053 4666 
Q 2853 4666 3247 4331 
Q 3641 3997 3641 3322 
Q 3641 2881 3436 2590 
Q 3231 2300 2841 2188 
z
M 1259 4147 
L 1259 2491 
L 2053 2491 
Q 2509 2491 2742 2702 
Q 2975 2913 2975 3322 
Q 2975 3731 2742 3939 
Q 2509 4147 2053 4147 
L 1259 4147 
z
" transform="scale(0.015625)"/>
     </defs>
     <use xlink:href="#DejaVuSans-52"/>
     <use xlink:href="#DejaVuSans-65" x="64.982422"/>
     <use xlink:href="#DejaVuSans-66" x="126.505859"/>
     <use xlink:href="#DejaVuSans-6c" x="161.710938"/>
     <use xlink:href="#DejaVuSans-65" x="189.494141"/>
     <use xlink:href="#DejaVuSans-63" x="251.017578"/>
     <use xlink:href="#DejaVuSans-74" x="305.998047"/>
     <use xlink:href="#DejaVuSans-61" x="345.207031"/>
     <use xlink:href="#DejaVuSans-6e" x="406.486328"/>
     <use xlink:href="#DejaVuSans-63" x="469.865234"/>
     <use xlink:href="#DejaVuSans-65" x="524.845703"/>
    </g>
   </g>
   <g id="legend_1">
    <g id="patch_7">
     <path d="M 417.039062 64.23625 
L 558.2 64.23625 
Q 560.2 64.23625 560.2 62.23625 
L 560.2 33.88 
Q 560.2 31.88 558.2 31.88 
L 417.039062 31.88 
Q 415.039062 31.88 415.039062 33.88 
L 415.039062 62.23625 
Q 415.039062 64.23625 417.039062 64.23625 
z
" style="fill: #ffffff; opacity: 0.8; stroke: #cccccc; stroke-linejoin: miter"/>
    </g>
    <g id="line2d_14">
     <path d="M 419.039062 39.978438 
L 429.039062 39.978438 
L 439.039062 39.978438 
" style="fill: none; stroke: #1f77b4; stroke-width: 1.5; stroke-linecap: square"/>
    </g>
    <g id="text_15">
     <!-- measured reflectance -->
     <g transform="translate(447.039062 43.478438) scale(0.1 -0.1)">
      <defs>
       <path id="DejaVuSans-64" d="M 2906 2969 
L 2906 4863 
L 3481 4863 
L 3481 0 
L 2906 0 
L 2906 525 
Q 2725 213 2448 61 
Q 2172 -91 1784 -91 
Q 1150 -91 751 415 
Q 353 922 353 1747 
Q 353 2572 751 3078 
Q 1150 3584 1784 3584 
Q 2172 3584 2448 3432 
Q 2725 3281 2906 2969 
z
M 947 1747 
Q 947 1113 1208 752 
Q 1469 391 1925 391 
Q 2381 391 2643 752 
Q 2906 1113 2906 1747 
Q 2906 2381 2643 2742 
Q 2381 3103 1925 3103 
Q 1469 3103 1208 2742 
Q 947 2381 947 1747 
z
" transform="scale(0.015625)"/>
      </defs>
      <use xlink:href="#DejaVuSans-6d"/>
      <use xlink:href="#DejaVuSans-65" x="97.412109"/>
      <use xlink:href="#DejaVuSans-61" x="158.935547"/>
      <use xlink:href="#DejaVuSans-73" x="220.214844"/>
      <use xlink:href="#DejaVuSans-75" x="272.314453"/>
      <use xlink:href="#DejaVuSans-72" x="335.693359"/>
      <use xlink:href="#DejaVuSans-65" x="374.556641"/>
      <use xlink:href="#DejaVuSans-64" x="436.080078"/>
      <use xlink:href="#DejaVuSans-20" x="499.556641"/>
      <use xlink:href="#DejaVuSans-72" x="531.34375"/>
      <use xlink:href="#DejaVuSans-65" x="570.207031"/>
      <use xlink:href="#DejaVuSans-66" x="631.730469"/>
      <use xlink:href="#DejaVuSans-6c" x="666.935547"/>
      <use xlink:href="#DejaVuSans-65" x="694.71875"/>
      <use xlink:href="#DejaVuSans-63" x="756.242188"/>
      <use xlink:href="#DejaVuSans-74" x="811.222656"/>
      <use xlink:href="#DejaVuSans-61" x="850.431641"/>
      <use xlink:href="#DejaVuSans-6e" x="911.710938"/>
      <use xlink:href="#DejaVuSans-63" x="975.089844"/>
      <use xlink:href="#DejaVuSans-65" x="1030.070312"/>
     </g>
    </g>
    <g id="line2d_15">
     <path d="M 419.039062 54.656563 
L 429.039062 54.656563 
L 439.039062 54.656563 
" style="fill: none; stroke: #ff7f0e; stroke-width: 1.5; stroke-linecap: square"/>
    </g>
    <g id="text_16">
     <!-- predicted reflectance -->
     <g transform="translate(447.039062 58.156563) scale(0.1 -0.1)">
      <defs>
       <path id="DejaVuSans-70" d="M 1159 525 
L 1159 -1331 
L 581 -1331 
L 581 3500 
L 1159 3500 
L 1159 2969 
Q 1341 3281 1617 3432 
Q 1894 3584 2278 3584 
Q 2916 3584 3314 3078 
Q 3713 2572 3713 1747 
Q 3713 922 3314 415 
Q 2916 -91 2278 -91 
Q 1894 -91 1617 61 
Q 1341 213 1159 525 
z
M 3116 1747 
Q 3116 2381 2855 2742 
Q 2594 3103 2138 3103 
Q 1681 3103 1420 2742 
Q 1159 2381 1159 1747 
Q 1159 1113 1420 752 
Q 1681 391 2138 391 
Q 2594 391 2855 752 
Q 3116 1113 3116 1747 
z
" transform="scale(0.015625)"/>
      </defs>
      <use xlink:href="#DejaVuSans-70"/>
      <use xlink:href="#DejaVuSans-72" x="63.476562"/>
      <use xlink:href="#DejaVuSans-65" x="102.339844"/>
      <use xlink:href="#DejaVuSans-64" x="163.863281"/>
      <use xlink:href="#DejaVuSans-69" x="227.339844"/>
      <use xlink:href="#DejaVuSans-63" x="255.123047"/>
      <use xlink:href="#DejaVuSans-74" x="310.103516"/>
      <use xlink:href="#DejaVuSans-65" x="349.3125"/>
      <use xlink:href="#DejaVuSans-64" x="410.835938"/>
      <use xlink:href="#DejaVuSans-20" x="474.3125"/>
      <use xlink:href="#DejaVuSans-72" x="506.099609"/>
      <use xlink:href="#DejaVuSans-65" x="544.962891"/>
      <use xlink:href="#DejaVuSans-66" x="606.486328"/>
      <use xlink:href="#DejaVuSans-6c" x="641.691406"/>
      <use xlink:href="#DejaVuSans-65" x="669.474609"/>
      <use xlink:href="#DejaVuSans-63" x="730.998047"/>
      <use xlink:href="#DejaVuSans-74" x="785.978516"/>
      <use xlink:href="#DejaVuSans-61" x="825.1875"/>
      <use xlink:href="#DejaVuSans-6e" x="886.466797"/>
      <use xlink:href="#DejaVuSans-63" x="949.845703"/>
      <use xlink:href="#DejaVuSans-65" x="1004.826172"/>
     </g>
    </g>
   </g>
  </g>
  <g id="axes_2">
   <g id="patch_8">
    <path d="M 56.09 441.64 
L 565.2 441.64 
L 565.2 263.28 
L 56.09 263.28 
z
" style="fill: #ffffff"/>
   </g>
   <g id="matplotlib.axis_3">
    <g id="xtick_7">
     <g id="line2d_16">
      <g>
       <use xlink:href="#m75352a6371" x="79.231364" y="441.64" style="stroke: #000000; stroke-width: 0.8"/>
      </g>
     </g>
     <g id="text_17">
      <!-- 0.0 -->
      <g transform="translate(71.279801 456.238438) scale(0.1 -0.1)">
       <use xlink:href="#DejaVuSans-30"/>
       <use xlink:href="#DejaVuSans-2e" x="63.623047"/>
       <use xlink:href="#DejaVuSans-30" x="95.410156"/>
      </g>
     </g>
    </g>
    <g id="xtick_8">
     <g id="line2d_17">
      <g>
       <use xlink:href="#m75352a6371" x="171.796818" y="441.64" style="stroke: #000000; stroke-width: 0.8"/>
      </g>
     </g>
     <g id="text_18">
      <!-- 0.2 -->
      <g transform="translate(163.845256 456.238438) scale(0.1 -0.1)">
       <use xlink:href="#DejaVuSans-30"/>
       <use xlink:href="#DejaVuSans-2e" x="63.623047"/>
       <use xlink:href="#DejaVuSans-32" x="95.410156"/>
      </g>
     </g>
    </g>
    <g id="xtick_9">
     <g id="line2d_18">
      <g>
       <use xlink:href="#m75352a6371" x="264.362273" y="441.64" style="stroke: #000000; stroke-width: 0.8"/>
      </g>
     </g>
     <g id="text_19">
      <!-- 0.4 -->
      <g transform="translate(256.41071 456.238438) scale(0.1 -0.1)">
       <use xlink:href="#DejaVuSans-30"/>
       <use xlink:href="#DejaVuSans-2e" x="63.623047"/>
       <use xlink:href="#DejaVuSans-34" x="95.410156"/>
      </g>
     </g>
    </g>
    <g id="xtick_10">
     <g id="line2d_19">
      <g>
       <use xlink:href="#m75352a6371" x="356.927727" y="441.64" style="stroke: #000000; stroke-width: 0.8"/>
      </g>
     </g>
     <g id="text_20">
      <!-- 0.6 -->
      <g transform="translate(348.976165 456.238438) scale(0.1 -0.1)">
       <use xlink:href="#DejaVuSans-30"/>
       <use xlink:href="#DejaVuSans-2e" x="63.623047"/>
       <use xlink:href="#DejaVuSans-36" x="95.410156"/>
      </g>
     </g>
    </g>
    <g id="xtick_11">
     <g id="line2d_20">
      <g>
       <use xlink:href="#m75352a6371" x="449.493182" y="441.64" style="stroke: #000000; stroke-width: 0.8"/>
      </g>
     </g>
     <g id="text_21">
      <!-- 0.8 -->
      <g transform="translate(441.541619 456.238438) scale(0.1 -0.1)">
       <use xlink:href="#DejaVuSans-30"/>
       <use xlink:href="#DejaVuSans-2e" x="63.623047"/>
       <use xlink:href="#DejaVuSans-38" x="95.410156"/>
      </g>
     </g>
    </g>
    <g id="xtick_12">
     <g id="line2d_21">
      <g>
       <use xlink:href="#m75352a6371" x="542.058636" y="441.64" style="stroke: #000000; stroke-width: 0.8"/>
      </g>
     </g>
     <g id="text_22">
      <!-- 1.0 -->
      <g transform="translate(534.107074 456.238438) scale(0.1 -0.1)">
       <use xlink:href="#DejaVuSans-31"/>
       <use xlink:href="#DejaVuSans-2e" x="63.623047"/>
       <use xlink:href="#DejaVuSans-30" x="95.410156"/>
      </g>
     </g>
    </g>
    <g id="text_23">
     <!-- time in hours -->
     <g transform="translate(277.555937 469.916563) scale(0.1 -0.1)">
      <use xlink:href="#DejaVuSans-74"/>
      <use xlink:href="#DejaVuSans-69" x="39.208984"/>
      <use xlink:href="#DejaVuSans-6d" x="66.992188"/>
      <use xlink:href="#DejaVuSans-65" x="164.404297"/>
      <use xlink:href="#DejaVuSans-20" x="225.927734"/>
      <use xlink:href="#DejaVuSans-69" x="257.714844"/>
      <use xlink:href="#DejaVuSans-6e" x="285.498047"/>
      <use xlink:href="#DejaVuSans-20" x="348.876953"/>
      <use xlink:href="#DejaVuSans-68" x="380.664062"/>
      <use xlink:href="#DejaVuSans-6f" x="444.042969"/>
      <use xlink:href="#DejaVuSans-75" x="505.224609"/>
      <use xlink:href="#DejaVuSans-72" x="568.603516"/>
      <use xlink:href="#DejaVuSans-73" x="609.716797"/>
     </g>
    </g>
   </g>
   <g id="matplotlib.axis_4">
    <g id="ytick_6">
     <g id="line2d_22">
      <g>
       <use xlink:href="#ma95a17addc" x="56.09" y="433.532727" style="stroke: #000000; stroke-width: 0.8"/>
      </g>
     </g>
     <g id="text_24">
      <!-- 0 -->
      <g transform="translate(42.7275 437.331946) scale(0.1 -0.1)">
       <use xlink:href="#DejaVuSans-30"/>
      </g>
     </g>
    </g>
    <g id="ytick_7">
     <g id="line2d_23">
      <g>
       <use xlink:href="#ma95a17addc" x="56.09" y="394.206357" style="stroke: #000000; stroke-width: 0.8"/>
      </g>
     </g>
     <g id="text_25">
      <!-- 200 -->
      <g transform="translate(30.0025 398.005576) scale(0.1 -0.1)">
       <use xlink:href="#DejaVuSans-32"/>
       <use xlink:href="#DejaVuSans-30" x="63.623047"/>
       <use xlink:href="#DejaVuSans-30" x="127.246094"/>
      </g>
     </g>
    </g>
    <g id="ytick_8">
     <g id="line2d_24">
      <g>
       <use xlink:href="#ma95a17addc" x="56.09" y="354.879987" style="stroke: #000000; stroke-width: 0.8"/>
      </g>
     </g>
     <g id="text_26">
      <!-- 400 -->
      <g transform="translate(30.0025 358.679206) scale(0.1 -0.1)">
       <use xlink:href="#DejaVuSans-34"/>
       <use xlink:href="#DejaVuSans-30" x="63.623047"/>
       <use xlink:href="#DejaVuSans-30" x="127.246094"/>
      </g>
     </g>
    </g>
    <g id="ytick_9">
     <g id="line2d_25">
      <g>
       <use xlink:href="#ma95a17addc" x="56.09" y="315.553617" style="stroke: #000000; stroke-width: 0.8"/>
      </g>
     </g>
     <g id="text_27">
      <!-- 600 -->
      <g transform="translate(30.0025 319.352836) scale(0.1 -0.1)">
       <use xlink:href="#DejaVuSans-36"/>
       <use xlink:href="#DejaVuSans-30" x="63.623047"/>
       <use xlink:href="#DejaVuSans-30" x="127.246094"/>
      </g>
     </g>
    </g>
    <g id="ytick_10">
     <g id="line2d_26">
      <g>
       <use xlink:href="#ma95a17addc" x="56.09" y="276.227247" style="stroke: #000000; stroke-width: 0.8"/>
      </g>
     </g>
     <g id="text_28">
      <!-- 800 -->
      <g transform="translate(30.0025 280.026466) scale(0.1 -0.1)">
       <use xlink:href="#DejaVuSans-38"/>
       <use xlink:href="#DejaVuSans-30" x="63.623047"/>
       <use xlink:href="#DejaVuSans-30" x="127.246094"/>
      </g>
     </g>
    </g>
    <g id="text_29">
     <!-- thickness in nm -->
     <g transform="translate(23.922812 391.852188) rotate(-90) scale(0.1 -0.1)">
      <defs>
       <path id="DejaVuSans-6b" d="M 581 4863 
L 1159 4863 
L 1159 1991 
L 2875 3500 
L 3609 3500 
L 1753 1863 
L 3688 0 
L 2938 0 
L 1159 1709 
L 1159 0 
L 581 0 
L 581 4863 
z
" transform="scale(0.015625)"/>
      </defs>
      <use xlink:href="#DejaVuSans-74"/>
      <use xlink:href="#DejaVuSans-68" x="39.208984"/>
      <use xlink:href="#DejaVuSans-69" x="102.587891"/>
      <use xlink:href="#DejaVuSans-63" x="130.371094"/>
      <use xlink:href="#DejaVuSans-6b" x="185.351562"/>
      <use xlink:href="#DejaVuSans-6e" x="243.261719"/>
      <use xlink:href="#DejaVuSans-65" x="306.640625"/>
      <use xlink:href="#DejaVuSans-73" x="368.164062"/>
      <use xlink:href="#DejaVuSans-73" x="420.263672"/>
      <use xlink:href="#DejaVuSans-20" x="472.363281"/>
      <use xlink:href="#DejaVuSans-69" x="504.150391"/>
      <use xlink:href="#DejaVuSans-6e" x="531.933594"/>
      <use xlink:href="#DejaVuSans-20" x="595.3125"/>
      <use xlink:href="#DejaVuSans-6e" x="627.099609"/>
      <use xlink:href="#DejaVuSans-6d" x="690.478516"/>
     </g>
    </g>
   </g>
   <g id="line2d_27">
    <path d="M 79.231364 433.532727 
L 165.069003 408.105685 
L 184.788461 402.009982 
L 203.347951 396.033879 
L 225.387344 388.694218 
L 255.546515 378.40267 
L 320.504729 355.928501 
L 369.223389 338.927912 
L 386.622911 332.607068 
L 402.862464 326.466424 
L 424.901858 317.862425 
L 487.540136 293.053335 
L 542.058636 271.387273 
L 542.058636 271.387273 
" clip-path="url(#p741866e302)" style="fill: none; stroke: #1f77b4; stroke-width: 1.5; stroke-linecap: square"/>
   </g>
   <g id="line2d_28">
    <path d="M 79.231364 433.532727 
L 105.91063 426.010545 
L 122.150183 421.152458 
L 138.389737 416.06399 
L 154.62929 410.745076 
L 170.868844 405.195558 
L 187.108397 399.412455 
L 219.587504 387.730224 
L 230.027217 384.298889 
L 240.46693 381.090113 
L 249.746675 378.475233 
L 259.026419 376.08155 
L 269.466132 373.635719 
L 279.905845 371.432698 
L 290.345558 369.453451 
L 301.945239 367.494359 
L 313.54492 365.764633 
L 326.304569 364.099612 
L 339.064219 362.656094 
L 352.983836 361.303291 
L 368.063421 360.064444 
L 384.302974 358.955061 
L 401.702496 357.983017 
L 421.421954 357.103087 
L 443.461348 356.341596 
L 468.980646 355.684542 
L 499.139817 355.135782 
L 536.258796 354.692772 
L 542.058636 354.640506 
L 542.058636 354.640506 
" clip-path="url(#p741866e302)" style="fill: none; stroke: #ff7f0e; stroke-width: 1.5; stroke-linecap: square"/>
   </g>
   <g id="line2d_29">
    <path d="M 79.231364 433.532727 
L 103.590694 426.477015 
L 127.950024 419.653078 
L 152.309354 413.055486 
L 177.828652 406.38059 
L 203.347951 399.941953 
L 228.867249 393.733392 
L 254.386547 387.748759 
L 281.065813 381.724898 
L 307.74508 375.932188 
L 334.424346 370.363772 
L 362.263581 364.785048 
L 390.102815 359.435544 
L 417.942049 354.307745 
L 446.941252 349.194065 
L 475.940455 344.304691 
L 506.099625 339.449002 
L 536.258796 334.818271 
L 542.058636 333.952803 
L 542.058636 333.952803 
" clip-path="url(#p741866e302)" style="fill: none; stroke-dasharray: 5.55,2.4; stroke-dashoffset: 0; stroke: #2ca02c; stroke-width: 1.5"/>
   </g>
   <g id="patch_9">
    <path d="M 56.09 441.64 
L 56.09 263.28 
" style="fill: none; stroke: #000000; stroke-width: 0.8; stroke-linejoin: miter; stroke-linecap: square"/>
   </g>
   <g id="patch_10">
    <path d="M 565.2 441.64 
L 565.2 263.28 
" style="fill: none; stroke: #000000; stroke-width: 0.8; stroke-linejoin: miter; stroke-linecap: square"/>
   </g>
   <g id="patch_11">
    <path d="M 56.09 441.64 
L 565.2 441.64 
" style="fill: none; stroke: #000000; stroke-width: 0.8; stroke-linejoin: miter; stroke-linecap: square"/>
   </g>
   <g id="patch_12">
    <path d="M 56.09 263.28 
L 565.2 263.28 
" style="fill: none; stroke: #000000; stroke-width: 0.8; stroke-linejoin: miter; stroke-linecap: square"/>
   </g>
   <g id="text_30">
    <!-- Thickness -->
    <g transform="translate(280.991875 257.28) scale(0.12 -0.12)">
     <defs>
      <path id="DejaVuSans-54" d="M -19 4666 
L 3928 4666 
L 3928 4134 
L 2272 4134 
L 2272 0 
L 1638 0 
L 1638 4134 
L -19 4134 
L -19 4666 
z
" transform="scale(0.015625)"/>
     </defs>
     <use xlink:href="#DejaVuSans-54"/>
     <use xlink:href="#DejaVuSans-68" x="61.083984"/>
     <use xlink:href="#DejaVuSans-69" x="124.462891"/>
     <use xlink:href="#DejaVuSans-63" x="152.246094"/>
     <use xlink:href="#DejaVuSans-6b" x="207.226562"/>
     <use xlink:href="#DejaVuSans-6e" x="265.136719"/>
     <use xlink:href="#DejaVuSans-65" x="328.515625"/>
     <use xlink:href="#DejaVuSans-73" x="390.039062"/>
     <use xlink:href="#DejaVuSans-73" x="442.138672"/>
    </g>
   </g>
   <g id="legend_2">
    <g id="patch_13">
     <path d="M 428.353125 315.314375 
L 558.2 315.314375 
Q 560.2 315.314375 560.2 313.314375 
L 560.2 270.28 
Q 560.2 268.28 558.2 268.28 
L 428.353125 268.28 
Q 426.353125 268.28 426.353125 270.28 
L 426.353125 313.314375 
Q 426.353125 315.314375 428.353125 315.314375 
z
" style="fill: #ffffff; opacity: 0.8; stroke: #cccccc; stroke-linejoin: miter"/>
    </g>
    <g id="line2d_30">
     <path d="M 430.353125 276.378438 
L 440.353125 276.378438 
L 450.353125 276.378438 
" style="fill: none; stroke: #1f77b4; stroke-width: 1.5; stroke-linecap: square"/>
    </g>
    <g id="text_31">
     <!-- true thickness -->
     <g transform="translate(458.353125 279.878438) scale(0.1 -0.1)">
      <use xlink:href="#DejaVuSans-74"/>
      <use xlink:href="#DejaVuSans-72" x="39.208984"/>
      <use xlink:href="#DejaVuSans-75" x="80.322266"/>
      <use xlink:href="#DejaVuSans-65" x="143.701172"/>
      <use xlink:href="#DejaVuSans-20" x="205.224609"/>
      <use xlink:href="#DejaVuSans-74" x="237.011719"/>
      <use xlink:href="#DejaVuSans-68" x="276.220703"/>
      <use xlink:href="#DejaVuSans-69" x="339.599609"/>
      <use xlink:href="#DejaVuSans-63" x="367.382812"/>
      <use xlink:href="#DejaVuSans-6b" x="422.363281"/>
      <use xlink:href="#DejaVuSans-6e" x="480.273438"/>
      <use xlink:href="#DejaVuSans-65" x="543.652344"/>
      <use xlink:href="#DejaVuSans-73" x="605.175781"/>
      <use xlink:href="#DejaVuSans-73" x="657.275391"/>
     </g>
    </g>
    <g id="line2d_31">
     <path d="M 430.353125 291.056563 
L 440.353125 291.056563 
L 450.353125 291.056563 
" style="fill: none; stroke: #ff7f0e; stroke-width: 1.5; stroke-linecap: square"/>
    </g>
    <g id="text_32">
     <!-- predicted thickness -->
     <g transform="translate(458.353125 294.556563) scale(0.1 -0.1)">
      <use xlink:href="#DejaVuSans-70"/>
      <use xlink:href="#DejaVuSans-72" x="63.476562"/>
      <use xlink:href="#DejaVuSans-65" x="102.339844"/>
      <use xlink:href="#DejaVuSans-64" x="163.863281"/>
      <use xlink:href="#DejaVuSans-69" x="227.339844"/>
      <use xlink:href="#DejaVuSans-63" x="255.123047"/>
      <use xlink:href="#DejaVuSans-74" x="310.103516"/>
      <use xlink:href="#DejaVuSans-65" x="349.3125"/>
      <use xlink:href="#DejaVuSans-64" x="410.835938"/>
      <use xlink:href="#DejaVuSans-20" x="474.3125"/>
      <use xlink:href="#DejaVuSans-74" x="506.099609"/>
      <use xlink:href="#DejaVuSans-68" x="545.308594"/>
      <use xlink:href="#DejaVuSans-69" x="608.6875"/>
      <use xlink:href="#DejaVuSans-63" x="636.470703"/>
      <use xlink:href="#DejaVuSans-6b" x="691.451172"/>
      <use xlink:href="#DejaVuSans-6e" x="749.361328"/>
      <use xlink:href="#DejaVuSans-65" x="812.740234"/>
      <use xlink:href="#DejaVuSans-73" x="874.263672"/>
      <use xlink:href="#DejaVuSans-73" x="926.363281"/>
     </g>
    </g>
    <g id="line2d_32">
     <path d="M 430.353125 305.734688 
L 440.353125 305.734688 
L 450.353125 305.734688 
" style="fill: none; stroke-dasharray: 5.55,2.4; stroke-dashoffset: 0; stroke: #2ca02c; stroke-width: 1.5"/>
    </g>
    <g id="text_33">
     <!-- initial prediction -->
     <g transform="translate(458.353125 309.234688) scale(0.1 -0.1)">
      <use xlink:href="#DejaVuSans-69"/>
      <use xlink:href="#DejaVuSans-6e" x="27.783203"/>
      <use xlink:href="#DejaVuSans-69" x="91.162109"/>
      <use xlink:href="#DejaVuSans-74" x="118.945312"/>
      <use xlink:href="#DejaVuSans-69" x="158.154297"/>
      <use xlink:href="#DejaVuSans-61" x="185.9375"/>
      <use xlink:href="#DejaVuSans-6c" x="247.216797"/>
      <use xlink:href="#DejaVuSans-20" x="275"/>
      <use xlink:href="#DejaVuSans-70" x="306.787109"/>
      <use xlink:href="#DejaVuSans-72" x="370.263672"/>
      <use xlink:href="#DejaVuSans-65" x="409.126953"/>
      <use xlink:href="#DejaVuSans-64" x="470.650391"/>
      <use xlink:href="#DejaVuSans-69" x="534.126953"/>
      <use xlink:href="#DejaVuSans-63" x="561.910156"/>
      <use xlink:href="#DejaVuSans-74" x="616.890625"/>
      <use xlink:href="#DejaVuSans-69" x="656.099609"/>
      <use xlink:href="#DejaVuSans-6f" x="683.882812"/>
      <use xlink:href="#DejaVuSans-6e" x="745.064453"/>
     </g>
    </g>
   </g>
  </g>
  <g id="axes_3">
   <g id="patch_14">
    <path d="M 56.09 678.04 
L 565.2 678.04 
L 565.2 499.68 
L 56.09 499.68 
z
" style="fill: #ffffff"/>
   </g>
   <g id="matplotlib.axis_5">
    <g id="xtick_13">
     <g id="line2d_33">
      <g>
       <use xlink:href="#m75352a6371" x="79.231364" y="678.04" style="stroke: #000000; stroke-width: 0.8"/>
      </g>
     </g>
     <g id="text_34">
      <!-- 0.0 -->
      <g transform="translate(71.279801 692.638438) scale(0.1 -0.1)">
       <use xlink:href="#DejaVuSans-30"/>
       <use xlink:href="#DejaVuSans-2e" x="63.623047"/>
       <use xlink:href="#DejaVuSans-30" x="95.410156"/>
      </g>
     </g>
    </g>
    <g id="xtick_14">
     <g id="line2d_34">
      <g>
       <use xlink:href="#m75352a6371" x="171.796818" y="678.04" style="stroke: #000000; stroke-width: 0.8"/>
      </g>
     </g>
     <g id="text_35">
      <!-- 0.2 -->
      <g transform="translate(163.845256 692.638438) scale(0.1 -0.1)">
       <use xlink:href="#DejaVuSans-30"/>
       <use xlink:href="#DejaVuSans-2e" x="63.623047"/>
       <use xlink:href="#DejaVuSans-32" x="95.410156"/>
      </g>
     </g>
    </g>
    <g id="xtick_15">
     <g id="line2d_35">
      <g>
       <use xlink:href="#m75352a6371" x="264.362273" y="678.04" style="stroke: #000000; stroke-width: 0.8"/>
      </g>
     </g>
     <g id="text_36">
      <!-- 0.4 -->
      <g transform="translate(256.41071 692.638438) scale(0.1 -0.1)">
       <use xlink:href="#DejaVuSans-30"/>
       <use xlink:href="#DejaVuSans-2e" x="63.623047"/>
       <use xlink:href="#DejaVuSans-34" x="95.410156"/>
      </g>
     </g>
    </g>
    <g id="xtick_16">
     <g id="line2d_36">
      <g>
       <use xlink:href="#m75352a6371" x="356.927727" y="678.04" style="stroke: #000000; stroke-width: 0.8"/>
      </g>
     </g>
     <g id="text_37">
      <!-- 0.6 -->
      <g transform="translate(348.976165 692.638438) scale(0.1 -0.1)">
       <use xlink:href="#DejaVuSans-30"/>
       <use xlink:href="#DejaVuSans-2e" x="63.623047"/>
       <use xlink:href="#DejaVuSans-36" x="95.410156"/>
      </g>
     </g>
    </g>
    <g id="xtick_17">
     <g id="line2d_37">
      <g>
       <use xlink:href="#m75352a6371" x="449.493182" y="678.04" style="stroke: #000000; stroke-width: 0.8"/>
      </g>
     </g>
     <g id="text_38">
      <!-- 0.8 -->
      <g transform="translate(441.541619 692.638438) scale(0.1 -0.1)">
       <use xlink:href="#DejaVuSans-30"/>
       <use xlink:href="#DejaVuSans-2e" x="63.623047"/>
       <use xlink:href="#DejaVuSans-38" x="95.410156"/>
      </g>
     </g>
    </g>
    <g id="xtick_18">
     <g id="line2d_38">
      <g>
       <use xlink:href="#m75352a6371" x="542.058636" y="678.04" style="stroke: #000000; stroke-width: 0.8"/>
      </g>
     </g>
     <g id="text_39">
      <!-- 1.0 -->
      <g transform="translate(534.107074 692.638438) scale(0.1 -0.1)">
       <use xlink:href="#DejaVuSans-31"/>
       <use xlink:href="#DejaVuSans-2e" x="63.623047"/>
       <use xlink:href="#DejaVuSans-30" x="95.410156"/>
      </g>
     </g>
    </g>
    <g id="text_40">
     <!-- time in hours -->
     <g transform="translate(277.555937 706.316563) scale(0.1 -0.1)">
      <use xlink:href="#DejaVuSans-74"/>
      <use xlink:href="#DejaVuSans-69" x="39.208984"/>
      <use xlink:href="#DejaVuSans-6d" x="66.992188"/>
      <use xlink:href="#DejaVuSans-65" x="164.404297"/>
      <use xlink:href="#DejaVuSans-20" x="225.927734"/>
      <use xlink:href="#DejaVuSans-69" x="257.714844"/>
      <use xlink:href="#DejaVuSans-6e" x="285.498047"/>
      <use xlink:href="#DejaVuSans-20" x="348.876953"/>
      <use xlink:href="#DejaVuSans-68" x="380.664062"/>
      <use xlink:href="#DejaVuSans-6f" x="444.042969"/>
      <use xlink:href="#DejaVuSans-75" x="505.224609"/>
      <use xlink:href="#DejaVuSans-72" x="568.603516"/>
      <use xlink:href="#DejaVuSans-73" x="609.716797"/>
     </g>
    </g>
   </g>
   <g id="matplotlib.axis_6">
    <g id="ytick_11">
     <g id="line2d_39">
      <g>
       <use xlink:href="#ma95a17addc" x="56.09" y="673.552081" style="stroke: #000000; stroke-width: 0.8"/>
      </g>
     </g>
     <g id="text_41">
      <!-- 0 -->
      <g transform="translate(42.7275 677.3513) scale(0.1 -0.1)">
       <use xlink:href="#DejaVuSans-30"/>
      </g>
     </g>
    </g>
    <g id="ytick_12">
     <g id="line2d_40">
      <g>
       <use xlink:href="#ma95a17addc" x="56.09" y="638.144191" style="stroke: #000000; stroke-width: 0.8"/>
      </g>
     </g>
     <g id="text_42">
      <!-- 200 -->
      <g transform="translate(30.0025 641.943409) scale(0.1 -0.1)">
       <use xlink:href="#DejaVuSans-32"/>
       <use xlink:href="#DejaVuSans-30" x="63.623047"/>
       <use xlink:href="#DejaVuSans-30" x="127.246094"/>
      </g>
     </g>
    </g>
    <g id="ytick_13">
     <g id="line2d_41">
      <g>
       <use xlink:href="#ma95a17addc" x="56.09" y="602.7363" style="stroke: #000000; stroke-width: 0.8"/>
      </g>
     </g>
     <g id="text_43">
      <!-- 400 -->
      <g transform="translate(30.0025 606.535519) scale(0.1 -0.1)">
       <use xlink:href="#DejaVuSans-34"/>
       <use xlink:href="#DejaVuSans-30" x="63.623047"/>
       <use xlink:href="#DejaVuSans-30" x="127.246094"/>
      </g>
     </g>
    </g>
    <g id="ytick_14">
     <g id="line2d_42">
      <g>
       <use xlink:href="#ma95a17addc" x="56.09" y="567.32841" style="stroke: #000000; stroke-width: 0.8"/>
      </g>
     </g>
     <g id="text_44">
      <!-- 600 -->
      <g transform="translate(30.0025 571.127629) scale(0.1 -0.1)">
       <use xlink:href="#DejaVuSans-36"/>
       <use xlink:href="#DejaVuSans-30" x="63.623047"/>
       <use xlink:href="#DejaVuSans-30" x="127.246094"/>
      </g>
     </g>
    </g>
    <g id="ytick_15">
     <g id="line2d_43">
      <g>
       <use xlink:href="#ma95a17addc" x="56.09" y="531.92052" style="stroke: #000000; stroke-width: 0.8"/>
      </g>
     </g>
     <g id="text_45">
      <!-- 800 -->
      <g transform="translate(30.0025 535.719738) scale(0.1 -0.1)">
       <use xlink:href="#DejaVuSans-38"/>
       <use xlink:href="#DejaVuSans-30" x="63.623047"/>
       <use xlink:href="#DejaVuSans-30" x="127.246094"/>
      </g>
     </g>
    </g>
    <g id="text_46">
     <!-- growth rate in nm/h -->
     <g transform="translate(23.922812 638.627969) rotate(-90) scale(0.1 -0.1)">
      <defs>
       <path id="DejaVuSans-67" d="M 2906 1791 
Q 2906 2416 2648 2759 
Q 2391 3103 1925 3103 
Q 1463 3103 1205 2759 
Q 947 2416 947 1791 
Q 947 1169 1205 825 
Q 1463 481 1925 481 
Q 2391 481 2648 825 
Q 2906 1169 2906 1791 
z
M 3481 434 
Q 3481 -459 3084 -895 
Q 2688 -1331 1869 -1331 
Q 1566 -1331 1297 -1286 
Q 1028 -1241 775 -1147 
L 775 -588 
Q 1028 -725 1275 -790 
Q 1522 -856 1778 -856 
Q 2344 -856 2625 -561 
Q 2906 -266 2906 331 
L 2906 616 
Q 2728 306 2450 153 
Q 2172 0 1784 0 
Q 1141 0 747 490 
Q 353 981 353 1791 
Q 353 2603 747 3093 
Q 1141 3584 1784 3584 
Q 2172 3584 2450 3431 
Q 2728 3278 2906 2969 
L 2906 3500 
L 3481 3500 
L 3481 434 
z
" transform="scale(0.015625)"/>
       <path id="DejaVuSans-77" d="M 269 3500 
L 844 3500 
L 1563 769 
L 2278 3500 
L 2956 3500 
L 3675 769 
L 4391 3500 
L 4966 3500 
L 4050 0 
L 3372 0 
L 2619 2869 
L 1863 0 
L 1184 0 
L 269 3500 
z
" transform="scale(0.015625)"/>
       <path id="DejaVuSans-2f" d="M 1625 4666 
L 2156 4666 
L 531 -594 
L 0 -594 
L 1625 4666 
z
" transform="scale(0.015625)"/>
      </defs>
      <use xlink:href="#DejaVuSans-67"/>
      <use xlink:href="#DejaVuSans-72" x="63.476562"/>
      <use xlink:href="#DejaVuSans-6f" x="102.339844"/>
      <use xlink:href="#DejaVuSans-77" x="163.521484"/>
      <use xlink:href="#DejaVuSans-74" x="245.308594"/>
      <use xlink:href="#DejaVuSans-68" x="284.517578"/>
      <use xlink:href="#DejaVuSans-20" x="347.896484"/>
      <use xlink:href="#DejaVuSans-72" x="379.683594"/>
      <use xlink:href="#DejaVuSans-61" x="420.796875"/>
      <use xlink:href="#DejaVuSans-74" x="482.076172"/>
      <use xlink:href="#DejaVuSans-65" x="521.285156"/>
      <use xlink:href="#DejaVuSans-20" x="582.808594"/>
      <use xlink:href="#DejaVuSans-69" x="614.595703"/>
      <use xlink:href="#DejaVuSans-6e" x="642.378906"/>
      <use xlink:href="#DejaVuSans-20" x="705.757812"/>
      <use xlink:href="#DejaVuSans-6e" x="737.544922"/>
      <use xlink:href="#DejaVuSans-6d" x="800.923828"/>
      <use xlink:href="#DejaVuSans-2f" x="898.335938"/>
      <use xlink:href="#DejaVuSans-68" x="932.027344"/>
     </g>
    </g>
   </g>
   <g id="line2d_44">
    <path d="M 79.231364 550.637871 
L 127.950024 550.444815 
L 139.549705 550.201191 
L 146.509514 549.852413 
L 152.309354 549.343515 
L 156.949226 548.747401 
L 161.589099 547.965427 
L 167.388939 546.736065 
L 173.18878 545.274006 
L 181.308557 542.983948 
L 196.388142 538.699924 
L 203.347951 536.963566 
L 210.307759 535.45617 
L 217.267568 534.180372 
L 224.227376 533.112408 
L 232.347153 532.08553 
L 241.626898 531.149461 
L 250.906643 530.433911 
L 261.346356 529.872147 
L 272.946037 529.50299 
L 288.025622 529.275167 
L 344.864059 528.644975 
L 350.6639 528.294891 
L 355.303772 527.8356 
L 359.943644 527.16135 
L 364.583517 526.237241 
L 369.223389 525.056922 
L 373.863262 523.643048 
L 379.663102 521.618048 
L 390.102815 517.641584 
L 397.062624 515.09826 
L 402.862464 513.236935 
L 407.502337 511.986278 
L 412.142209 510.974089 
L 416.782081 510.200348 
L 421.421954 509.639851 
L 427.221794 509.174855 
L 434.181603 508.845443 
L 444.621316 508.586647 
L 466.66071 508.323396 
L 526.979051 507.86888 
L 542.058636 507.787273 
L 542.058636 507.787273 
" clip-path="url(#p3524187bdf)" style="fill: none; stroke: #1f77b4; stroke-width: 1.5; stroke-linecap: square"/>
   </g>
   <g id="line2d_45">
    <path d="M 79.231364 557.615472 
L 82.711268 557.790226 
L 87.35114 557.731966 
L 89.671077 557.432217 
L 91.991013 556.948418 
L 95.470917 555.912945 
L 101.270758 553.828573 
L 104.750662 552.489526 
L 111.71047 549.696833 
L 127.950024 543.829325 
L 148.82945 536.230306 
L 167.388939 529.44033 
L 183.628493 523.467081 
L 189.428333 521.611741 
L 194.068206 520.348313 
L 195.228174 520.084676 
L 196.388142 520.005931 
L 197.54811 520.090927 
L 201.028014 521.23178 
L 207.987823 523.737162 
L 209.147791 524.287978 
L 211.467727 525.875976 
L 216.1076 529.559067 
L 234.667089 544.659143 
L 235.827057 545.703157 
L 238.146994 548.293932 
L 245.106802 556.156832 
L 252.066611 563.665239 
L 259.026419 570.820806 
L 265.986228 577.626593 
L 272.946037 584.087022 
L 279.905845 590.207981 
L 286.865654 595.996224 
L 293.825463 601.459507 
L 300.785271 606.606746 
L 307.74508 611.447704 
L 314.704888 615.992871 
L 321.664697 620.253328 
L 328.624506 624.24062 
L 335.584314 627.966632 
L 342.544123 631.443469 
L 349.503931 634.683341 
L 356.46374 637.698465 
L 363.423549 640.500966 
L 371.543325 643.517754 
L 379.663102 646.279958 
L 387.782879 648.805554 
L 395.902656 651.111837 
L 405.1824 653.50013 
L 414.462145 655.646537 
L 423.74189 657.572501 
L 434.181603 659.50224 
L 444.621316 661.206998 
L 456.220997 662.866895 
L 467.820678 664.309351 
L 480.580327 665.677041 
L 494.499944 666.943505 
L 509.57953 668.0902 
L 525.819083 669.105854 
L 542.058636 669.932727 
L 542.058636 669.932727 
" clip-path="url(#p3524187bdf)" style="fill: none; stroke: #ff7f0e; stroke-width: 1.5; stroke-linecap: square"/>
   </g>
   <g id="line2d_46">
    <path d="M 79.231364 550.837684 
L 117.510311 557.099627 
L 155.789258 563.132233 
L 194.068206 568.936391 
L 232.347153 574.513575 
L 270.6261 579.865823 
L 308.905048 584.995723 
L 347.183995 589.906381 
L 386.622911 594.740347 
L 426.061826 599.349849 
L 465.500742 603.739801 
L 506.099625 608.035172 
L 542.058636 611.65508 
L 542.058636 611.65508 
" clip-path="url(#p3524187bdf)" style="fill: none; stroke-dasharray: 5.55,2.4; stroke-dashoffset: 0; stroke: #2ca02c; stroke-width: 1.5"/>
   </g>
   <g id="patch_15">
    <path d="M 56.09 678.04 
L 56.09 499.68 
" style="fill: none; stroke: #000000; stroke-width: 0.8; stroke-linejoin: miter; stroke-linecap: square"/>
   </g>
   <g id="patch_16">
    <path d="M 565.2 678.04 
L 565.2 499.68 
" style="fill: none; stroke: #000000; stroke-width: 0.8; stroke-linejoin: miter; stroke-linecap: square"/>
   </g>
   <g id="patch_17">
    <path d="M 56.09 678.04 
L 565.2 678.04 
" style="fill: none; stroke: #000000; stroke-width: 0.8; stroke-linejoin: miter; stroke-linecap: square"/>
   </g>
   <g id="patch_18">
    <path d="M 56.09 499.68 
L 565.2 499.68 
" style="fill: none; stroke: #000000; stroke-width: 0.8; stroke-linejoin: miter; stroke-linecap: square"/>
   </g>
   <g id="text_47">
    <!-- Growth Rate -->
    <g transform="translate(273.269687 493.68) scale(0.12 -0.12)">
     <defs>
      <path id="DejaVuSans-47" d="M 3809 666 
L 3809 1919 
L 2778 1919 
L 2778 2438 
L 4434 2438 
L 4434 434 
Q 4069 175 3628 42 
Q 3188 -91 2688 -91 
Q 1594 -91 976 548 
Q 359 1188 359 2328 
Q 359 3472 976 4111 
Q 1594 4750 2688 4750 
Q 3144 4750 3555 4637 
Q 3966 4525 4313 4306 
L 4313 3634 
Q 3963 3931 3569 4081 
Q 3175 4231 2741 4231 
Q 1884 4231 1454 3753 
Q 1025 3275 1025 2328 
Q 1025 1384 1454 906 
Q 1884 428 2741 428 
Q 3075 428 3337 486 
Q 3600 544 3809 666 
z
" transform="scale(0.015625)"/>
     </defs>
     <use xlink:href="#DejaVuSans-47"/>
     <use xlink:href="#DejaVuSans-72" x="77.490234"/>
     <use xlink:href="#DejaVuSans-6f" x="116.353516"/>
     <use xlink:href="#DejaVuSans-77" x="177.535156"/>
     <use xlink:href="#DejaVuSans-74" x="259.322266"/>
     <use xlink:href="#DejaVuSans-68" x="298.53125"/>
     <use xlink:href="#DejaVuSans-20" x="361.910156"/>
     <use xlink:href="#DejaVuSans-52" x="393.697266"/>
     <use xlink:href="#DejaVuSans-61" x="460.929688"/>
     <use xlink:href="#DejaVuSans-74" x="522.208984"/>
     <use xlink:href="#DejaVuSans-65" x="561.417969"/>
    </g>
   </g>
   <g id="legend_3">
    <g id="patch_19">
     <path d="M 417.307812 673.04 
L 558.2 673.04 
Q 560.2 673.04 560.2 671.04 
L 560.2 628.005625 
Q 560.2 626.005625 558.2 626.005625 
L 417.307812 626.005625 
Q 415.307812 626.005625 415.307812 628.005625 
L 415.307812 671.04 
Q 415.307812 673.04 417.307812 673.04 
z
" style="fill: #ffffff; opacity: 0.8; stroke: #cccccc; stroke-linejoin: miter"/>
    </g>
    <g id="line2d_47">
     <path d="M 419.307812 634.104063 
L 429.307812 634.104063 
L 439.307812 634.104063 
" style="fill: none; stroke: #1f77b4; stroke-width: 1.5; stroke-linecap: square"/>
    </g>
    <g id="text_48">
     <!-- true growth rate -->
     <g transform="translate(447.307812 637.604063) scale(0.1 -0.1)">
      <use xlink:href="#DejaVuSans-74"/>
      <use xlink:href="#DejaVuSans-72" x="39.208984"/>
      <use xlink:href="#DejaVuSans-75" x="80.322266"/>
      <use xlink:href="#DejaVuSans-65" x="143.701172"/>
      <use xlink:href="#DejaVuSans-20" x="205.224609"/>
      <use xlink:href="#DejaVuSans-67" x="237.011719"/>
      <use xlink:href="#DejaVuSans-72" x="300.488281"/>
      <use xlink:href="#DejaVuSans-6f" x="339.351562"/>
      <use xlink:href="#DejaVuSans-77" x="400.533203"/>
      <use xlink:href="#DejaVuSans-74" x="482.320312"/>
      <use xlink:href="#DejaVuSans-68" x="521.529297"/>
      <use xlink:href="#DejaVuSans-20" x="584.908203"/>
      <use xlink:href="#DejaVuSans-72" x="616.695312"/>
      <use xlink:href="#DejaVuSans-61" x="657.808594"/>
      <use xlink:href="#DejaVuSans-74" x="719.087891"/>
      <use xlink:href="#DejaVuSans-65" x="758.296875"/>
     </g>
    </g>
    <g id="line2d_48">
     <path d="M 419.307812 648.782187 
L 429.307812 648.782187 
L 439.307812 648.782187 
" style="fill: none; stroke: #ff7f0e; stroke-width: 1.5; stroke-linecap: square"/>
    </g>
    <g id="text_49">
     <!-- predicted growth rate -->
     <g transform="translate(447.307812 652.282187) scale(0.1 -0.1)">
      <use xlink:href="#DejaVuSans-70"/>
      <use xlink:href="#DejaVuSans-72" x="63.476562"/>
      <use xlink:href="#DejaVuSans-65" x="102.339844"/>
      <use xlink:href="#DejaVuSans-64" x="163.863281"/>
      <use xlink:href="#DejaVuSans-69" x="227.339844"/>
      <use xlink:href="#DejaVuSans-63" x="255.123047"/>
      <use xlink:href="#DejaVuSans-74" x="310.103516"/>
      <use xlink:href="#DejaVuSans-65" x="349.3125"/>
      <use xlink:href="#DejaVuSans-64" x="410.835938"/>
      <use xlink:href="#DejaVuSans-20" x="474.3125"/>
      <use xlink:href="#DejaVuSans-67" x="506.099609"/>
      <use xlink:href="#DejaVuSans-72" x="569.576172"/>
      <use xlink:href="#DejaVuSans-6f" x="608.439453"/>
      <use xlink:href="#DejaVuSans-77" x="669.621094"/>
      <use xlink:href="#DejaVuSans-74" x="751.408203"/>
      <use xlink:href="#DejaVuSans-68" x="790.617188"/>
      <use xlink:href="#DejaVuSans-20" x="853.996094"/>
      <use xlink:href="#DejaVuSans-72" x="885.783203"/>
      <use xlink:href="#DejaVuSans-61" x="926.896484"/>
      <use xlink:href="#DejaVuSans-74" x="988.175781"/>
      <use xlink:href="#DejaVuSans-65" x="1027.384766"/>
     </g>
    </g>
    <g id="line2d_49">
     <path d="M 419.307812 663.460312 
L 429.307812 663.460312 
L 439.307812 663.460312 
" style="fill: none; stroke-dasharray: 5.55,2.4; stroke-dashoffset: 0; stroke: #2ca02c; stroke-width: 1.5"/>
    </g>
    <g id="text_50">
     <!-- initial prediction -->
     <g transform="translate(447.307812 666.960312) scale(0.1 -0.1)">
      <use xlink:href="#DejaVuSans-69"/>
      <use xlink:href="#DejaVuSans-6e" x="27.783203"/>
      <use xlink:href="#DejaVuSans-69" x="91.162109"/>
      <use xlink:href="#DejaVuSans-74" x="118.945312"/>
      <use xlink:href="#DejaVuSans-69" x="158.154297"/>
      <use xlink:href="#DejaVuSans-61" x="185.9375"/>
      <use xlink:href="#DejaVuSans-6c" x="247.216797"/>
      <use xlink:href="#DejaVuSans-20" x="275"/>
      <use xlink:href="#DejaVuSans-70" x="306.787109"/>
      <use xlink:href="#DejaVuSans-72" x="370.263672"/>
      <use xlink:href="#DejaVuSans-65" x="409.126953"/>
      <use xlink:href="#DejaVuSans-64" x="470.650391"/>
      <use xlink:href="#DejaVuSans-69" x="534.126953"/>
      <use xlink:href="#DejaVuSans-63" x="561.910156"/>
      <use xlink:href="#DejaVuSans-74" x="616.890625"/>
      <use xlink:href="#DejaVuSans-69" x="656.099609"/>
      <use xlink:href="#DejaVuSans-6f" x="683.882812"/>
      <use xlink:href="#DejaVuSans-6e" x="745.064453"/>
     </g>
    </g>
   </g>
  </g>
 </g>
 <defs>
  <clipPath id="p253175cba4">
   <rect x="56.09" y="26.88" width="509.11" height="178.36"/>
  </clipPath>
  <clipPath id="p741866e302">
   <rect x="56.09" y="263.28" width="509.11" height="178.36"/>
  </clipPath>
  <clipPath id="p3524187bdf">
   <rect x="56.09" y="499.68" width="509.11" height="178.36"/>
  </clipPath>
 </defs>
</svg>
