<?xml version="1.0" encoding="utf-8" standalone="no"?>
<!DOCTYPE svg PUBLIC "-//W3C//DTD SVG 1.1//EN"
  "http://www.w3.org/Graphics/SVG/1.1/DTD/svg11.dtd">
<svg xmlns:xlink="http://www.w3.org/1999/xlink" width="576pt" height="720pt" viewBox="0 0 576 720" xmlns="http://www.w3.org/2000/svg" version="1.1">
 <metadata>
  <rdf:RDF xmlns:dc="http://purl.org/dc/elements/1.1/" xmlns:cc="http://creativecommons.org/ns#" xmlns:rdf="http://www.w3.org/1999/02/22-rdf-syntax-ns#">
   <cc:Work>
    <dc:type rdf:resource="http://purl.org/dc/dcmitype/StillImage"/>
    <dc:date>2025-05-12T10:35:42.147913</dc:date>
    <dc:format>image/svg+xml</dc:format>
    <dc:creator>
     <cc:Agent>
      <dc:title>Matplotlib v3.9.2, https://matplotlib.org/</dc:title>
     </cc:Agent>
    </dc:creator>
   </cc:Work>
  </rdf:RDF>
 </metadata>
 <defs>
  <style type="text/css">*{stroke-linejoin: round; stroke-linecap: butt}</style>
 </defs>
 <g id="figure_1">
  <g id="patch_1">
   <path d="M 0 720 
L 576 720 
L 576 0 
L 0 0 
z
" style="fill: #ffffff"/>
  </g>
  <g id="axes_1">
   <g id="patch_2">
    <path d="M 57.17 205.24 
L 565.2 205.24 
L 565.2 26.88 
L 57.17 26.88 
z
" style="fill: #ffffff"/>
   </g>
   <g id="matplotlib.axis_1">
    <g id="xtick_1">
     <g id="line2d_1">
      <defs>
       <path id="m642534d9cb" d="M 0 0 
L 0 3.5 
" style="stroke: #000000; stroke-width: 0.8"/>
      </defs>
      <g>
       <use xlink:href="#m642534d9cb" x="80.262273" y="205.24" style="stroke: #000000; stroke-width: 0.8"/>
      </g>
     </g>
     <g id="text_1">
      <!-- 0.0 -->
      <g transform="translate(72.31071 219.838437) scale(0.1 -0.1)">
       <defs>
        <path id="DejaVuSans-30" d="M 2034 4250 
Q 1547 4250 1301 3770 
Q 1056 3291 1056 2328 
Q 1056 1369 1301 889 
Q 1547 409 2034 409 
Q 2525 409 2770 889 
Q 3016 1369 3016 2328 
Q 3016 3291 2770 3770 
Q 2525 4250 2034 4250 
z
M 2034 4750 
Q 2819 4750 3233 4129 
Q 3647 3509 3647 2328 
Q 3647 1150 3233 529 
Q 2819 -91 2034 -91 
Q 1250 -91 836 529 
Q 422 1150 422 2328 
Q 422 3509 836 4129 
Q 1250 4750 2034 4750 
z
" transform="scale(0.015625)"/>
        <path id="DejaVuSans-2e" d="M 684 794 
L 1344 794 
L 1344 0 
L 684 0 
L 684 794 
z
" transform="scale(0.015625)"/>
       </defs>
       <use xlink:href="#DejaVuSans-30"/>
       <use xlink:href="#DejaVuSans-2e" x="63.623047"/>
       <use xlink:href="#DejaVuSans-30" x="95.410156"/>
      </g>
     </g>
    </g>
    <g id="xtick_2">
     <g id="line2d_2">
      <g>
       <use xlink:href="#m642534d9cb" x="172.631364" y="205.24" style="stroke: #000000; stroke-width: 0.8"/>
      </g>
     </g>
     <g id="text_2">
      <!-- 0.2 -->
      <g transform="translate(164.679801 219.838437) scale(0.1 -0.1)">
       <defs>
        <path id="DejaVuSans-32" d="M 1228 531 
L 3431 531 
L 3431 0 
L 469 0 
L 469 531 
Q 828 903 1448 1529 
Q 2069 2156 2228 2338 
Q 2531 2678 2651 2914 
Q 2772 3150 2772 3378 
Q 2772 3750 2511 3984 
Q 2250 4219 1831 4219 
Q 1534 4219 1204 4116 
Q 875 4013 500 3803 
L 500 4441 
Q 881 4594 1212 4672 
Q 1544 4750 1819 4750 
Q 2544 4750 2975 4387 
Q 3406 4025 3406 3419 
Q 3406 3131 3298 2873 
Q 3191 2616 2906 2266 
Q 2828 2175 2409 1742 
Q 1991 1309 1228 531 
z
" transform="scale(0.015625)"/>
       </defs>
       <use xlink:href="#DejaVuSans-30"/>
       <use xlink:href="#DejaVuSans-2e" x="63.623047"/>
       <use xlink:href="#DejaVuSans-32" x="95.410156"/>
      </g>
     </g>
    </g>
    <g id="xtick_3">
     <g id="line2d_3">
      <g>
       <use xlink:href="#m642534d9cb" x="265.000455" y="205.24" style="stroke: #000000; stroke-width: 0.8"/>
      </g>
     </g>
     <g id="text_3">
      <!-- 0.4 -->
      <g transform="translate(257.048892 219.838437) scale(0.1 -0.1)">
       <defs>
        <path id="DejaVuSans-34" d="M 2419 4116 
L 825 1625 
L 2419 1625 
L 2419 4116 
z
M 2253 4666 
L 3047 4666 
L 3047 1625 
L 3713 1625 
L 3713 1100 
L 3047 1100 
L 3047 0 
L 2419 0 
L 2419 1100 
L 313 1100 
L 313 1709 
L 2253 4666 
z
" transform="scale(0.015625)"/>
       </defs>
       <use xlink:href="#DejaVuSans-30"/>
       <use xlink:href="#DejaVuSans-2e" x="63.623047"/>
       <use xlink:href="#DejaVuSans-34" x="95.410156"/>
      </g>
     </g>
    </g>
    <g id="xtick_4">
     <g id="line2d_4">
      <g>
       <use xlink:href="#m642534d9cb" x="357.369545" y="205.24" style="stroke: #000000; stroke-width: 0.8"/>
      </g>
     </g>
     <g id="text_4">
      <!-- 0.6 -->
      <g transform="translate(349.417983 219.838437) scale(0.1 -0.1)">
       <defs>
        <path id="DejaVuSans-36" d="M 2113 2584 
Q 1688 2584 1439 2293 
Q 1191 2003 1191 1497 
Q 1191 994 1439 701 
Q 1688 409 2113 409 
Q 2538 409 2786 701 
Q 3034 994 3034 1497 
Q 3034 2003 2786 2293 
Q 2538 2584 2113 2584 
z
M 3366 4563 
L 3366 3988 
Q 3128 4100 2886 4159 
Q 2644 4219 2406 4219 
Q 1781 4219 1451 3797 
Q 1122 3375 1075 2522 
Q 1259 2794 1537 2939 
Q 1816 3084 2150 3084 
Q 2853 3084 3261 2657 
Q 3669 2231 3669 1497 
Q 3669 778 3244 343 
Q 2819 -91 2113 -91 
Q 1303 -91 875 529 
Q 447 1150 447 2328 
Q 447 3434 972 4092 
Q 1497 4750 2381 4750 
Q 2619 4750 2861 4703 
Q 3103 4656 3366 4563 
z
" transform="scale(0.015625)"/>
       </defs>
       <use xlink:href="#DejaVuSans-30"/>
       <use xlink:href="#DejaVuSans-2e" x="63.623047"/>
       <use xlink:href="#DejaVuSans-36" x="95.410156"/>
      </g>
     </g>
    </g>
    <g id="xtick_5">
     <g id="line2d_5">
      <g>
       <use xlink:href="#m642534d9cb" x="449.738636" y="205.24" style="stroke: #000000; stroke-width: 0.8"/>
      </g>
     </g>
     <g id="text_5">
      <!-- 0.8 -->
      <g transform="translate(441.787074 219.838437) scale(0.1 -0.1)">
       <defs>
        <path id="DejaVuSans-38" d="M 2034 2216 
Q 1584 2216 1326 1975 
Q 1069 1734 1069 1313 
Q 1069 891 1326 650 
Q 1584 409 2034 409 
Q 2484 409 2743 651 
Q 3003 894 3003 1313 
Q 3003 1734 2745 1975 
Q 2488 2216 2034 2216 
z
M 1403 2484 
Q 997 2584 770 2862 
Q 544 3141 544 3541 
Q 544 4100 942 4425 
Q 1341 4750 2034 4750 
Q 2731 4750 3128 4425 
Q 3525 4100 3525 3541 
Q 3525 3141 3298 2862 
Q 3072 2584 2669 2484 
Q 3125 2378 3379 2068 
Q 3634 1759 3634 1313 
Q 3634 634 3220 271 
Q 2806 -91 2034 -91 
Q 1263 -91 848 271 
Q 434 634 434 1313 
Q 434 1759 690 2068 
Q 947 2378 1403 2484 
z
M 1172 3481 
Q 1172 3119 1398 2916 
Q 1625 2713 2034 2713 
Q 2441 2713 2670 2916 
Q 2900 3119 2900 3481 
Q 2900 3844 2670 4047 
Q 2441 4250 2034 4250 
Q 1625 4250 1398 4047 
Q 1172 3844 1172 3481 
z
" transform="scale(0.015625)"/>
       </defs>
       <use xlink:href="#DejaVuSans-30"/>
       <use xlink:href="#DejaVuSans-2e" x="63.623047"/>
       <use xlink:href="#DejaVuSans-38" x="95.410156"/>
      </g>
     </g>
    </g>
    <g id="xtick_6">
     <g id="line2d_6">
      <g>
       <use xlink:href="#m642534d9cb" x="542.107727" y="205.24" style="stroke: #000000; stroke-width: 0.8"/>
      </g>
     </g>
     <g id="text_6">
      <!-- 1.0 -->
      <g transform="translate(534.156165 219.838437) scale(0.1 -0.1)">
       <defs>
        <path id="DejaVuSans-31" d="M 794 531 
L 1825 531 
L 1825 4091 
L 703 3866 
L 703 4441 
L 1819 4666 
L 2450 4666 
L 2450 531 
L 3481 531 
L 3481 0 
L 794 0 
L 794 531 
z
" transform="scale(0.015625)"/>
       </defs>
       <use xlink:href="#DejaVuSans-31"/>
       <use xlink:href="#DejaVuSans-2e" x="63.623047"/>
       <use xlink:href="#DejaVuSans-30" x="95.410156"/>
      </g>
     </g>
    </g>
    <g id="text_7">
     <!-- time in hours -->
     <g transform="translate(278.095937 233.516563) scale(0.1 -0.1)">
      <defs>
       <path id="DejaVuSans-74" d="M 1172 4494 
L 1172 3500 
L 2356 3500 
L 2356 3053 
L 1172 3053 
L 1172 1153 
Q 1172 725 1289 603 
Q 1406 481 1766 481 
L 2356 481 
L 2356 0 
L 1766 0 
Q 1100 0 847 248 
Q 594 497 594 1153 
L 594 3053 
L 172 3053 
L 172 3500 
L 594 3500 
L 594 4494 
L 1172 4494 
z
" transform="scale(0.015625)"/>
       <path id="DejaVuSans-69" d="M 603 3500 
L 1178 3500 
L 1178 0 
L 603 0 
L 603 3500 
z
M 603 4863 
L 1178 4863 
L 1178 4134 
L 603 4134 
L 603 4863 
z
" transform="scale(0.015625)"/>
       <path id="DejaVuSans-6d" d="M 3328 2828 
Q 3544 3216 3844 3400 
Q 4144 3584 4550 3584 
Q 5097 3584 5394 3201 
Q 5691 2819 5691 2113 
L 5691 0 
L 5113 0 
L 5113 2094 
Q 5113 2597 4934 2840 
Q 4756 3084 4391 3084 
Q 3944 3084 3684 2787 
Q 3425 2491 3425 1978 
L 3425 0 
L 2847 0 
L 2847 2094 
Q 2847 2600 2669 2842 
Q 2491 3084 2119 3084 
Q 1678 3084 1418 2786 
Q 1159 2488 1159 1978 
L 1159 0 
L 581 0 
L 581 3500 
L 1159 3500 
L 1159 2956 
Q 1356 3278 1631 3431 
Q 1906 3584 2284 3584 
Q 2666 3584 2933 3390 
Q 3200 3197 3328 2828 
z
" transform="scale(0.015625)"/>
       <path id="DejaVuSans-65" d="M 3597 1894 
L 3597 1613 
L 953 1613 
Q 991 1019 1311 708 
Q 1631 397 2203 397 
Q 2534 397 2845 478 
Q 3156 559 3463 722 
L 3463 178 
Q 3153 47 2828 -22 
Q 2503 -91 2169 -91 
Q 1331 -91 842 396 
Q 353 884 353 1716 
Q 353 2575 817 3079 
Q 1281 3584 2069 3584 
Q 2775 3584 3186 3129 
Q 3597 2675 3597 1894 
z
M 3022 2063 
Q 3016 2534 2758 2815 
Q 2500 3097 2075 3097 
Q 1594 3097 1305 2825 
Q 1016 2553 972 2059 
L 3022 2063 
z
" transform="scale(0.015625)"/>
       <path id="DejaVuSans-20" transform="scale(0.015625)"/>
       <path id="DejaVuSans-6e" d="M 3513 2113 
L 3513 0 
L 2938 0 
L 2938 2094 
Q 2938 2591 2744 2837 
Q 2550 3084 2163 3084 
Q 1697 3084 1428 2787 
Q 1159 2491 1159 1978 
L 1159 0 
L 581 0 
L 581 3500 
L 1159 3500 
L 1159 2956 
Q 1366 3272 1645 3428 
Q 1925 3584 2291 3584 
Q 2894 3584 3203 3211 
Q 3513 2838 3513 2113 
z
" transform="scale(0.015625)"/>
       <path id="DejaVuSans-68" d="M 3513 2113 
L 3513 0 
L 2938 0 
L 2938 2094 
Q 2938 2591 2744 2837 
Q 2550 3084 2163 3084 
Q 1697 3084 1428 2787 
Q 1159 2491 1159 1978 
L 1159 0 
L 581 0 
L 581 4863 
L 1159 4863 
L 1159 2956 
Q 1366 3272 1645 3428 
Q 1925 3584 2291 3584 
Q 2894 3584 3203 3211 
Q 3513 2838 3513 2113 
z
" transform="scale(0.015625)"/>
       <path id="DejaVuSans-6f" d="M 1959 3097 
Q 1497 3097 1228 2736 
Q 959 2375 959 1747 
Q 959 1119 1226 758 
Q 1494 397 1959 397 
Q 2419 397 2687 759 
Q 2956 1122 2956 1747 
Q 2956 2369 2687 2733 
Q 2419 3097 1959 3097 
z
M 1959 3584 
Q 2709 3584 3137 3096 
Q 3566 2609 3566 1747 
Q 3566 888 3137 398 
Q 2709 -91 1959 -91 
Q 1206 -91 779 398 
Q 353 888 353 1747 
Q 353 2609 779 3096 
Q 1206 3584 1959 3584 
z
" transform="scale(0.015625)"/>
       <path id="DejaVuSans-75" d="M 544 1381 
L 544 3500 
L 1119 3500 
L 1119 1403 
Q 1119 906 1312 657 
Q 1506 409 1894 409 
Q 2359 409 2629 706 
Q 2900 1003 2900 1516 
L 2900 3500 
L 3475 3500 
L 3475 0 
L 2900 0 
L 2900 538 
Q 2691 219 2414 64 
Q 2138 -91 1772 -91 
Q 1169 -91 856 284 
Q 544 659 544 1381 
z
M 1991 3584 
L 1991 3584 
z
" transform="scale(0.015625)"/>
       <path id="DejaVuSans-72" d="M 2631 2963 
Q 2534 3019 2420 3045 
Q 2306 3072 2169 3072 
Q 1681 3072 1420 2755 
Q 1159 2438 1159 1844 
L 1159 0 
L 581 0 
L 581 3500 
L 1159 3500 
L 1159 2956 
Q 1341 3275 1631 3429 
Q 1922 3584 2338 3584 
Q 2397 3584 2469 3576 
Q 2541 3569 2628 3553 
L 2631 2963 
z
" transform="scale(0.015625)"/>
       <path id="DejaVuSans-73" d="M 2834 3397 
L 2834 2853 
Q 2591 2978 2328 3040 
Q 2066 3103 1784 3103 
Q 1356 3103 1142 2972 
Q 928 2841 928 2578 
Q 928 2378 1081 2264 
Q 1234 2150 1697 2047 
L 1894 2003 
Q 2506 1872 2764 1633 
Q 3022 1394 3022 966 
Q 3022 478 2636 193 
Q 2250 -91 1575 -91 
Q 1294 -91 989 -36 
Q 684 19 347 128 
L 347 722 
Q 666 556 975 473 
Q 1284 391 1588 391 
Q 1994 391 2212 530 
Q 2431 669 2431 922 
Q 2431 1156 2273 1281 
Q 2116 1406 1581 1522 
L 1381 1569 
Q 847 1681 609 1914 
Q 372 2147 372 2553 
Q 372 3047 722 3315 
Q 1072 3584 1716 3584 
Q 2034 3584 2315 3537 
Q 2597 3491 2834 3397 
z
" transform="scale(0.015625)"/>
      </defs>
      <use xlink:href="#DejaVuSans-74"/>
      <use xlink:href="#DejaVuSans-69" x="39.208984"/>
      <use xlink:href="#DejaVuSans-6d" x="66.992188"/>
      <use xlink:href="#DejaVuSans-65" x="164.404297"/>
      <use xlink:href="#DejaVuSans-20" x="225.927734"/>
      <use xlink:href="#DejaVuSans-69" x="257.714844"/>
      <use xlink:href="#DejaVuSans-6e" x="285.498047"/>
      <use xlink:href="#DejaVuSans-20" x="348.876953"/>
      <use xlink:href="#DejaVuSans-68" x="380.664062"/>
      <use xlink:href="#DejaVuSans-6f" x="444.042969"/>
      <use xlink:href="#DejaVuSans-75" x="505.224609"/>
      <use xlink:href="#DejaVuSans-72" x="568.603516"/>
      <use xlink:href="#DejaVuSans-73" x="609.716797"/>
     </g>
    </g>
   </g>
   <g id="matplotlib.axis_2">
    <g id="ytick_1">
     <g id="line2d_7">
      <defs>
       <path id="mbbb59c8c59" d="M 0 0 
L -3.5 0 
" style="stroke: #000000; stroke-width: 0.8"/>
      </defs>
      <g>
       <use xlink:href="#mbbb59c8c59" x="57.17" y="197.132727" style="stroke: #000000; stroke-width: 0.8"/>
      </g>
     </g>
     <g id="text_8">
      <!-- −1.0 -->
      <g transform="translate(25.887188 200.931946) scale(0.1 -0.1)">
       <defs>
        <path id="DejaVuSans-2212" d="M 678 2272 
L 4684 2272 
L 4684 1741 
L 678 1741 
L 678 2272 
z
" transform="scale(0.015625)"/>
       </defs>
       <use xlink:href="#DejaVuSans-2212"/>
       <use xlink:href="#DejaVuSans-31" x="83.789062"/>
       <use xlink:href="#DejaVuSans-2e" x="147.412109"/>
       <use xlink:href="#DejaVuSans-30" x="179.199219"/>
      </g>
     </g>
    </g>
    <g id="ytick_2">
     <g id="line2d_8">
      <g>
       <use xlink:href="#mbbb59c8c59" x="57.17" y="156.596364" style="stroke: #000000; stroke-width: 0.8"/>
      </g>
     </g>
     <g id="text_9">
      <!-- −0.5 -->
      <g transform="translate(25.887188 160.395582) scale(0.1 -0.1)">
       <defs>
        <path id="DejaVuSans-35" d="M 691 4666 
L 3169 4666 
L 3169 4134 
L 1269 4134 
L 1269 2991 
Q 1406 3038 1543 3061 
Q 1681 3084 1819 3084 
Q 2600 3084 3056 2656 
Q 3513 2228 3513 1497 
Q 3513 744 3044 326 
Q 2575 -91 1722 -91 
Q 1428 -91 1123 -41 
Q 819 9 494 109 
L 494 744 
Q 775 591 1075 516 
Q 1375 441 1709 441 
Q 2250 441 2565 725 
Q 2881 1009 2881 1497 
Q 2881 1984 2565 2268 
Q 2250 2553 1709 2553 
Q 1456 2553 1204 2497 
Q 953 2441 691 2322 
L 691 4666 
z
" transform="scale(0.015625)"/>
       </defs>
       <use xlink:href="#DejaVuSans-2212"/>
       <use xlink:href="#DejaVuSans-30" x="83.789062"/>
       <use xlink:href="#DejaVuSans-2e" x="147.412109"/>
       <use xlink:href="#DejaVuSans-35" x="179.199219"/>
      </g>
     </g>
    </g>
    <g id="ytick_3">
     <g id="line2d_9">
      <g>
       <use xlink:href="#mbbb59c8c59" x="57.17" y="116.06" style="stroke: #000000; stroke-width: 0.8"/>
      </g>
     </g>
     <g id="text_10">
      <!-- 0.0 -->
      <g transform="translate(34.266875 119.859219) scale(0.1 -0.1)">
       <use xlink:href="#DejaVuSans-30"/>
       <use xlink:href="#DejaVuSans-2e" x="63.623047"/>
       <use xlink:href="#DejaVuSans-30" x="95.410156"/>
      </g>
     </g>
    </g>
    <g id="ytick_4">
     <g id="line2d_10">
      <g>
       <use xlink:href="#mbbb59c8c59" x="57.17" y="75.523636" style="stroke: #000000; stroke-width: 0.8"/>
      </g>
     </g>
     <g id="text_11">
      <!-- 0.5 -->
      <g transform="translate(34.266875 79.322855) scale(0.1 -0.1)">
       <use xlink:href="#DejaVuSans-30"/>
       <use xlink:href="#DejaVuSans-2e" x="63.623047"/>
       <use xlink:href="#DejaVuSans-35" x="95.410156"/>
      </g>
     </g>
    </g>
    <g id="ytick_5">
     <g id="line2d_11">
      <g>
       <use xlink:href="#mbbb59c8c59" x="57.17" y="34.987273" style="stroke: #000000; stroke-width: 0.8"/>
      </g>
     </g>
     <g id="text_12">
      <!-- 1.0 -->
      <g transform="translate(34.266875 38.786491) scale(0.1 -0.1)">
       <use xlink:href="#DejaVuSans-31"/>
       <use xlink:href="#DejaVuSans-2e" x="63.623047"/>
       <use xlink:href="#DejaVuSans-30" x="95.410156"/>
      </g>
     </g>
    </g>
    <g id="text_13">
     <!-- reflectance -->
     <g transform="translate(19.8075 144.073281) rotate(-90) scale(0.1 -0.1)">
      <defs>
       <path id="DejaVuSans-66" d="M 2375 4863 
L 2375 4384 
L 1825 4384 
Q 1516 4384 1395 4259 
Q 1275 4134 1275 3809 
L 1275 3500 
L 2222 3500 
L 2222 3053 
L 1275 3053 
L 1275 0 
L 697 0 
L 697 3053 
L 147 3053 
L 147 3500 
L 697 3500 
L 697 3744 
Q 697 4328 969 4595 
Q 1241 4863 1831 4863 
L 2375 4863 
z
" transform="scale(0.015625)"/>
       <path id="DejaVuSans-6c" d="M 603 4863 
L 1178 4863 
L 1178 0 
L 603 0 
L 603 4863 
z
" transform="scale(0.015625)"/>
       <path id="DejaVuSans-63" d="M 3122 3366 
L 3122 2828 
Q 2878 2963 2633 3030 
Q 2388 3097 2138 3097 
Q 1578 3097 1268 2742 
Q 959 2388 959 1747 
Q 959 1106 1268 751 
Q 1578 397 2138 397 
Q 2388 397 2633 464 
Q 2878 531 3122 666 
L 3122 134 
Q 2881 22 2623 -34 
Q 2366 -91 2075 -91 
Q 1284 -91 818 406 
Q 353 903 353 1747 
Q 353 2603 823 3093 
Q 1294 3584 2113 3584 
Q 2378 3584 2631 3529 
Q 2884 3475 3122 3366 
z
" transform="scale(0.015625)"/>
       <path id="DejaVuSans-61" d="M 2194 1759 
Q 1497 1759 1228 1600 
Q 959 1441 959 1056 
Q 959 750 1161 570 
Q 1363 391 1709 391 
Q 2188 391 2477 730 
Q 2766 1069 2766 1631 
L 2766 1759 
L 2194 1759 
z
M 3341 1997 
L 3341 0 
L 2766 0 
L 2766 531 
Q 2569 213 2275 61 
Q 1981 -91 1556 -91 
Q 1019 -91 701 211 
Q 384 513 384 1019 
Q 384 1609 779 1909 
Q 1175 2209 1959 2209 
L 2766 2209 
L 2766 2266 
Q 2766 2663 2505 2880 
Q 2244 3097 1772 3097 
Q 1472 3097 1187 3025 
Q 903 2953 641 2809 
L 641 3341 
Q 956 3463 1253 3523 
Q 1550 3584 1831 3584 
Q 2591 3584 2966 3190 
Q 3341 2797 3341 1997 
z
" transform="scale(0.015625)"/>
      </defs>
      <use xlink:href="#DejaVuSans-72"/>
      <use xlink:href="#DejaVuSans-65" x="38.863281"/>
      <use xlink:href="#DejaVuSans-66" x="100.386719"/>
      <use xlink:href="#DejaVuSans-6c" x="135.591797"/>
      <use xlink:href="#DejaVuSans-65" x="163.375"/>
      <use xlink:href="#DejaVuSans-63" x="224.898438"/>
      <use xlink:href="#DejaVuSans-74" x="279.878906"/>
      <use xlink:href="#DejaVuSans-61" x="319.087891"/>
      <use xlink:href="#DejaVuSans-6e" x="380.367188"/>
      <use xlink:href="#DejaVuSans-63" x="443.746094"/>
      <use xlink:href="#DejaVuSans-65" x="498.726562"/>
     </g>
    </g>
   </g>
   <g id="line2d_12">
    <path d="M 80.262273 34.98736 
L 87.207317 35.095454 
L 92.994854 35.368558 
L 98.782391 35.85025 
L 104.569928 36.588304 
L 109.199958 37.402011 
L 113.829987 38.452902 
L 118.460017 39.784614 
L 121.932539 40.999402 
L 125.405062 42.429123 
L 128.877584 44.10594 
L 132.350106 46.068176 
L 135.822628 48.361732 
L 138.137643 50.101649 
L 140.452658 52.032176 
L 142.767673 54.174912 
L 145.082687 56.554336 
L 147.397702 59.19817 
L 149.712717 62.137735 
L 152.027732 65.408295 
L 154.342747 69.049335 
L 156.657761 73.104701 
L 158.972776 77.622489 
L 161.287791 82.654503 
L 163.602806 88.25504 
L 165.917821 94.478536 
L 168.232835 101.37564 
L 170.54785 108.986893 
L 172.862865 117.333122 
L 175.17788 126.401636 
L 178.650402 141.196358 
L 186.752954 177.102692 
L 189.067969 185.659608 
L 190.225476 189.248841 
L 191.382984 192.259293 
L 192.540491 194.607383 
L 193.697998 196.219485 
L 194.855506 197.036304 
L 196.013013 197.016783 
L 197.170521 196.141114 
L 198.328028 194.412483 
L 199.485535 191.857319 
L 200.643043 188.523985 
L 201.80055 184.480046 
L 202.958058 179.808424 
L 205.273072 168.962966 
L 207.588087 156.782113 
L 214.533132 119.124533 
L 216.848147 107.748027 
L 219.163161 97.350456 
L 221.478176 87.993547 
L 223.793191 79.670096 
L 226.108206 72.330706 
L 228.423221 65.903432 
L 230.738235 60.307164 
L 233.05325 55.460129 
L 235.368265 51.284919 
L 237.68328 47.711159 
L 239.998295 44.676707 
L 242.313309 42.127964 
L 244.628324 40.019675 
L 246.943339 38.314517 
L 249.258354 36.982591 
L 251.573369 36.000956 
L 253.888383 35.353224 
L 256.203398 35.029291 
L 258.518413 35.025199 
L 260.833428 35.343155 
L 263.148443 35.991723 
L 265.463458 36.986202 
L 267.778472 38.349204 
L 270.093487 40.111446 
L 272.408502 42.312768 
L 274.723517 45.003368 
L 277.038532 48.245214 
L 279.353546 52.11355 
L 281.668561 56.698278 
L 283.983576 62.104795 
L 286.298591 68.453556 
L 288.613606 75.877018 
L 290.92862 84.511797 
L 293.243635 94.482598 
L 295.55865 105.873084 
L 297.873665 118.677842 
L 300.18868 132.730935 
L 307.133724 176.422999 
L 308.291231 182.495303 
L 309.448739 187.735965 
L 310.606246 191.958401 
L 311.763754 194.99972 
L 312.921261 196.735231 
L 314.078769 197.090556 
L 315.236276 196.049283 
L 316.393783 193.654716 
L 317.551291 190.005391 
L 318.708798 185.245212 
L 319.866306 179.549976 
L 322.18132 166.1286 
L 330.283872 114.984054 
L 332.598887 102.438592 
L 334.913902 91.331182 
L 337.228917 81.640452 
L 339.543931 73.268916 
L 341.858946 66.086415 
L 344.173961 59.955883 
L 346.488976 54.747203 
L 348.803991 50.343728 
L 351.119005 46.64461 
L 353.43402 43.564882 
L 355.749035 41.034499 
L 358.06405 38.996996 
L 360.379065 37.408109 
L 362.69408 36.234571 
L 365.009094 35.453159 
L 367.324109 35.050017 
L 369.639124 35.020316 
L 371.954139 35.368216 
L 374.269154 36.107188 
L 376.584168 37.260691 
L 378.899183 38.86325 
L 381.214198 40.961962 
L 383.529213 43.618454 
L 385.844228 46.911281 
L 388.159242 50.938669 
L 390.474257 55.82132 
L 392.789272 61.704606 
L 395.104287 68.758836 
L 397.419302 77.174933 
L 399.734316 87.150825 
L 402.049331 98.860742 
L 404.364346 112.395724 
L 406.679361 127.661788 
L 410.151883 152.730382 
L 412.466898 169.284393 
L 413.624405 176.865356 
L 414.781913 183.619355 
L 415.93942 189.262354 
L 417.096928 193.529236 
L 418.254435 196.201416 
L 419.411942 197.132727 
L 420.56945 196.268275 
L 421.726957 193.651914 
L 422.884465 189.420532 
L 424.041972 183.786497 
L 425.199479 177.012343 
L 427.514494 161.180259 
L 433.302031 119.312491 
L 435.617046 104.672248 
L 437.932061 91.876033 
L 440.247076 80.914328 
L 442.56209 71.643783 
L 444.877105 63.869685 
L 447.19212 57.391415 
L 449.507135 52.02443 
L 451.82215 47.608913 
L 454.137165 44.01155 
L 456.452179 41.124157 
L 458.767194 38.861122 
L 461.082209 37.156686 
L 463.397224 35.962538 
L 465.712239 35.245918 
L 466.869746 35.060359 
L 468.027253 34.988299 
L 469.184761 35.029528 
L 470.342268 35.184669 
L 471.499776 35.455186 
L 472.657283 35.84341 
L 473.81479 36.352564 
L 474.972298 36.986808 
L 476.129805 37.751286 
L 477.287313 38.652194 
L 478.44482 39.696846 
L 479.602327 40.893766 
L 480.759835 42.252781 
L 481.917342 43.785124 
L 483.07485 45.50355 
L 484.232357 47.422457 
L 485.389864 49.558005 
L 486.547372 51.928232 
L 487.704879 54.553155 
L 488.862387 57.45484 
L 490.019894 60.657413 
L 492.334909 68.071514 
L 494.649924 77.023511 
L 496.964938 87.751042 
L 499.279953 100.459069 
L 501.594968 115.235352 
L 503.909983 131.903552 
L 509.69752 175.779924 
L 510.855027 183.080912 
L 512.012535 189.14946 
L 513.170042 193.667812 
L 514.32755 196.377613 
L 515.485057 197.114306 
L 516.642564 195.830963 
L 517.800072 192.605374 
L 518.957579 187.628483 
L 520.115087 181.177272 
L 521.272594 173.578944 
L 523.587609 156.287391 
L 527.060131 129.331591 
L 529.375146 112.826647 
L 531.690161 98.270029 
L 534.005175 85.793401 
L 536.32019 75.286348 
L 538.635205 66.535027 
L 540.95022 59.300475 
L 542.107727 56.180419 
L 542.107727 56.180419 
" clip-path="url(#pb9c38d5812)" style="fill: none; stroke: #1f77b4; stroke-width: 1.5; stroke-linecap: square"/>
   </g>
   <g id="line2d_13">
    <path d="M 80.262273 34.987377 
L 88.364825 35.12076 
L 95.309869 35.459636 
L 101.097406 35.976373 
L 105.727436 36.583567 
L 110.357465 37.402621 
L 114.987495 38.483385 
L 118.460017 39.506183 
L 121.932539 40.762213 
L 125.405062 42.272343 
L 128.877584 44.030881 
L 132.350106 46.07013 
L 135.822628 48.427475 
L 139.29515 51.150333 
L 141.610165 53.198784 
L 143.92518 55.460185 
L 146.240195 57.963171 
L 148.55521 60.739625 
L 150.870224 63.824878 
L 153.185239 67.257292 
L 155.500254 71.079387 
L 157.815269 75.337667 
L 160.130284 80.083384 
L 162.445298 85.370927 
L 164.760313 91.258302 
L 167.075328 97.804908 
L 169.390343 105.064863 
L 171.705358 113.059435 
L 174.020373 121.776561 
L 176.335387 131.18485 
L 179.80791 146.372461 
L 185.595447 172.291994 
L 187.910461 181.536446 
L 189.067969 185.607655 
L 190.225476 189.194168 
L 191.382984 192.207653 
L 192.540491 194.564828 
L 193.697998 196.191578 
L 194.855506 197.02714 
L 196.013013 197.028261 
L 197.170521 196.172356 
L 198.328028 194.459435 
L 199.485535 191.912609 
L 200.643043 188.576939 
L 201.80055 184.518509 
L 202.958058 179.826321 
L 205.273072 168.946411 
L 207.588087 156.748946 
L 214.533132 119.125519 
L 216.848147 107.761926 
L 219.163161 97.367378 
L 221.478176 88.001256 
L 223.793191 79.656453 
L 226.108206 72.297811 
L 228.423221 65.861239 
L 230.738235 60.260183 
L 233.05325 55.409485 
L 235.368265 51.230762 
L 237.68328 47.655303 
L 239.998295 44.621192 
L 242.313309 42.074172 
L 244.628324 39.969036 
L 246.943339 38.268773 
L 249.258354 36.94371 
L 251.573369 35.971017 
L 253.888383 35.33428 
L 256.203398 35.022831 
L 258.518413 35.032007 
L 260.833428 35.363316 
L 263.148443 36.024648 
L 265.463458 37.030734 
L 267.778472 38.403772 
L 270.093487 40.174164 
L 272.408502 42.381431 
L 274.723517 45.075523 
L 277.038532 48.318148 
L 279.353546 52.184278 
L 281.668561 56.763525 
L 283.983576 62.160998 
L 286.298591 68.4969 
L 288.613606 75.903539 
L 290.92862 84.517592 
L 293.243635 94.464224 
L 295.55865 105.828216 
L 297.873665 118.606238 
L 300.18868 132.635661 
L 307.133724 176.320593 
L 308.291231 182.40546 
L 309.448739 187.662303 
L 310.606246 191.90364 
L 311.763754 194.965368 
L 312.921261 196.72137 
L 314.078769 197.095815 
L 315.236276 196.070985 
L 316.393783 193.689197 
L 317.551291 190.04844 
L 318.708798 185.292539 
L 319.866306 179.597645 
L 322.18132 166.16812 
L 330.283872 114.990559 
L 332.598887 102.440089 
L 334.913902 91.314573 
L 337.228917 81.598836 
L 339.543931 73.200503 
L 341.858946 65.99346 
L 344.173961 59.843261 
L 346.488976 54.621046 
L 348.803991 50.210525 
L 351.119005 46.510655 
L 353.43402 43.435966 
L 355.749035 40.915766 
L 358.06405 38.892889 
L 360.379065 37.322375 
L 362.69408 36.170294 
L 365.009094 35.412795 
L 367.324109 35.035436 
L 369.639124 35.032822 
L 371.954139 35.408566 
L 374.269154 36.175577 
L 376.584168 37.356721 
L 378.899183 38.985869 
L 381.214198 41.109365 
L 383.529213 43.787952 
L 385.844228 47.099125 
L 388.159242 51.13984 
L 390.474257 56.029284 
L 392.789272 61.911082 
L 395.104287 68.953625 
L 397.419302 77.345962 
L 399.734316 87.284664 
L 402.049331 98.943931 
L 404.364346 112.417421 
L 406.679361 127.618065 
L 410.151883 152.60951 
L 412.466898 169.149763 
L 413.624405 176.738243 
L 414.781913 183.50809 
L 415.93942 189.17358 
L 417.096928 193.467528 
L 418.254435 196.169855 
L 419.411942 197.132727 
L 420.56945 196.299196 
L 421.726957 193.71097 
L 422.884465 189.503021 
L 424.041972 183.886314 
L 425.199479 177.122641 
L 427.514494 161.2913 
L 433.302031 119.350562 
L 435.617046 104.673262 
L 437.932061 91.844553 
L 440.247076 80.857827 
L 442.56209 71.5696 
L 444.877105 63.784326 
L 447.19212 57.300672 
L 449.507135 51.933391 
L 451.82215 47.522016 
L 454.137165 43.934448 
L 456.452179 41.060778 
L 458.767194 38.813275 
L 461.082209 37.124522 
L 463.397224 35.944477 
L 465.712239 35.238256 
L 466.869746 35.056677 
L 468.027253 34.987946 
L 469.184761 35.031953 
L 470.342268 35.189408 
L 471.499776 35.46185 
L 472.657283 35.851674 
L 473.81479 36.362163 
L 474.972298 36.99751 
L 476.129805 37.762879 
L 477.287313 38.664462 
L 478.44482 39.709556 
L 479.602327 40.906681 
L 480.759835 42.265659 
L 481.917342 43.79772 
L 483.07485 45.51562 
L 484.232357 47.433761 
L 485.389864 49.568302 
L 486.547372 51.937222 
L 487.704879 54.560427 
L 488.862387 57.459914 
L 491.177401 64.186194 
L 493.492416 72.331912 
L 495.807431 82.134282 
L 498.122446 93.824158 
L 500.437461 107.565634 
L 502.752476 123.342517 
L 506.224998 149.814018 
L 508.540013 167.596701 
L 509.69752 175.789214 
L 510.855027 183.088018 
L 512.012535 189.153794 
L 513.170042 193.669698 
L 514.32755 196.37821 
L 515.485057 197.115361 
L 516.642564 195.834423 
L 517.800072 192.612971 
L 518.957579 187.641388 
L 520.115087 181.195892 
L 521.272594 173.602899 
L 523.587609 156.318431 
L 527.060131 129.360843 
L 529.375146 112.847764 
L 531.690161 98.280033 
L 534.005175 85.791367 
L 536.32019 75.272792 
L 538.635205 66.511335 
L 540.95022 59.268487 
L 542.107727 56.145044 
L 542.107727 56.145044 
" clip-path="url(#pb9c38d5812)" style="fill: none; stroke: #ff7f0e; stroke-width: 1.5; stroke-linecap: square"/>
   </g>
   <g id="patch_3">
    <path d="M 57.17 205.24 
L 57.17 26.88 
" style="fill: none; stroke: #000000; stroke-width: 0.8; stroke-linejoin: miter; stroke-linecap: square"/>
   </g>
   <g id="patch_4">
    <path d="M 565.2 205.24 
L 565.2 26.88 
" style="fill: none; stroke: #000000; stroke-width: 0.8; stroke-linejoin: miter; stroke-linecap: square"/>
   </g>
   <g id="patch_5">
    <path d="M 57.17 205.24 
L 565.2 205.24 
" style="fill: none; stroke: #000000; stroke-width: 0.8; stroke-linejoin: miter; stroke-linecap: square"/>
   </g>
   <g id="patch_6">
    <path d="M 57.17 26.88 
L 565.2 26.88 
" style="fill: none; stroke: #000000; stroke-width: 0.8; stroke-linejoin: miter; stroke-linecap: square"/>
   </g>
   <g id="text_14">
    <!-- Reflectance -->
    <g transform="translate(276.001562 20.88) scale(0.12 -0.12)">
     <defs>
      <path id="DejaVuSans-52" d="M 2841 2188 
Q 3044 2119 3236 1894 
Q 3428 1669 3622 1275 
L 4263 0 
L 3584 0 
L 2988 1197 
Q 2756 1666 2539 1819 
Q 2322 1972 1947 1972 
L 1259 1972 
L 1259 0 
L 628 0 
L 628 4666 
L 2053 4666 
Q 2853 4666 3247 4331 
Q 3641 3997 3641 3322 
Q 3641 2881 3436 2590 
Q 3231 2300 2841 2188 
z
M 1259 4147 
L 1259 2491 
L 2053 2491 
Q 2509 2491 2742 2702 
Q 2975 2913 2975 3322 
Q 2975 3731 2742 3939 
Q 2509 4147 2053 4147 
L 1259 4147 
z
" transform="scale(0.015625)"/>
     </defs>
     <use xlink:href="#DejaVuSans-52"/>
     <use xlink:href="#DejaVuSans-65" x="64.982422"/>
     <use xlink:href="#DejaVuSans-66" x="126.505859"/>
     <use xlink:href="#DejaVuSans-6c" x="161.710938"/>
     <use xlink:href="#DejaVuSans-65" x="189.494141"/>
     <use xlink:href="#DejaVuSans-63" x="251.017578"/>
     <use xlink:href="#DejaVuSans-74" x="305.998047"/>
     <use xlink:href="#DejaVuSans-61" x="345.207031"/>
     <use xlink:href="#DejaVuSans-6e" x="406.486328"/>
     <use xlink:href="#DejaVuSans-63" x="469.865234"/>
     <use xlink:href="#DejaVuSans-65" x="524.845703"/>
    </g>
   </g>
   <g id="legend_1">
    <g id="patch_7">
     <path d="M 417.039062 64.23625 
L 558.2 64.23625 
Q 560.2 64.23625 560.2 62.23625 
L 560.2 33.88 
Q 560.2 31.88 558.2 31.88 
L 417.039062 31.88 
Q 415.039062 31.88 415.039062 33.88 
L 415.039062 62.23625 
Q 415.039062 64.23625 417.039062 64.23625 
z
" style="fill: #ffffff; opacity: 0.8; stroke: #cccccc; stroke-linejoin: miter"/>
    </g>
    <g id="line2d_14">
     <path d="M 419.039062 39.978438 
L 429.039062 39.978438 
L 439.039062 39.978438 
" style="fill: none; stroke: #1f77b4; stroke-width: 1.5; stroke-linecap: square"/>
    </g>
    <g id="text_15">
     <!-- measured reflectance -->
     <g transform="translate(447.039062 43.478438) scale(0.1 -0.1)">
      <defs>
       <path id="DejaVuSans-64" d="M 2906 2969 
L 2906 4863 
L 3481 4863 
L 3481 0 
L 2906 0 
L 2906 525 
Q 2725 213 2448 61 
Q 2172 -91 1784 -91 
Q 1150 -91 751 415 
Q 353 922 353 1747 
Q 353 2572 751 3078 
Q 1150 3584 1784 3584 
Q 2172 3584 2448 3432 
Q 2725 3281 2906 2969 
z
M 947 1747 
Q 947 1113 1208 752 
Q 1469 391 1925 391 
Q 2381 391 2643 752 
Q 2906 1113 2906 1747 
Q 2906 2381 2643 2742 
Q 2381 3103 1925 3103 
Q 1469 3103 1208 2742 
Q 947 2381 947 1747 
z
" transform="scale(0.015625)"/>
      </defs>
      <use xlink:href="#DejaVuSans-6d"/>
      <use xlink:href="#DejaVuSans-65" x="97.412109"/>
      <use xlink:href="#DejaVuSans-61" x="158.935547"/>
      <use xlink:href="#DejaVuSans-73" x="220.214844"/>
      <use xlink:href="#DejaVuSans-75" x="272.314453"/>
      <use xlink:href="#DejaVuSans-72" x="335.693359"/>
      <use xlink:href="#DejaVuSans-65" x="374.556641"/>
      <use xlink:href="#DejaVuSans-64" x="436.080078"/>
      <use xlink:href="#DejaVuSans-20" x="499.556641"/>
      <use xlink:href="#DejaVuSans-72" x="531.34375"/>
      <use xlink:href="#DejaVuSans-65" x="570.207031"/>
      <use xlink:href="#DejaVuSans-66" x="631.730469"/>
      <use xlink:href="#DejaVuSans-6c" x="666.935547"/>
      <use xlink:href="#DejaVuSans-65" x="694.71875"/>
      <use xlink:href="#DejaVuSans-63" x="756.242188"/>
      <use xlink:href="#DejaVuSans-74" x="811.222656"/>
      <use xlink:href="#DejaVuSans-61" x="850.431641"/>
      <use xlink:href="#DejaVuSans-6e" x="911.710938"/>
      <use xlink:href="#DejaVuSans-63" x="975.089844"/>
      <use xlink:href="#DejaVuSans-65" x="1030.070312"/>
     </g>
    </g>
    <g id="line2d_15">
     <path d="M 419.039062 54.656563 
L 429.039062 54.656563 
L 439.039062 54.656563 
" style="fill: none; stroke: #ff7f0e; stroke-width: 1.5; stroke-linecap: square"/>
    </g>
    <g id="text_16">
     <!-- predicted reflectance -->
     <g transform="translate(447.039062 58.156563) scale(0.1 -0.1)">
      <defs>
       <path id="DejaVuSans-70" d="M 1159 525 
L 1159 -1331 
L 581 -1331 
L 581 3500 
L 1159 3500 
L 1159 2969 
Q 1341 3281 1617 3432 
Q 1894 3584 2278 3584 
Q 2916 3584 3314 3078 
Q 3713 2572 3713 1747 
Q 3713 922 3314 415 
Q 2916 -91 2278 -91 
Q 1894 -91 1617 61 
Q 1341 213 1159 525 
z
M 3116 1747 
Q 3116 2381 2855 2742 
Q 2594 3103 2138 3103 
Q 1681 3103 1420 2742 
Q 1159 2381 1159 1747 
Q 1159 1113 1420 752 
Q 1681 391 2138 391 
Q 2594 391 2855 752 
Q 3116 1113 3116 1747 
z
" transform="scale(0.015625)"/>
      </defs>
      <use xlink:href="#DejaVuSans-70"/>
      <use xlink:href="#DejaVuSans-72" x="63.476562"/>
      <use xlink:href="#DejaVuSans-65" x="102.339844"/>
      <use xlink:href="#DejaVuSans-64" x="163.863281"/>
      <use xlink:href="#DejaVuSans-69" x="227.339844"/>
      <use xlink:href="#DejaVuSans-63" x="255.123047"/>
      <use xlink:href="#DejaVuSans-74" x="310.103516"/>
      <use xlink:href="#DejaVuSans-65" x="349.3125"/>
      <use xlink:href="#DejaVuSans-64" x="410.835938"/>
      <use xlink:href="#DejaVuSans-20" x="474.3125"/>
      <use xlink:href="#DejaVuSans-72" x="506.099609"/>
      <use xlink:href="#DejaVuSans-65" x="544.962891"/>
      <use xlink:href="#DejaVuSans-66" x="606.486328"/>
      <use xlink:href="#DejaVuSans-6c" x="641.691406"/>
      <use xlink:href="#DejaVuSans-65" x="669.474609"/>
      <use xlink:href="#DejaVuSans-63" x="730.998047"/>
      <use xlink:href="#DejaVuSans-74" x="785.978516"/>
      <use xlink:href="#DejaVuSans-61" x="825.1875"/>
      <use xlink:href="#DejaVuSans-6e" x="886.466797"/>
      <use xlink:href="#DejaVuSans-63" x="949.845703"/>
      <use xlink:href="#DejaVuSans-65" x="1004.826172"/>
     </g>
    </g>
   </g>
  </g>
  <g id="axes_2">
   <g id="patch_8">
    <path d="M 57.17 441.64 
L 565.2 441.64 
L 565.2 263.28 
L 57.17 263.28 
z
" style="fill: #ffffff"/>
   </g>
   <g id="matplotlib.axis_3">
    <g id="xtick_7">
     <g id="line2d_16">
      <g>
       <use xlink:href="#m642534d9cb" x="80.262273" y="441.64" style="stroke: #000000; stroke-width: 0.8"/>
      </g>
     </g>
     <g id="text_17">
      <!-- 0.0 -->
      <g transform="translate(72.31071 456.238438) scale(0.1 -0.1)">
       <use xlink:href="#DejaVuSans-30"/>
       <use xlink:href="#DejaVuSans-2e" x="63.623047"/>
       <use xlink:href="#DejaVuSans-30" x="95.410156"/>
      </g>
     </g>
    </g>
    <g id="xtick_8">
     <g id="line2d_17">
      <g>
       <use xlink:href="#m642534d9cb" x="172.631364" y="441.64" style="stroke: #000000; stroke-width: 0.8"/>
      </g>
     </g>
     <g id="text_18">
      <!-- 0.2 -->
      <g transform="translate(164.679801 456.238438) scale(0.1 -0.1)">
       <use xlink:href="#DejaVuSans-30"/>
       <use xlink:href="#DejaVuSans-2e" x="63.623047"/>
       <use xlink:href="#DejaVuSans-32" x="95.410156"/>
      </g>
     </g>
    </g>
    <g id="xtick_9">
     <g id="line2d_18">
      <g>
       <use xlink:href="#m642534d9cb" x="265.000455" y="441.64" style="stroke: #000000; stroke-width: 0.8"/>
      </g>
     </g>
     <g id="text_19">
      <!-- 0.4 -->
      <g transform="translate(257.048892 456.238438) scale(0.1 -0.1)">
       <use xlink:href="#DejaVuSans-30"/>
       <use xlink:href="#DejaVuSans-2e" x="63.623047"/>
       <use xlink:href="#DejaVuSans-34" x="95.410156"/>
      </g>
     </g>
    </g>
    <g id="xtick_10">
     <g id="line2d_19">
      <g>
       <use xlink:href="#m642534d9cb" x="357.369545" y="441.64" style="stroke: #000000; stroke-width: 0.8"/>
      </g>
     </g>
     <g id="text_20">
      <!-- 0.6 -->
      <g transform="translate(349.417983 456.238438) scale(0.1 -0.1)">
       <use xlink:href="#DejaVuSans-30"/>
       <use xlink:href="#DejaVuSans-2e" x="63.623047"/>
       <use xlink:href="#DejaVuSans-36" x="95.410156"/>
      </g>
     </g>
    </g>
    <g id="xtick_11">
     <g id="line2d_20">
      <g>
       <use xlink:href="#m642534d9cb" x="449.738636" y="441.64" style="stroke: #000000; stroke-width: 0.8"/>
      </g>
     </g>
     <g id="text_21">
      <!-- 0.8 -->
      <g transform="translate(441.787074 456.238438) scale(0.1 -0.1)">
       <use xlink:href="#DejaVuSans-30"/>
       <use xlink:href="#DejaVuSans-2e" x="63.623047"/>
       <use xlink:href="#DejaVuSans-38" x="95.410156"/>
      </g>
     </g>
    </g>
    <g id="xtick_12">
     <g id="line2d_21">
      <g>
       <use xlink:href="#m642534d9cb" x="542.107727" y="441.64" style="stroke: #000000; stroke-width: 0.8"/>
      </g>
     </g>
     <g id="text_22">
      <!-- 1.0 -->
      <g transform="translate(534.156165 456.238438) scale(0.1 -0.1)">
       <use xlink:href="#DejaVuSans-31"/>
       <use xlink:href="#DejaVuSans-2e" x="63.623047"/>
       <use xlink:href="#DejaVuSans-30" x="95.410156"/>
      </g>
     </g>
    </g>
    <g id="text_23">
     <!-- time in hours -->
     <g transform="translate(278.095937 469.916563) scale(0.1 -0.1)">
      <use xlink:href="#DejaVuSans-74"/>
      <use xlink:href="#DejaVuSans-69" x="39.208984"/>
      <use xlink:href="#DejaVuSans-6d" x="66.992188"/>
      <use xlink:href="#DejaVuSans-65" x="164.404297"/>
      <use xlink:href="#DejaVuSans-20" x="225.927734"/>
      <use xlink:href="#DejaVuSans-69" x="257.714844"/>
      <use xlink:href="#DejaVuSans-6e" x="285.498047"/>
      <use xlink:href="#DejaVuSans-20" x="348.876953"/>
      <use xlink:href="#DejaVuSans-68" x="380.664062"/>
      <use xlink:href="#DejaVuSans-6f" x="444.042969"/>
      <use xlink:href="#DejaVuSans-75" x="505.224609"/>
      <use xlink:href="#DejaVuSans-72" x="568.603516"/>
      <use xlink:href="#DejaVuSans-73" x="609.716797"/>
     </g>
    </g>
   </g>
   <g id="matplotlib.axis_4">
    <g id="ytick_6">
     <g id="line2d_22">
      <g>
       <use xlink:href="#mbbb59c8c59" x="57.17" y="433.532727" style="stroke: #000000; stroke-width: 0.8"/>
      </g>
     </g>
     <g id="text_24">
      <!-- 0 -->
      <g transform="translate(43.8075 437.331946) scale(0.1 -0.1)">
       <use xlink:href="#DejaVuSans-30"/>
      </g>
     </g>
    </g>
    <g id="ytick_7">
     <g id="line2d_23">
      <g>
       <use xlink:href="#mbbb59c8c59" x="57.17" y="404.015166" style="stroke: #000000; stroke-width: 0.8"/>
      </g>
     </g>
     <g id="text_25">
      <!-- 200 -->
      <g transform="translate(31.0825 407.814385) scale(0.1 -0.1)">
       <use xlink:href="#DejaVuSans-32"/>
       <use xlink:href="#DejaVuSans-30" x="63.623047"/>
       <use xlink:href="#DejaVuSans-30" x="127.246094"/>
      </g>
     </g>
    </g>
    <g id="ytick_8">
     <g id="line2d_24">
      <g>
       <use xlink:href="#mbbb59c8c59" x="57.17" y="374.497605" style="stroke: #000000; stroke-width: 0.8"/>
      </g>
     </g>
     <g id="text_26">
      <!-- 400 -->
      <g transform="translate(31.0825 378.296824) scale(0.1 -0.1)">
       <use xlink:href="#DejaVuSans-34"/>
       <use xlink:href="#DejaVuSans-30" x="63.623047"/>
       <use xlink:href="#DejaVuSans-30" x="127.246094"/>
      </g>
     </g>
    </g>
    <g id="ytick_9">
     <g id="line2d_25">
      <g>
       <use xlink:href="#mbbb59c8c59" x="57.17" y="344.980044" style="stroke: #000000; stroke-width: 0.8"/>
      </g>
     </g>
     <g id="text_27">
      <!-- 600 -->
      <g transform="translate(31.0825 348.779263) scale(0.1 -0.1)">
       <use xlink:href="#DejaVuSans-36"/>
       <use xlink:href="#DejaVuSans-30" x="63.623047"/>
       <use xlink:href="#DejaVuSans-30" x="127.246094"/>
      </g>
     </g>
    </g>
    <g id="ytick_10">
     <g id="line2d_26">
      <g>
       <use xlink:href="#mbbb59c8c59" x="57.17" y="315.462483" style="stroke: #000000; stroke-width: 0.8"/>
      </g>
     </g>
     <g id="text_28">
      <!-- 800 -->
      <g transform="translate(31.0825 319.261702) scale(0.1 -0.1)">
       <use xlink:href="#DejaVuSans-38"/>
       <use xlink:href="#DejaVuSans-30" x="63.623047"/>
       <use xlink:href="#DejaVuSans-30" x="127.246094"/>
      </g>
     </g>
    </g>
    <g id="ytick_11">
     <g id="line2d_27">
      <g>
       <use xlink:href="#mbbb59c8c59" x="57.17" y="285.944922" style="stroke: #000000; stroke-width: 0.8"/>
      </g>
     </g>
     <g id="text_29">
      <!-- 1000 -->
      <g transform="translate(24.72 289.744141) scale(0.1 -0.1)">
       <use xlink:href="#DejaVuSans-31"/>
       <use xlink:href="#DejaVuSans-30" x="63.623047"/>
       <use xlink:href="#DejaVuSans-30" x="127.246094"/>
       <use xlink:href="#DejaVuSans-30" x="190.869141"/>
      </g>
     </g>
    </g>
    <g id="text_30">
     <!-- thickness in nm -->
     <g transform="translate(18.640313 391.852188) rotate(-90) scale(0.1 -0.1)">
      <defs>
       <path id="DejaVuSans-6b" d="M 581 4863 
L 1159 4863 
L 1159 1991 
L 2875 3500 
L 3609 3500 
L 1753 1863 
L 3688 0 
L 2938 0 
L 1159 1709 
L 1159 0 
L 581 0 
L 581 4863 
z
" transform="scale(0.015625)"/>
      </defs>
      <use xlink:href="#DejaVuSans-74"/>
      <use xlink:href="#DejaVuSans-68" x="39.208984"/>
      <use xlink:href="#DejaVuSans-69" x="102.587891"/>
      <use xlink:href="#DejaVuSans-63" x="130.371094"/>
      <use xlink:href="#DejaVuSans-6b" x="185.351562"/>
      <use xlink:href="#DejaVuSans-6e" x="243.261719"/>
      <use xlink:href="#DejaVuSans-65" x="306.640625"/>
      <use xlink:href="#DejaVuSans-73" x="368.164062"/>
      <use xlink:href="#DejaVuSans-73" x="420.263672"/>
      <use xlink:href="#DejaVuSans-20" x="472.363281"/>
      <use xlink:href="#DejaVuSans-69" x="504.150391"/>
      <use xlink:href="#DejaVuSans-6e" x="531.933594"/>
      <use xlink:href="#DejaVuSans-20" x="595.3125"/>
      <use xlink:href="#DejaVuSans-6e" x="627.099609"/>
      <use xlink:href="#DejaVuSans-6d" x="690.478516"/>
     </g>
    </g>
   </g>
   <g id="line2d_28">
    <path d="M 80.262273 433.532727 
L 92.994854 432.219308 
L 105.727436 430.685726 
L 118.460017 428.920715 
L 130.035091 427.103782 
L 141.610165 425.068505 
L 153.185239 422.793702 
L 163.602806 420.522176 
L 174.020373 418.022821 
L 184.437939 415.287002 
L 194.855506 412.315339 
L 205.273072 409.119304 
L 216.848147 405.332108 
L 229.580728 400.928276 
L 244.628324 395.488158 
L 266.620965 387.274934 
L 311.763754 370.116699 
L 347.646483 356.296935 
L 367.324109 348.479609 
L 384.68672 341.349127 
L 404.364346 333.024883 
L 432.144524 321.005311 
L 464.554731 306.743098 
L 490.019894 295.299971 
L 522.430101 280.454692 
L 542.107727 271.393656 
L 542.107727 271.393656 
" clip-path="url(#p19c743654f)" style="fill: none; stroke: #1f77b4; stroke-width: 1.5; stroke-linecap: square"/>
   </g>
   <g id="line2d_29">
    <path d="M 80.262273 433.532727 
L 98.782391 431.682731 
L 110.357465 430.227408 
L 120.775032 428.684548 
L 134.665121 426.305051 
L 148.55521 423.716597 
L 158.972776 421.556587 
L 169.390343 419.164391 
L 179.80791 416.532168 
L 190.225476 413.670263 
L 200.643043 410.571307 
L 212.218117 406.873421 
L 223.793191 402.955685 
L 237.68328 398.010282 
L 256.203398 391.155159 
L 296.716157 375.858776 
L 337.228917 360.342092 
L 358.06405 352.137196 
L 378.899183 343.68777 
L 399.734316 334.990249 
L 420.56945 326.048025 
L 449.507135 313.37935 
L 484.232357 297.919318 
L 510.855027 285.776349 
L 542.107727 271.387273 
L 542.107727 271.387273 
" clip-path="url(#p19c743654f)" style="fill: none; stroke: #ff7f0e; stroke-width: 1.5; stroke-linecap: square"/>
   </g>
   <g id="line2d_30">
    <path d="M 80.262273 433.51474 
L 84.892302 433.211813 
L 89.522332 432.819843 
L 94.152362 432.414711 
L 98.782391 431.956127 
L 103.412421 431.437303 
L 108.04245 430.856863 
L 112.67248 430.244058 
L 117.30251 429.584887 
L 121.932539 428.878554 
L 126.562569 428.101126 
L 131.192599 427.28373 
L 135.822628 426.422891 
L 140.452658 425.524649 
L 145.082687 424.591319 
L 149.712717 423.600565 
L 154.342747 422.567332 
L 158.972776 421.491096 
L 163.602806 420.391336 
L 168.232835 419.238564 
L 172.862865 418.053854 
L 177.492895 416.841171 
L 182.122924 415.546663 
L 186.752954 414.267063 
L 191.382984 412.944634 
L 196.013013 411.568534 
L 200.643043 410.185844 
L 205.273072 408.792902 
L 209.903102 407.30116 
L 214.533132 405.832735 
L 219.163161 404.310832 
L 223.793191 402.805052 
L 228.423221 401.244233 
L 234.210758 399.628639 
L 238.840787 398.050953 
L 243.470817 396.394135 
L 248.100846 394.767207 
L 252.730876 393.081618 
L 257.360906 391.393108 
L 261.990935 389.707105 
L 266.620965 387.960748 
L 271.250995 386.246471 
L 275.881024 384.504951 
L 280.511054 382.707738 
L 285.141083 380.950282 
L 289.771113 379.125185 
L 294.401143 377.338474 
L 299.031172 375.55338 
L 303.661202 373.710084 
L 308.291231 371.862218 
L 312.921261 370.002716 
L 317.551291 368.152793 
L 322.18132 366.291783 
L 326.81135 364.390165 
L 331.44138 362.511135 
L 336.071409 360.632065 
L 340.701439 358.732026 
L 345.331468 356.83154 
L 349.961498 354.920583 
L 354.591528 353.023052 
L 359.221557 351.064169 
L 363.851587 349.168525 
L 368.481617 347.25939 
L 373.111646 345.292007 
L 377.741676 343.363316 
L 382.371705 341.425268 
L 388.159242 339.463439 
L 392.789272 337.52593 
L 397.419302 335.535515 
L 402.049331 333.544097 
L 406.679361 331.611009 
L 411.309391 329.586928 
L 415.93942 327.635178 
L 420.56945 325.618866 
L 425.199479 323.63634 
L 429.829509 321.619809 
L 434.459539 319.612666 
L 439.089568 317.607385 
L 443.719598 315.583064 
L 448.349627 313.556978 
L 452.979657 311.53247 
L 457.609687 309.503788 
L 462.239716 307.489229 
L 466.869746 305.40516 
L 471.499776 303.349603 
L 476.129805 301.3036 
L 480.759835 299.205234 
L 485.389864 297.153256 
L 490.019894 295.06577 
L 494.649924 292.961155 
L 499.279953 290.861359 
L 503.909983 288.727322 
L 508.540013 286.613433 
L 513.170042 284.480795 
L 517.800072 282.329371 
L 522.430101 280.197111 
L 527.060131 278.034717 
L 531.690161 275.898881 
L 536.32019 273.803235 
L 542.107727 271.686531 
" clip-path="url(#p19c743654f)" style="fill: none; stroke-dasharray: 5.55,2.4; stroke-dashoffset: 0; stroke: #2ca02c; stroke-width: 1.5"/>
   </g>
   <g id="patch_9">
    <path d="M 57.17 441.64 
L 57.17 263.28 
" style="fill: none; stroke: #000000; stroke-width: 0.8; stroke-linejoin: miter; stroke-linecap: square"/>
   </g>
   <g id="patch_10">
    <path d="M 565.2 441.64 
L 565.2 263.28 
" style="fill: none; stroke: #000000; stroke-width: 0.8; stroke-linejoin: miter; stroke-linecap: square"/>
   </g>
   <g id="patch_11">
    <path d="M 57.17 441.64 
L 565.2 441.64 
" style="fill: none; stroke: #000000; stroke-width: 0.8; stroke-linejoin: miter; stroke-linecap: square"/>
   </g>
   <g id="patch_12">
    <path d="M 57.17 263.28 
L 565.2 263.28 
" style="fill: none; stroke: #000000; stroke-width: 0.8; stroke-linejoin: miter; stroke-linecap: square"/>
   </g>
   <g id="text_31">
    <!-- Thickness -->
    <g transform="translate(281.531875 257.28) scale(0.12 -0.12)">
     <defs>
      <path id="DejaVuSans-54" d="M -19 4666 
L 3928 4666 
L 3928 4134 
L 2272 4134 
L 2272 0 
L 1638 0 
L 1638 4134 
L -19 4134 
L -19 4666 
z
" transform="scale(0.015625)"/>
     </defs>
     <use xlink:href="#DejaVuSans-54"/>
     <use xlink:href="#DejaVuSans-68" x="61.083984"/>
     <use xlink:href="#DejaVuSans-69" x="124.462891"/>
     <use xlink:href="#DejaVuSans-63" x="152.246094"/>
     <use xlink:href="#DejaVuSans-6b" x="207.226562"/>
     <use xlink:href="#DejaVuSans-6e" x="265.136719"/>
     <use xlink:href="#DejaVuSans-65" x="328.515625"/>
     <use xlink:href="#DejaVuSans-73" x="390.039062"/>
     <use xlink:href="#DejaVuSans-73" x="442.138672"/>
    </g>
   </g>
   <g id="legend_2">
    <g id="patch_13">
     <path d="M 428.353125 315.314375 
L 558.2 315.314375 
Q 560.2 315.314375 560.2 313.314375 
L 560.2 270.28 
Q 560.2 268.28 558.2 268.28 
L 428.353125 268.28 
Q 426.353125 268.28 426.353125 270.28 
L 426.353125 313.314375 
Q 426.353125 315.314375 428.353125 315.314375 
z
" style="fill: #ffffff; opacity: 0.8; stroke: #cccccc; stroke-linejoin: miter"/>
    </g>
    <g id="line2d_31">
     <path d="M 430.353125 276.378438 
L 440.353125 276.378438 
L 450.353125 276.378438 
" style="fill: none; stroke: #1f77b4; stroke-width: 1.5; stroke-linecap: square"/>
    </g>
    <g id="text_32">
     <!-- true thickness -->
     <g transform="translate(458.353125 279.878438) scale(0.1 -0.1)">
      <use xlink:href="#DejaVuSans-74"/>
      <use xlink:href="#DejaVuSans-72" x="39.208984"/>
      <use xlink:href="#DejaVuSans-75" x="80.322266"/>
      <use xlink:href="#DejaVuSans-65" x="143.701172"/>
      <use xlink:href="#DejaVuSans-20" x="205.224609"/>
      <use xlink:href="#DejaVuSans-74" x="237.011719"/>
      <use xlink:href="#DejaVuSans-68" x="276.220703"/>
      <use xlink:href="#DejaVuSans-69" x="339.599609"/>
      <use xlink:href="#DejaVuSans-63" x="367.382812"/>
      <use xlink:href="#DejaVuSans-6b" x="422.363281"/>
      <use xlink:href="#DejaVuSans-6e" x="480.273438"/>
      <use xlink:href="#DejaVuSans-65" x="543.652344"/>
      <use xlink:href="#DejaVuSans-73" x="605.175781"/>
      <use xlink:href="#DejaVuSans-73" x="657.275391"/>
     </g>
    </g>
    <g id="line2d_32">
     <path d="M 430.353125 291.056563 
L 440.353125 291.056563 
L 450.353125 291.056563 
" style="fill: none; stroke: #ff7f0e; stroke-width: 1.5; stroke-linecap: square"/>
    </g>
    <g id="text_33">
     <!-- predicted thickness -->
     <g transform="translate(458.353125 294.556563) scale(0.1 -0.1)">
      <use xlink:href="#DejaVuSans-70"/>
      <use xlink:href="#DejaVuSans-72" x="63.476562"/>
      <use xlink:href="#DejaVuSans-65" x="102.339844"/>
      <use xlink:href="#DejaVuSans-64" x="163.863281"/>
      <use xlink:href="#DejaVuSans-69" x="227.339844"/>
      <use xlink:href="#DejaVuSans-63" x="255.123047"/>
      <use xlink:href="#DejaVuSans-74" x="310.103516"/>
      <use xlink:href="#DejaVuSans-65" x="349.3125"/>
      <use xlink:href="#DejaVuSans-64" x="410.835938"/>
      <use xlink:href="#DejaVuSans-20" x="474.3125"/>
      <use xlink:href="#DejaVuSans-74" x="506.099609"/>
      <use xlink:href="#DejaVuSans-68" x="545.308594"/>
      <use xlink:href="#DejaVuSans-69" x="608.6875"/>
      <use xlink:href="#DejaVuSans-63" x="636.470703"/>
      <use xlink:href="#DejaVuSans-6b" x="691.451172"/>
      <use xlink:href="#DejaVuSans-6e" x="749.361328"/>
      <use xlink:href="#DejaVuSans-65" x="812.740234"/>
      <use xlink:href="#DejaVuSans-73" x="874.263672"/>
      <use xlink:href="#DejaVuSans-73" x="926.363281"/>
     </g>
    </g>
    <g id="line2d_33">
     <path d="M 430.353125 305.734688 
L 440.353125 305.734688 
L 450.353125 305.734688 
" style="fill: none; stroke-dasharray: 5.55,2.4; stroke-dashoffset: 0; stroke: #2ca02c; stroke-width: 1.5"/>
    </g>
    <g id="text_34">
     <!-- initial prediction -->
     <g transform="translate(458.353125 309.234688) scale(0.1 -0.1)">
      <use xlink:href="#DejaVuSans-69"/>
      <use xlink:href="#DejaVuSans-6e" x="27.783203"/>
      <use xlink:href="#DejaVuSans-69" x="91.162109"/>
      <use xlink:href="#DejaVuSans-74" x="118.945312"/>
      <use xlink:href="#DejaVuSans-69" x="158.154297"/>
      <use xlink:href="#DejaVuSans-61" x="185.9375"/>
      <use xlink:href="#DejaVuSans-6c" x="247.216797"/>
      <use xlink:href="#DejaVuSans-20" x="275"/>
      <use xlink:href="#DejaVuSans-70" x="306.787109"/>
      <use xlink:href="#DejaVuSans-72" x="370.263672"/>
      <use xlink:href="#DejaVuSans-65" x="409.126953"/>
      <use xlink:href="#DejaVuSans-64" x="470.650391"/>
      <use xlink:href="#DejaVuSans-69" x="534.126953"/>
      <use xlink:href="#DejaVuSans-63" x="561.910156"/>
      <use xlink:href="#DejaVuSans-74" x="616.890625"/>
      <use xlink:href="#DejaVuSans-69" x="656.099609"/>
      <use xlink:href="#DejaVuSans-6f" x="683.882812"/>
      <use xlink:href="#DejaVuSans-6e" x="745.064453"/>
     </g>
    </g>
   </g>
  </g>
  <g id="axes_3">
   <g id="patch_14">
    <path d="M 57.17 678.04 
L 565.2 678.04 
L 565.2 499.68 
L 57.17 499.68 
z
" style="fill: #ffffff"/>
   </g>
   <g id="matplotlib.axis_5">
    <g id="xtick_13">
     <g id="line2d_34">
      <g>
       <use xlink:href="#m642534d9cb" x="80.262273" y="678.04" style="stroke: #000000; stroke-width: 0.8"/>
      </g>
     </g>
     <g id="text_35">
      <!-- 0.0 -->
      <g transform="translate(72.31071 692.638438) scale(0.1 -0.1)">
       <use xlink:href="#DejaVuSans-30"/>
       <use xlink:href="#DejaVuSans-2e" x="63.623047"/>
       <use xlink:href="#DejaVuSans-30" x="95.410156"/>
      </g>
     </g>
    </g>
    <g id="xtick_14">
     <g id="line2d_35">
      <g>
       <use xlink:href="#m642534d9cb" x="172.631364" y="678.04" style="stroke: #000000; stroke-width: 0.8"/>
      </g>
     </g>
     <g id="text_36">
      <!-- 0.2 -->
      <g transform="translate(164.679801 692.638438) scale(0.1 -0.1)">
       <use xlink:href="#DejaVuSans-30"/>
       <use xlink:href="#DejaVuSans-2e" x="63.623047"/>
       <use xlink:href="#DejaVuSans-32" x="95.410156"/>
      </g>
     </g>
    </g>
    <g id="xtick_15">
     <g id="line2d_36">
      <g>
       <use xlink:href="#m642534d9cb" x="265.000455" y="678.04" style="stroke: #000000; stroke-width: 0.8"/>
      </g>
     </g>
     <g id="text_37">
      <!-- 0.4 -->
      <g transform="translate(257.048892 692.638438) scale(0.1 -0.1)">
       <use xlink:href="#DejaVuSans-30"/>
       <use xlink:href="#DejaVuSans-2e" x="63.623047"/>
       <use xlink:href="#DejaVuSans-34" x="95.410156"/>
      </g>
     </g>
    </g>
    <g id="xtick_16">
     <g id="line2d_37">
      <g>
       <use xlink:href="#m642534d9cb" x="357.369545" y="678.04" style="stroke: #000000; stroke-width: 0.8"/>
      </g>
     </g>
     <g id="text_38">
      <!-- 0.6 -->
      <g transform="translate(349.417983 692.638438) scale(0.1 -0.1)">
       <use xlink:href="#DejaVuSans-30"/>
       <use xlink:href="#DejaVuSans-2e" x="63.623047"/>
       <use xlink:href="#DejaVuSans-36" x="95.410156"/>
      </g>
     </g>
    </g>
    <g id="xtick_17">
     <g id="line2d_38">
      <g>
       <use xlink:href="#m642534d9cb" x="449.738636" y="678.04" style="stroke: #000000; stroke-width: 0.8"/>
      </g>
     </g>
     <g id="text_39">
      <!-- 0.8 -->
      <g transform="translate(441.787074 692.638438) scale(0.1 -0.1)">
       <use xlink:href="#DejaVuSans-30"/>
       <use xlink:href="#DejaVuSans-2e" x="63.623047"/>
       <use xlink:href="#DejaVuSans-38" x="95.410156"/>
      </g>
     </g>
    </g>
    <g id="xtick_18">
     <g id="line2d_39">
      <g>
       <use xlink:href="#m642534d9cb" x="542.107727" y="678.04" style="stroke: #000000; stroke-width: 0.8"/>
      </g>
     </g>
     <g id="text_40">
      <!-- 1.0 -->
      <g transform="translate(534.156165 692.638438) scale(0.1 -0.1)">
       <use xlink:href="#DejaVuSans-31"/>
       <use xlink:href="#DejaVuSans-2e" x="63.623047"/>
       <use xlink:href="#DejaVuSans-30" x="95.410156"/>
      </g>
     </g>
    </g>
    <g id="text_41">
     <!-- time in hours -->
     <g transform="translate(278.095937 706.316563) scale(0.1 -0.1)">
      <use xlink:href="#DejaVuSans-74"/>
      <use xlink:href="#DejaVuSans-69" x="39.208984"/>
      <use xlink:href="#DejaVuSans-6d" x="66.992188"/>
      <use xlink:href="#DejaVuSans-65" x="164.404297"/>
      <use xlink:href="#DejaVuSans-20" x="225.927734"/>
      <use xlink:href="#DejaVuSans-69" x="257.714844"/>
      <use xlink:href="#DejaVuSans-6e" x="285.498047"/>
      <use xlink:href="#DejaVuSans-20" x="348.876953"/>
      <use xlink:href="#DejaVuSans-68" x="380.664062"/>
      <use xlink:href="#DejaVuSans-6f" x="444.042969"/>
      <use xlink:href="#DejaVuSans-75" x="505.224609"/>
      <use xlink:href="#DejaVuSans-72" x="568.603516"/>
      <use xlink:href="#DejaVuSans-73" x="609.716797"/>
     </g>
    </g>
   </g>
   <g id="matplotlib.axis_6">
    <g id="ytick_12">
     <g id="line2d_40">
      <g>
       <use xlink:href="#mbbb59c8c59" x="57.17" y="670.548534" style="stroke: #000000; stroke-width: 0.8"/>
      </g>
     </g>
     <g id="text_42">
      <!-- 200 -->
      <g transform="translate(31.0825 674.347753) scale(0.1 -0.1)">
       <use xlink:href="#DejaVuSans-32"/>
       <use xlink:href="#DejaVuSans-30" x="63.623047"/>
       <use xlink:href="#DejaVuSans-30" x="127.246094"/>
      </g>
     </g>
    </g>
    <g id="ytick_13">
     <g id="line2d_41">
      <g>
       <use xlink:href="#mbbb59c8c59" x="57.17" y="644.559127" style="stroke: #000000; stroke-width: 0.8"/>
      </g>
     </g>
     <g id="text_43">
      <!-- 400 -->
      <g transform="translate(31.0825 648.358346) scale(0.1 -0.1)">
       <use xlink:href="#DejaVuSans-34"/>
       <use xlink:href="#DejaVuSans-30" x="63.623047"/>
       <use xlink:href="#DejaVuSans-30" x="127.246094"/>
      </g>
     </g>
    </g>
    <g id="ytick_14">
     <g id="line2d_42">
      <g>
       <use xlink:href="#mbbb59c8c59" x="57.17" y="618.56972" style="stroke: #000000; stroke-width: 0.8"/>
      </g>
     </g>
     <g id="text_44">
      <!-- 600 -->
      <g transform="translate(31.0825 622.368939) scale(0.1 -0.1)">
       <use xlink:href="#DejaVuSans-36"/>
       <use xlink:href="#DejaVuSans-30" x="63.623047"/>
       <use xlink:href="#DejaVuSans-30" x="127.246094"/>
      </g>
     </g>
    </g>
    <g id="ytick_15">
     <g id="line2d_43">
      <g>
       <use xlink:href="#mbbb59c8c59" x="57.17" y="592.580313" style="stroke: #000000; stroke-width: 0.8"/>
      </g>
     </g>
     <g id="text_45">
      <!-- 800 -->
      <g transform="translate(31.0825 596.379532) scale(0.1 -0.1)">
       <use xlink:href="#DejaVuSans-38"/>
       <use xlink:href="#DejaVuSans-30" x="63.623047"/>
       <use xlink:href="#DejaVuSans-30" x="127.246094"/>
      </g>
     </g>
    </g>
    <g id="ytick_16">
     <g id="line2d_44">
      <g>
       <use xlink:href="#mbbb59c8c59" x="57.17" y="566.590906" style="stroke: #000000; stroke-width: 0.8"/>
      </g>
     </g>
     <g id="text_46">
      <!-- 1000 -->
      <g transform="translate(24.72 570.390125) scale(0.1 -0.1)">
       <use xlink:href="#DejaVuSans-31"/>
       <use xlink:href="#DejaVuSans-30" x="63.623047"/>
       <use xlink:href="#DejaVuSans-30" x="127.246094"/>
       <use xlink:href="#DejaVuSans-30" x="190.869141"/>
      </g>
     </g>
    </g>
    <g id="ytick_17">
     <g id="line2d_45">
      <g>
       <use xlink:href="#mbbb59c8c59" x="57.17" y="540.601499" style="stroke: #000000; stroke-width: 0.8"/>
      </g>
     </g>
     <g id="text_47">
      <!-- 1200 -->
      <g transform="translate(24.72 544.400717) scale(0.1 -0.1)">
       <use xlink:href="#DejaVuSans-31"/>
       <use xlink:href="#DejaVuSans-32" x="63.623047"/>
       <use xlink:href="#DejaVuSans-30" x="127.246094"/>
       <use xlink:href="#DejaVuSans-30" x="190.869141"/>
      </g>
     </g>
    </g>
    <g id="ytick_18">
     <g id="line2d_46">
      <g>
       <use xlink:href="#mbbb59c8c59" x="57.17" y="514.612092" style="stroke: #000000; stroke-width: 0.8"/>
      </g>
     </g>
     <g id="text_48">
      <!-- 1400 -->
      <g transform="translate(24.72 518.41131) scale(0.1 -0.1)">
       <use xlink:href="#DejaVuSans-31"/>
       <use xlink:href="#DejaVuSans-34" x="63.623047"/>
       <use xlink:href="#DejaVuSans-30" x="127.246094"/>
       <use xlink:href="#DejaVuSans-30" x="190.869141"/>
      </g>
     </g>
    </g>
    <g id="text_49">
     <!-- growth rate in nm/h -->
     <g transform="translate(18.640313 638.627969) rotate(-90) scale(0.1 -0.1)">
      <defs>
       <path id="DejaVuSans-67" d="M 2906 1791 
Q 2906 2416 2648 2759 
Q 2391 3103 1925 3103 
Q 1463 3103 1205 2759 
Q 947 2416 947 1791 
Q 947 1169 1205 825 
Q 1463 481 1925 481 
Q 2391 481 2648 825 
Q 2906 1169 2906 1791 
z
M 3481 434 
Q 3481 -459 3084 -895 
Q 2688 -1331 1869 -1331 
Q 1566 -1331 1297 -1286 
Q 1028 -1241 775 -1147 
L 775 -588 
Q 1028 -725 1275 -790 
Q 1522 -856 1778 -856 
Q 2344 -856 2625 -561 
Q 2906 -266 2906 331 
L 2906 616 
Q 2728 306 2450 153 
Q 2172 0 1784 0 
Q 1141 0 747 490 
Q 353 981 353 1791 
Q 353 2603 747 3093 
Q 1141 3584 1784 3584 
Q 2172 3584 2450 3431 
Q 2728 3278 2906 2969 
L 2906 3500 
L 3481 3500 
L 3481 434 
z
" transform="scale(0.015625)"/>
       <path id="DejaVuSans-77" d="M 269 3500 
L 844 3500 
L 1563 769 
L 2278 3500 
L 2956 3500 
L 3675 769 
L 4391 3500 
L 4966 3500 
L 4050 0 
L 3372 0 
L 2619 2869 
L 1863 0 
L 1184 0 
L 269 3500 
z
" transform="scale(0.015625)"/>
       <path id="DejaVuSans-2f" d="M 1625 4666 
L 2156 4666 
L 531 -594 
L 0 -594 
L 1625 4666 
z
" transform="scale(0.015625)"/>
      </defs>
      <use xlink:href="#DejaVuSans-67"/>
      <use xlink:href="#DejaVuSans-72" x="63.476562"/>
      <use xlink:href="#DejaVuSans-6f" x="102.339844"/>
      <use xlink:href="#DejaVuSans-77" x="163.521484"/>
      <use xlink:href="#DejaVuSans-74" x="245.308594"/>
      <use xlink:href="#DejaVuSans-68" x="284.517578"/>
      <use xlink:href="#DejaVuSans-20" x="347.896484"/>
      <use xlink:href="#DejaVuSans-72" x="379.683594"/>
      <use xlink:href="#DejaVuSans-61" x="420.796875"/>
      <use xlink:href="#DejaVuSans-74" x="482.076172"/>
      <use xlink:href="#DejaVuSans-65" x="521.285156"/>
      <use xlink:href="#DejaVuSans-20" x="582.808594"/>
      <use xlink:href="#DejaVuSans-69" x="614.595703"/>
      <use xlink:href="#DejaVuSans-6e" x="642.378906"/>
      <use xlink:href="#DejaVuSans-20" x="705.757812"/>
      <use xlink:href="#DejaVuSans-6e" x="737.544922"/>
      <use xlink:href="#DejaVuSans-6d" x="800.923828"/>
      <use xlink:href="#DejaVuSans-2f" x="898.335938"/>
      <use xlink:href="#DejaVuSans-68" x="932.027344"/>
     </g>
    </g>
   </g>
   <g id="line2d_47">
    <path d="M 80.262273 657.973234 
L 89.522332 653.043705 
L 99.939899 647.245831 
L 110.357465 641.215587 
L 119.617524 635.629342 
L 127.720076 630.50017 
L 134.665121 625.866274 
L 141.610165 620.966597 
L 148.55521 615.771075 
L 155.500254 610.272187 
L 162.445298 604.492796 
L 170.54785 597.466473 
L 196.013013 575.077761 
L 201.80055 570.356804 
L 207.588087 565.923585 
L 212.218117 562.623961 
L 216.848147 559.570127 
L 221.478176 556.779132 
L 226.108206 554.263504 
L 230.738235 552.027793 
L 235.368265 550.070373 
L 239.998295 548.384039 
L 244.628324 546.956923 
L 249.258354 545.772397 
L 253.888383 544.809492 
L 258.518413 544.042876 
L 264.30595 543.318335 
L 271.250995 542.714019 
L 279.353546 542.254439 
L 290.92862 541.840859 
L 319.866306 540.906965 
L 327.968857 540.366336 
L 333.756394 539.785628 
L 339.543931 538.993067 
L 345.331468 537.964576 
L 351.119005 536.700628 
L 356.906542 535.226207 
L 365.009094 532.896025 
L 388.159242 526.006338 
L 395.104287 524.290981 
L 400.891824 523.071639 
L 406.679361 522.046894 
L 413.624405 521.048297 
L 421.726957 520.127773 
L 434.459539 518.957417 
L 450.664642 517.43234 
L 459.924702 516.346651 
L 470.342268 514.886562 
L 496.964938 510.970178 
L 503.909983 510.268617 
L 510.855027 509.792976 
L 518.957579 509.481822 
L 530.532653 509.295345 
L 542.107727 509.216036 
L 542.107727 509.216036 
" clip-path="url(#p704f15b7fc)" style="fill: none; stroke: #1f77b4; stroke-width: 1.5; stroke-linecap: square"/>
   </g>
   <g id="line2d_48">
    <path d="M 80.262273 658.044796 
L 87.207317 657.902972 
L 89.522332 657.360386 
L 91.837347 655.964996 
L 94.152362 654.331298 
L 96.467376 652.022075 
L 98.782391 649.278322 
L 101.097406 647.971095 
L 105.727436 644.646341 
L 110.357465 641.040546 
L 114.987495 637.089605 
L 117.30251 634.820205 
L 119.617524 632.209126 
L 121.932539 628.914521 
L 126.562569 627.281341 
L 135.822628 623.745222 
L 139.29515 622.186913 
L 141.610165 621.013919 
L 143.92518 619.647993 
L 147.397702 617.261408 
L 152.027732 613.679526 
L 157.815269 608.872906 
L 163.602806 603.765947 
L 167.075328 600.469888 
L 169.390343 598.20242 
L 176.335387 592.324436 
L 180.965417 588.191907 
L 187.910461 582.424133 
L 193.697998 577.209593 
L 201.80055 569.620743 
L 209.903102 564.341077 
L 221.478176 556.551167 
L 223.793191 554.974356 
L 235.368265 549.628125 
L 239.998295 547.90933 
L 244.628324 546.40419 
L 248.100846 545.492626 
L 251.573369 544.800911 
L 256.203398 544.233057 
L 260.833428 543.858879 
L 273.566009 543.133558 
L 331.44138 539.998505 
L 340.701439 537.979915 
L 377.741676 529.488601 
L 414.781913 520.911347 
L 420.56945 520.197765 
L 443.719598 517.535098 
L 450.664642 516.8522 
L 457.609687 516.717266 
L 462.239716 516.674718 
L 466.869746 515.876196 
L 481.917342 513.294153 
L 492.334909 511.707441 
L 503.909983 510.065894 
L 542.107727 508.795366 
L 542.107727 508.795366 
" clip-path="url(#p704f15b7fc)" style="fill: none; stroke: #ff7f0e; stroke-width: 1.5; stroke-linecap: square"/>
   </g>
   <g id="line2d_49">
    <path d="M 80.262273 669.932727 
L 84.892302 666.022519 
L 89.522332 661.534324 
L 94.152362 658.609114 
L 98.782391 653.616463 
L 103.412421 648.265296 
L 108.04245 644.138302 
L 112.67248 640.680928 
L 117.30251 636.573786 
L 121.932539 631.380679 
L 126.562569 626.503505 
L 131.192599 622.840681 
L 135.822628 619.290384 
L 140.452658 616.107059 
L 145.082687 612.044569 
L 149.712717 607.657407 
L 154.342747 603.903584 
L 158.972776 600.9822 
L 163.602806 597.621235 
L 168.232835 593.890728 
L 172.862865 591.25984 
L 177.492895 586.438214 
L 182.122924 583.499612 
L 186.752954 582.27354 
L 191.382984 578.035918 
L 196.013013 575.38961 
L 200.643043 574.649987 
L 205.273072 569.861135 
L 209.903102 566.54645 
L 214.533132 565.221949 
L 219.163161 563.581528 
L 223.793191 561.872622 
L 228.423221 569.930265 
L 234.210758 569.107254 
L 238.840787 554.499308 
L 243.470817 552.336939 
L 248.100846 551.073484 
L 252.730876 548.369151 
L 257.360906 548.350988 
L 261.990935 545.810745 
L 266.620965 544.569124 
L 271.250995 544.781536 
L 275.881024 541.13952 
L 280.511054 540.439723 
L 285.141083 539.215228 
L 289.771113 537.930532 
L 294.401143 539.687194 
L 299.031172 537.202356 
L 303.661202 534.445828 
L 308.291231 533.734161 
L 312.921261 533.643827 
L 317.551291 533.577572 
L 322.18132 531.307475 
L 326.81135 530.516206 
L 331.44138 531.506343 
L 336.071409 530.583733 
L 340.701439 529.643272 
L 345.331468 529.163843 
L 349.961498 529.293616 
L 354.591528 527.189023 
L 359.221557 527.271882 
L 363.851587 529.456458 
L 368.481617 526.306153 
L 373.111646 525.447425 
L 377.741676 526.735626 
L 382.371705 540.712124 
L 388.159242 540.738472 
L 392.789272 524.048771 
L 397.419302 521.681412 
L 402.049331 524.198863 
L 406.679361 522.764495 
L 411.309391 521.944948 
L 415.93942 522.28615 
L 420.56945 520.934675 
L 425.199479 520.925033 
L 429.829509 519.844022 
L 434.459539 520.338029 
L 439.089568 519.583726 
L 443.719598 518.670106 
L 448.349627 518.661849 
L 452.979657 518.547854 
L 457.609687 518.984752 
L 462.239716 516.552556 
L 466.869746 514.752189 
L 471.499776 516.423755 
L 476.129805 514.543871 
L 480.759835 514.281497 
L 485.389864 514.759278 
L 490.019894 512.447806 
L 494.649924 511.907216 
L 499.279953 510.615183 
L 503.909983 509.996301 
L 508.540013 510.057757 
L 513.170042 508.409448 
L 517.800072 508.426049 
L 522.430101 507.944327 
L 527.060131 507.787273 
L 531.690161 510.718448 
L 536.32019 528.186143 
L 542.107727 547.814638 
" clip-path="url(#p704f15b7fc)" style="fill: none; stroke-dasharray: 5.55,2.4; stroke-dashoffset: 0; stroke: #2ca02c; stroke-width: 1.5"/>
   </g>
   <g id="patch_15">
    <path d="M 57.17 678.04 
L 57.17 499.68 
" style="fill: none; stroke: #000000; stroke-width: 0.8; stroke-linejoin: miter; stroke-linecap: square"/>
   </g>
   <g id="patch_16">
    <path d="M 565.2 678.04 
L 565.2 499.68 
" style="fill: none; stroke: #000000; stroke-width: 0.8; stroke-linejoin: miter; stroke-linecap: square"/>
   </g>
   <g id="patch_17">
    <path d="M 57.17 678.04 
L 565.2 678.04 
" style="fill: none; stroke: #000000; stroke-width: 0.8; stroke-linejoin: miter; stroke-linecap: square"/>
   </g>
   <g id="patch_18">
    <path d="M 57.17 499.68 
L 565.2 499.68 
" style="fill: none; stroke: #000000; stroke-width: 0.8; stroke-linejoin: miter; stroke-linecap: square"/>
   </g>
   <g id="text_50">
    <!-- Growth Rate -->
    <g transform="translate(273.809687 493.68) scale(0.12 -0.12)">
     <defs>
      <path id="DejaVuSans-47" d="M 3809 666 
L 3809 1919 
L 2778 1919 
L 2778 2438 
L 4434 2438 
L 4434 434 
Q 4069 175 3628 42 
Q 3188 -91 2688 -91 
Q 1594 -91 976 548 
Q 359 1188 359 2328 
Q 359 3472 976 4111 
Q 1594 4750 2688 4750 
Q 3144 4750 3555 4637 
Q 3966 4525 4313 4306 
L 4313 3634 
Q 3963 3931 3569 4081 
Q 3175 4231 2741 4231 
Q 1884 4231 1454 3753 
Q 1025 3275 1025 2328 
Q 1025 1384 1454 906 
Q 1884 428 2741 428 
Q 3075 428 3337 486 
Q 3600 544 3809 666 
z
" transform="scale(0.015625)"/>
     </defs>
     <use xlink:href="#DejaVuSans-47"/>
     <use xlink:href="#DejaVuSans-72" x="77.490234"/>
     <use xlink:href="#DejaVuSans-6f" x="116.353516"/>
     <use xlink:href="#DejaVuSans-77" x="177.535156"/>
     <use xlink:href="#DejaVuSans-74" x="259.322266"/>
     <use xlink:href="#DejaVuSans-68" x="298.53125"/>
     <use xlink:href="#DejaVuSans-20" x="361.910156"/>
     <use xlink:href="#DejaVuSans-52" x="393.697266"/>
     <use xlink:href="#DejaVuSans-61" x="460.929688"/>
     <use xlink:href="#DejaVuSans-74" x="522.208984"/>
     <use xlink:href="#DejaVuSans-65" x="561.417969"/>
    </g>
   </g>
   <g id="legend_3">
    <g id="patch_19">
     <path d="M 417.307812 673.04 
L 558.2 673.04 
Q 560.2 673.04 560.2 671.04 
L 560.2 628.005625 
Q 560.2 626.005625 558.2 626.005625 
L 417.307812 626.005625 
Q 415.307812 626.005625 415.307812 628.005625 
L 415.307812 671.04 
Q 415.307812 673.04 417.307812 673.04 
z
" style="fill: #ffffff; opacity: 0.8; stroke: #cccccc; stroke-linejoin: miter"/>
    </g>
    <g id="line2d_50">
     <path d="M 419.307812 634.104063 
L 429.307812 634.104063 
L 439.307812 634.104063 
" style="fill: none; stroke: #1f77b4; stroke-width: 1.5; stroke-linecap: square"/>
    </g>
    <g id="text_51">
     <!-- true growth rate -->
     <g transform="translate(447.307812 637.604063) scale(0.1 -0.1)">
      <use xlink:href="#DejaVuSans-74"/>
      <use xlink:href="#DejaVuSans-72" x="39.208984"/>
      <use xlink:href="#DejaVuSans-75" x="80.322266"/>
      <use xlink:href="#DejaVuSans-65" x="143.701172"/>
      <use xlink:href="#DejaVuSans-20" x="205.224609"/>
      <use xlink:href="#DejaVuSans-67" x="237.011719"/>
      <use xlink:href="#DejaVuSans-72" x="300.488281"/>
      <use xlink:href="#DejaVuSans-6f" x="339.351562"/>
      <use xlink:href="#DejaVuSans-77" x="400.533203"/>
      <use xlink:href="#DejaVuSans-74" x="482.320312"/>
      <use xlink:href="#DejaVuSans-68" x="521.529297"/>
      <use xlink:href="#DejaVuSans-20" x="584.908203"/>
      <use xlink:href="#DejaVuSans-72" x="616.695312"/>
      <use xlink:href="#DejaVuSans-61" x="657.808594"/>
      <use xlink:href="#DejaVuSans-74" x="719.087891"/>
      <use xlink:href="#DejaVuSans-65" x="758.296875"/>
     </g>
    </g>
    <g id="line2d_51">
     <path d="M 419.307812 648.782187 
L 429.307812 648.782187 
L 439.307812 648.782187 
" style="fill: none; stroke: #ff7f0e; stroke-width: 1.5; stroke-linecap: square"/>
    </g>
    <g id="text_52">
     <!-- predicted growth rate -->
     <g transform="translate(447.307812 652.282187) scale(0.1 -0.1)">
      <use xlink:href="#DejaVuSans-70"/>
      <use xlink:href="#DejaVuSans-72" x="63.476562"/>
      <use xlink:href="#DejaVuSans-65" x="102.339844"/>
      <use xlink:href="#DejaVuSans-64" x="163.863281"/>
      <use xlink:href="#DejaVuSans-69" x="227.339844"/>
      <use xlink:href="#DejaVuSans-63" x="255.123047"/>
      <use xlink:href="#DejaVuSans-74" x="310.103516"/>
      <use xlink:href="#DejaVuSans-65" x="349.3125"/>
      <use xlink:href="#DejaVuSans-64" x="410.835938"/>
      <use xlink:href="#DejaVuSans-20" x="474.3125"/>
      <use xlink:href="#DejaVuSans-67" x="506.099609"/>
      <use xlink:href="#DejaVuSans-72" x="569.576172"/>
      <use xlink:href="#DejaVuSans-6f" x="608.439453"/>
      <use xlink:href="#DejaVuSans-77" x="669.621094"/>
      <use xlink:href="#DejaVuSans-74" x="751.408203"/>
      <use xlink:href="#DejaVuSans-68" x="790.617188"/>
      <use xlink:href="#DejaVuSans-20" x="853.996094"/>
      <use xlink:href="#DejaVuSans-72" x="885.783203"/>
      <use xlink:href="#DejaVuSans-61" x="926.896484"/>
      <use xlink:href="#DejaVuSans-74" x="988.175781"/>
      <use xlink:href="#DejaVuSans-65" x="1027.384766"/>
     </g>
    </g>
    <g id="line2d_52">
     <path d="M 419.307812 663.460312 
L 429.307812 663.460312 
L 439.307812 663.460312 
" style="fill: none; stroke-dasharray: 5.55,2.4; stroke-dashoffset: 0; stroke: #2ca02c; stroke-width: 1.5"/>
    </g>
    <g id="text_53">
     <!-- initial prediction -->
     <g transform="translate(447.307812 666.960312) scale(0.1 -0.1)">
      <use xlink:href="#DejaVuSans-69"/>
      <use xlink:href="#DejaVuSans-6e" x="27.783203"/>
      <use xlink:href="#DejaVuSans-69" x="91.162109"/>
      <use xlink:href="#DejaVuSans-74" x="118.945312"/>
      <use xlink:href="#DejaVuSans-69" x="158.154297"/>
      <use xlink:href="#DejaVuSans-61" x="185.9375"/>
      <use xlink:href="#DejaVuSans-6c" x="247.216797"/>
      <use xlink:href="#DejaVuSans-20" x="275"/>
      <use xlink:href="#DejaVuSans-70" x="306.787109"/>
      <use xlink:href="#DejaVuSans-72" x="370.263672"/>
      <use xlink:href="#DejaVuSans-65" x="409.126953"/>
      <use xlink:href="#DejaVuSans-64" x="470.650391"/>
      <use xlink:href="#DejaVuSans-69" x="534.126953"/>
      <use xlink:href="#DejaVuSans-63" x="561.910156"/>
      <use xlink:href="#DejaVuSans-74" x="616.890625"/>
      <use xlink:href="#DejaVuSans-69" x="656.099609"/>
      <use xlink:href="#DejaVuSans-6f" x="683.882812"/>
      <use xlink:href="#DejaVuSans-6e" x="745.064453"/>
     </g>
    </g>
   </g>
  </g>
 </g>
 <defs>
  <clipPath id="pb9c38d5812">
   <rect x="57.17" y="26.88" width="508.03" height="178.36"/>
  </clipPath>
  <clipPath id="p19c743654f">
   <rect x="57.17" y="263.28" width="508.03" height="178.36"/>
  </clipPath>
  <clipPath id="p704f15b7fc">
   <rect x="57.17" y="499.68" width="508.03" height="178.36"/>
  </clipPath>
 </defs>
</svg>
