<?xml version="1.0" encoding="utf-8" standalone="no"?>
<!DOCTYPE svg PUBLIC "-//W3C//DTD SVG 1.1//EN"
  "http://www.w3.org/Graphics/SVG/1.1/DTD/svg11.dtd">
<svg xmlns:xlink="http://www.w3.org/1999/xlink" width="576pt" height="720pt" viewBox="0 0 576 720" xmlns="http://www.w3.org/2000/svg" version="1.1">
 <metadata>
  <rdf:RDF xmlns:dc="http://purl.org/dc/elements/1.1/" xmlns:cc="http://creativecommons.org/ns#" xmlns:rdf="http://www.w3.org/1999/02/22-rdf-syntax-ns#">
   <cc:Work>
    <dc:type rdf:resource="http://purl.org/dc/dcmitype/StillImage"/>
    <dc:date>2025-05-12T10:37:03.455196</dc:date>
    <dc:format>image/svg+xml</dc:format>
    <dc:creator>
     <cc:Agent>
      <dc:title>Matplotlib v3.9.2, https://matplotlib.org/</dc:title>
     </cc:Agent>
    </dc:creator>
   </cc:Work>
  </rdf:RDF>
 </metadata>
 <defs>
  <style type="text/css">*{stroke-linejoin: round; stroke-linecap: butt}</style>
 </defs>
 <g id="figure_1">
  <g id="patch_1">
   <path d="M 0 720 
L 576 720 
L 576 0 
L 0 0 
z
" style="fill: #ffffff"/>
  </g>
  <g id="axes_1">
   <g id="patch_2">
    <path d="M 57.26 205.24 
L 565.2 205.24 
L 565.2 26.88 
L 57.26 26.88 
z
" style="fill: #ffffff"/>
   </g>
   <g id="matplotlib.axis_1">
    <g id="xtick_1">
     <g id="line2d_1">
      <defs>
       <path id="maed2e43b99" d="M 0 0 
L 0 3.5 
" style="stroke: #000000; stroke-width: 0.8"/>
      </defs>
      <g>
       <use xlink:href="#maed2e43b99" x="80.348182" y="205.24" style="stroke: #000000; stroke-width: 0.8"/>
      </g>
     </g>
     <g id="text_1">
      <!-- 0.0 -->
      <g transform="translate(72.396619 219.838437) scale(0.1 -0.1)">
       <defs>
        <path id="DejaVuSans-30" d="M 2034 4250 
Q 1547 4250 1301 3770 
Q 1056 3291 1056 2328 
Q 1056 1369 1301 889 
Q 1547 409 2034 409 
Q 2525 409 2770 889 
Q 3016 1369 3016 2328 
Q 3016 3291 2770 3770 
Q 2525 4250 2034 4250 
z
M 2034 4750 
Q 2819 4750 3233 4129 
Q 3647 3509 3647 2328 
Q 3647 1150 3233 529 
Q 2819 -91 2034 -91 
Q 1250 -91 836 529 
Q 422 1150 422 2328 
Q 422 3509 836 4129 
Q 1250 4750 2034 4750 
z
" transform="scale(0.015625)"/>
        <path id="DejaVuSans-2e" d="M 684 794 
L 1344 794 
L 1344 0 
L 684 0 
L 684 794 
z
" transform="scale(0.015625)"/>
       </defs>
       <use xlink:href="#DejaVuSans-30"/>
       <use xlink:href="#DejaVuSans-2e" x="63.623047"/>
       <use xlink:href="#DejaVuSans-30" x="95.410156"/>
      </g>
     </g>
    </g>
    <g id="xtick_2">
     <g id="line2d_2">
      <g>
       <use xlink:href="#maed2e43b99" x="172.700909" y="205.24" style="stroke: #000000; stroke-width: 0.8"/>
      </g>
     </g>
     <g id="text_2">
      <!-- 0.2 -->
      <g transform="translate(164.749347 219.838437) scale(0.1 -0.1)">
       <defs>
        <path id="DejaVuSans-32" d="M 1228 531 
L 3431 531 
L 3431 0 
L 469 0 
L 469 531 
Q 828 903 1448 1529 
Q 2069 2156 2228 2338 
Q 2531 2678 2651 2914 
Q 2772 3150 2772 3378 
Q 2772 3750 2511 3984 
Q 2250 4219 1831 4219 
Q 1534 4219 1204 4116 
Q 875 4013 500 3803 
L 500 4441 
Q 881 4594 1212 4672 
Q 1544 4750 1819 4750 
Q 2544 4750 2975 4387 
Q 3406 4025 3406 3419 
Q 3406 3131 3298 2873 
Q 3191 2616 2906 2266 
Q 2828 2175 2409 1742 
Q 1991 1309 1228 531 
z
" transform="scale(0.015625)"/>
       </defs>
       <use xlink:href="#DejaVuSans-30"/>
       <use xlink:href="#DejaVuSans-2e" x="63.623047"/>
       <use xlink:href="#DejaVuSans-32" x="95.410156"/>
      </g>
     </g>
    </g>
    <g id="xtick_3">
     <g id="line2d_3">
      <g>
       <use xlink:href="#maed2e43b99" x="265.053636" y="205.24" style="stroke: #000000; stroke-width: 0.8"/>
      </g>
     </g>
     <g id="text_3">
      <!-- 0.4 -->
      <g transform="translate(257.102074 219.838437) scale(0.1 -0.1)">
       <defs>
        <path id="DejaVuSans-34" d="M 2419 4116 
L 825 1625 
L 2419 1625 
L 2419 4116 
z
M 2253 4666 
L 3047 4666 
L 3047 1625 
L 3713 1625 
L 3713 1100 
L 3047 1100 
L 3047 0 
L 2419 0 
L 2419 1100 
L 313 1100 
L 313 1709 
L 2253 4666 
z
" transform="scale(0.015625)"/>
       </defs>
       <use xlink:href="#DejaVuSans-30"/>
       <use xlink:href="#DejaVuSans-2e" x="63.623047"/>
       <use xlink:href="#DejaVuSans-34" x="95.410156"/>
      </g>
     </g>
    </g>
    <g id="xtick_4">
     <g id="line2d_4">
      <g>
       <use xlink:href="#maed2e43b99" x="357.406364" y="205.24" style="stroke: #000000; stroke-width: 0.8"/>
      </g>
     </g>
     <g id="text_4">
      <!-- 0.6 -->
      <g transform="translate(349.454801 219.838437) scale(0.1 -0.1)">
       <defs>
        <path id="DejaVuSans-36" d="M 2113 2584 
Q 1688 2584 1439 2293 
Q 1191 2003 1191 1497 
Q 1191 994 1439 701 
Q 1688 409 2113 409 
Q 2538 409 2786 701 
Q 3034 994 3034 1497 
Q 3034 2003 2786 2293 
Q 2538 2584 2113 2584 
z
M 3366 4563 
L 3366 3988 
Q 3128 4100 2886 4159 
Q 2644 4219 2406 4219 
Q 1781 4219 1451 3797 
Q 1122 3375 1075 2522 
Q 1259 2794 1537 2939 
Q 1816 3084 2150 3084 
Q 2853 3084 3261 2657 
Q 3669 2231 3669 1497 
Q 3669 778 3244 343 
Q 2819 -91 2113 -91 
Q 1303 -91 875 529 
Q 447 1150 447 2328 
Q 447 3434 972 4092 
Q 1497 4750 2381 4750 
Q 2619 4750 2861 4703 
Q 3103 4656 3366 4563 
z
" transform="scale(0.015625)"/>
       </defs>
       <use xlink:href="#DejaVuSans-30"/>
       <use xlink:href="#DejaVuSans-2e" x="63.623047"/>
       <use xlink:href="#DejaVuSans-36" x="95.410156"/>
      </g>
     </g>
    </g>
    <g id="xtick_5">
     <g id="line2d_5">
      <g>
       <use xlink:href="#maed2e43b99" x="449.759091" y="205.24" style="stroke: #000000; stroke-width: 0.8"/>
      </g>
     </g>
     <g id="text_5">
      <!-- 0.8 -->
      <g transform="translate(441.807528 219.838437) scale(0.1 -0.1)">
       <defs>
        <path id="DejaVuSans-38" d="M 2034 2216 
Q 1584 2216 1326 1975 
Q 1069 1734 1069 1313 
Q 1069 891 1326 650 
Q 1584 409 2034 409 
Q 2484 409 2743 651 
Q 3003 894 3003 1313 
Q 3003 1734 2745 1975 
Q 2488 2216 2034 2216 
z
M 1403 2484 
Q 997 2584 770 2862 
Q 544 3141 544 3541 
Q 544 4100 942 4425 
Q 1341 4750 2034 4750 
Q 2731 4750 3128 4425 
Q 3525 4100 3525 3541 
Q 3525 3141 3298 2862 
Q 3072 2584 2669 2484 
Q 3125 2378 3379 2068 
Q 3634 1759 3634 1313 
Q 3634 634 3220 271 
Q 2806 -91 2034 -91 
Q 1263 -91 848 271 
Q 434 634 434 1313 
Q 434 1759 690 2068 
Q 947 2378 1403 2484 
z
M 1172 3481 
Q 1172 3119 1398 2916 
Q 1625 2713 2034 2713 
Q 2441 2713 2670 2916 
Q 2900 3119 2900 3481 
Q 2900 3844 2670 4047 
Q 2441 4250 2034 4250 
Q 1625 4250 1398 4047 
Q 1172 3844 1172 3481 
z
" transform="scale(0.015625)"/>
       </defs>
       <use xlink:href="#DejaVuSans-30"/>
       <use xlink:href="#DejaVuSans-2e" x="63.623047"/>
       <use xlink:href="#DejaVuSans-38" x="95.410156"/>
      </g>
     </g>
    </g>
    <g id="xtick_6">
     <g id="line2d_6">
      <g>
       <use xlink:href="#maed2e43b99" x="542.111818" y="205.24" style="stroke: #000000; stroke-width: 0.8"/>
      </g>
     </g>
     <g id="text_6">
      <!-- 1.0 -->
      <g transform="translate(534.160256 219.838437) scale(0.1 -0.1)">
       <defs>
        <path id="DejaVuSans-31" d="M 794 531 
L 1825 531 
L 1825 4091 
L 703 3866 
L 703 4441 
L 1819 4666 
L 2450 4666 
L 2450 531 
L 3481 531 
L 3481 0 
L 794 0 
L 794 531 
z
" transform="scale(0.015625)"/>
       </defs>
       <use xlink:href="#DejaVuSans-31"/>
       <use xlink:href="#DejaVuSans-2e" x="63.623047"/>
       <use xlink:href="#DejaVuSans-30" x="95.410156"/>
      </g>
     </g>
    </g>
    <g id="text_7">
     <!-- time in hours -->
     <g transform="translate(278.140937 233.516563) scale(0.1 -0.1)">
      <defs>
       <path id="DejaVuSans-74" d="M 1172 4494 
L 1172 3500 
L 2356 3500 
L 2356 3053 
L 1172 3053 
L 1172 1153 
Q 1172 725 1289 603 
Q 1406 481 1766 481 
L 2356 481 
L 2356 0 
L 1766 0 
Q 1100 0 847 248 
Q 594 497 594 1153 
L 594 3053 
L 172 3053 
L 172 3500 
L 594 3500 
L 594 4494 
L 1172 4494 
z
" transform="scale(0.015625)"/>
       <path id="DejaVuSans-69" d="M 603 3500 
L 1178 3500 
L 1178 0 
L 603 0 
L 603 3500 
z
M 603 4863 
L 1178 4863 
L 1178 4134 
L 603 4134 
L 603 4863 
z
" transform="scale(0.015625)"/>
       <path id="DejaVuSans-6d" d="M 3328 2828 
Q 3544 3216 3844 3400 
Q 4144 3584 4550 3584 
Q 5097 3584 5394 3201 
Q 5691 2819 5691 2113 
L 5691 0 
L 5113 0 
L 5113 2094 
Q 5113 2597 4934 2840 
Q 4756 3084 4391 3084 
Q 3944 3084 3684 2787 
Q 3425 2491 3425 1978 
L 3425 0 
L 2847 0 
L 2847 2094 
Q 2847 2600 2669 2842 
Q 2491 3084 2119 3084 
Q 1678 3084 1418 2786 
Q 1159 2488 1159 1978 
L 1159 0 
L 581 0 
L 581 3500 
L 1159 3500 
L 1159 2956 
Q 1356 3278 1631 3431 
Q 1906 3584 2284 3584 
Q 2666 3584 2933 3390 
Q 3200 3197 3328 2828 
z
" transform="scale(0.015625)"/>
       <path id="DejaVuSans-65" d="M 3597 1894 
L 3597 1613 
L 953 1613 
Q 991 1019 1311 708 
Q 1631 397 2203 397 
Q 2534 397 2845 478 
Q 3156 559 3463 722 
L 3463 178 
Q 3153 47 2828 -22 
Q 2503 -91 2169 -91 
Q 1331 -91 842 396 
Q 353 884 353 1716 
Q 353 2575 817 3079 
Q 1281 3584 2069 3584 
Q 2775 3584 3186 3129 
Q 3597 2675 3597 1894 
z
M 3022 2063 
Q 3016 2534 2758 2815 
Q 2500 3097 2075 3097 
Q 1594 3097 1305 2825 
Q 1016 2553 972 2059 
L 3022 2063 
z
" transform="scale(0.015625)"/>
       <path id="DejaVuSans-20" transform="scale(0.015625)"/>
       <path id="DejaVuSans-6e" d="M 3513 2113 
L 3513 0 
L 2938 0 
L 2938 2094 
Q 2938 2591 2744 2837 
Q 2550 3084 2163 3084 
Q 1697 3084 1428 2787 
Q 1159 2491 1159 1978 
L 1159 0 
L 581 0 
L 581 3500 
L 1159 3500 
L 1159 2956 
Q 1366 3272 1645 3428 
Q 1925 3584 2291 3584 
Q 2894 3584 3203 3211 
Q 3513 2838 3513 2113 
z
" transform="scale(0.015625)"/>
       <path id="DejaVuSans-68" d="M 3513 2113 
L 3513 0 
L 2938 0 
L 2938 2094 
Q 2938 2591 2744 2837 
Q 2550 3084 2163 3084 
Q 1697 3084 1428 2787 
Q 1159 2491 1159 1978 
L 1159 0 
L 581 0 
L 581 4863 
L 1159 4863 
L 1159 2956 
Q 1366 3272 1645 3428 
Q 1925 3584 2291 3584 
Q 2894 3584 3203 3211 
Q 3513 2838 3513 2113 
z
" transform="scale(0.015625)"/>
       <path id="DejaVuSans-6f" d="M 1959 3097 
Q 1497 3097 1228 2736 
Q 959 2375 959 1747 
Q 959 1119 1226 758 
Q 1494 397 1959 397 
Q 2419 397 2687 759 
Q 2956 1122 2956 1747 
Q 2956 2369 2687 2733 
Q 2419 3097 1959 3097 
z
M 1959 3584 
Q 2709 3584 3137 3096 
Q 3566 2609 3566 1747 
Q 3566 888 3137 398 
Q 2709 -91 1959 -91 
Q 1206 -91 779 398 
Q 353 888 353 1747 
Q 353 2609 779 3096 
Q 1206 3584 1959 3584 
z
" transform="scale(0.015625)"/>
       <path id="DejaVuSans-75" d="M 544 1381 
L 544 3500 
L 1119 3500 
L 1119 1403 
Q 1119 906 1312 657 
Q 1506 409 1894 409 
Q 2359 409 2629 706 
Q 2900 1003 2900 1516 
L 2900 3500 
L 3475 3500 
L 3475 0 
L 2900 0 
L 2900 538 
Q 2691 219 2414 64 
Q 2138 -91 1772 -91 
Q 1169 -91 856 284 
Q 544 659 544 1381 
z
M 1991 3584 
L 1991 3584 
z
" transform="scale(0.015625)"/>
       <path id="DejaVuSans-72" d="M 2631 2963 
Q 2534 3019 2420 3045 
Q 2306 3072 2169 3072 
Q 1681 3072 1420 2755 
Q 1159 2438 1159 1844 
L 1159 0 
L 581 0 
L 581 3500 
L 1159 3500 
L 1159 2956 
Q 1341 3275 1631 3429 
Q 1922 3584 2338 3584 
Q 2397 3584 2469 3576 
Q 2541 3569 2628 3553 
L 2631 2963 
z
" transform="scale(0.015625)"/>
       <path id="DejaVuSans-73" d="M 2834 3397 
L 2834 2853 
Q 2591 2978 2328 3040 
Q 2066 3103 1784 3103 
Q 1356 3103 1142 2972 
Q 928 2841 928 2578 
Q 928 2378 1081 2264 
Q 1234 2150 1697 2047 
L 1894 2003 
Q 2506 1872 2764 1633 
Q 3022 1394 3022 966 
Q 3022 478 2636 193 
Q 2250 -91 1575 -91 
Q 1294 -91 989 -36 
Q 684 19 347 128 
L 347 722 
Q 666 556 975 473 
Q 1284 391 1588 391 
Q 1994 391 2212 530 
Q 2431 669 2431 922 
Q 2431 1156 2273 1281 
Q 2116 1406 1581 1522 
L 1381 1569 
Q 847 1681 609 1914 
Q 372 2147 372 2553 
Q 372 3047 722 3315 
Q 1072 3584 1716 3584 
Q 2034 3584 2315 3537 
Q 2597 3491 2834 3397 
z
" transform="scale(0.015625)"/>
      </defs>
      <use xlink:href="#DejaVuSans-74"/>
      <use xlink:href="#DejaVuSans-69" x="39.208984"/>
      <use xlink:href="#DejaVuSans-6d" x="66.992188"/>
      <use xlink:href="#DejaVuSans-65" x="164.404297"/>
      <use xlink:href="#DejaVuSans-20" x="225.927734"/>
      <use xlink:href="#DejaVuSans-69" x="257.714844"/>
      <use xlink:href="#DejaVuSans-6e" x="285.498047"/>
      <use xlink:href="#DejaVuSans-20" x="348.876953"/>
      <use xlink:href="#DejaVuSans-68" x="380.664062"/>
      <use xlink:href="#DejaVuSans-6f" x="444.042969"/>
      <use xlink:href="#DejaVuSans-75" x="505.224609"/>
      <use xlink:href="#DejaVuSans-72" x="568.603516"/>
      <use xlink:href="#DejaVuSans-73" x="609.716797"/>
     </g>
    </g>
   </g>
   <g id="matplotlib.axis_2">
    <g id="ytick_1">
     <g id="line2d_7">
      <defs>
       <path id="m6e426bfe43" d="M 0 0 
L -3.5 0 
" style="stroke: #000000; stroke-width: 0.8"/>
      </defs>
      <g>
       <use xlink:href="#m6e426bfe43" x="57.26" y="197.132727" style="stroke: #000000; stroke-width: 0.8"/>
      </g>
     </g>
     <g id="text_8">
      <!-- −1.0 -->
      <g transform="translate(25.977188 200.931946) scale(0.1 -0.1)">
       <defs>
        <path id="DejaVuSans-2212" d="M 678 2272 
L 4684 2272 
L 4684 1741 
L 678 1741 
L 678 2272 
z
" transform="scale(0.015625)"/>
       </defs>
       <use xlink:href="#DejaVuSans-2212"/>
       <use xlink:href="#DejaVuSans-31" x="83.789062"/>
       <use xlink:href="#DejaVuSans-2e" x="147.412109"/>
       <use xlink:href="#DejaVuSans-30" x="179.199219"/>
      </g>
     </g>
    </g>
    <g id="ytick_2">
     <g id="line2d_8">
      <g>
       <use xlink:href="#m6e426bfe43" x="57.26" y="156.596364" style="stroke: #000000; stroke-width: 0.8"/>
      </g>
     </g>
     <g id="text_9">
      <!-- −0.5 -->
      <g transform="translate(25.977188 160.395582) scale(0.1 -0.1)">
       <defs>
        <path id="DejaVuSans-35" d="M 691 4666 
L 3169 4666 
L 3169 4134 
L 1269 4134 
L 1269 2991 
Q 1406 3038 1543 3061 
Q 1681 3084 1819 3084 
Q 2600 3084 3056 2656 
Q 3513 2228 3513 1497 
Q 3513 744 3044 326 
Q 2575 -91 1722 -91 
Q 1428 -91 1123 -41 
Q 819 9 494 109 
L 494 744 
Q 775 591 1075 516 
Q 1375 441 1709 441 
Q 2250 441 2565 725 
Q 2881 1009 2881 1497 
Q 2881 1984 2565 2268 
Q 2250 2553 1709 2553 
Q 1456 2553 1204 2497 
Q 953 2441 691 2322 
L 691 4666 
z
" transform="scale(0.015625)"/>
       </defs>
       <use xlink:href="#DejaVuSans-2212"/>
       <use xlink:href="#DejaVuSans-30" x="83.789062"/>
       <use xlink:href="#DejaVuSans-2e" x="147.412109"/>
       <use xlink:href="#DejaVuSans-35" x="179.199219"/>
      </g>
     </g>
    </g>
    <g id="ytick_3">
     <g id="line2d_9">
      <g>
       <use xlink:href="#m6e426bfe43" x="57.26" y="116.06" style="stroke: #000000; stroke-width: 0.8"/>
      </g>
     </g>
     <g id="text_10">
      <!-- 0.0 -->
      <g transform="translate(34.356875 119.859219) scale(0.1 -0.1)">
       <use xlink:href="#DejaVuSans-30"/>
       <use xlink:href="#DejaVuSans-2e" x="63.623047"/>
       <use xlink:href="#DejaVuSans-30" x="95.410156"/>
      </g>
     </g>
    </g>
    <g id="ytick_4">
     <g id="line2d_10">
      <g>
       <use xlink:href="#m6e426bfe43" x="57.26" y="75.523636" style="stroke: #000000; stroke-width: 0.8"/>
      </g>
     </g>
     <g id="text_11">
      <!-- 0.5 -->
      <g transform="translate(34.356875 79.322855) scale(0.1 -0.1)">
       <use xlink:href="#DejaVuSans-30"/>
       <use xlink:href="#DejaVuSans-2e" x="63.623047"/>
       <use xlink:href="#DejaVuSans-35" x="95.410156"/>
      </g>
     </g>
    </g>
    <g id="ytick_5">
     <g id="line2d_11">
      <g>
       <use xlink:href="#m6e426bfe43" x="57.26" y="34.987273" style="stroke: #000000; stroke-width: 0.8"/>
      </g>
     </g>
     <g id="text_12">
      <!-- 1.0 -->
      <g transform="translate(34.356875 38.786491) scale(0.1 -0.1)">
       <use xlink:href="#DejaVuSans-31"/>
       <use xlink:href="#DejaVuSans-2e" x="63.623047"/>
       <use xlink:href="#DejaVuSans-30" x="95.410156"/>
      </g>
     </g>
    </g>
    <g id="text_13">
     <!-- reflectance -->
     <g transform="translate(19.8975 144.073281) rotate(-90) scale(0.1 -0.1)">
      <defs>
       <path id="DejaVuSans-66" d="M 2375 4863 
L 2375 4384 
L 1825 4384 
Q 1516 4384 1395 4259 
Q 1275 4134 1275 3809 
L 1275 3500 
L 2222 3500 
L 2222 3053 
L 1275 3053 
L 1275 0 
L 697 0 
L 697 3053 
L 147 3053 
L 147 3500 
L 697 3500 
L 697 3744 
Q 697 4328 969 4595 
Q 1241 4863 1831 4863 
L 2375 4863 
z
" transform="scale(0.015625)"/>
       <path id="DejaVuSans-6c" d="M 603 4863 
L 1178 4863 
L 1178 0 
L 603 0 
L 603 4863 
z
" transform="scale(0.015625)"/>
       <path id="DejaVuSans-63" d="M 3122 3366 
L 3122 2828 
Q 2878 2963 2633 3030 
Q 2388 3097 2138 3097 
Q 1578 3097 1268 2742 
Q 959 2388 959 1747 
Q 959 1106 1268 751 
Q 1578 397 2138 397 
Q 2388 397 2633 464 
Q 2878 531 3122 666 
L 3122 134 
Q 2881 22 2623 -34 
Q 2366 -91 2075 -91 
Q 1284 -91 818 406 
Q 353 903 353 1747 
Q 353 2603 823 3093 
Q 1294 3584 2113 3584 
Q 2378 3584 2631 3529 
Q 2884 3475 3122 3366 
z
" transform="scale(0.015625)"/>
       <path id="DejaVuSans-61" d="M 2194 1759 
Q 1497 1759 1228 1600 
Q 959 1441 959 1056 
Q 959 750 1161 570 
Q 1363 391 1709 391 
Q 2188 391 2477 730 
Q 2766 1069 2766 1631 
L 2766 1759 
L 2194 1759 
z
M 3341 1997 
L 3341 0 
L 2766 0 
L 2766 531 
Q 2569 213 2275 61 
Q 1981 -91 1556 -91 
Q 1019 -91 701 211 
Q 384 513 384 1019 
Q 384 1609 779 1909 
Q 1175 2209 1959 2209 
L 2766 2209 
L 2766 2266 
Q 2766 2663 2505 2880 
Q 2244 3097 1772 3097 
Q 1472 3097 1187 3025 
Q 903 2953 641 2809 
L 641 3341 
Q 956 3463 1253 3523 
Q 1550 3584 1831 3584 
Q 2591 3584 2966 3190 
Q 3341 2797 3341 1997 
z
" transform="scale(0.015625)"/>
      </defs>
      <use xlink:href="#DejaVuSans-72"/>
      <use xlink:href="#DejaVuSans-65" x="38.863281"/>
      <use xlink:href="#DejaVuSans-66" x="100.386719"/>
      <use xlink:href="#DejaVuSans-6c" x="135.591797"/>
      <use xlink:href="#DejaVuSans-65" x="163.375"/>
      <use xlink:href="#DejaVuSans-63" x="224.898438"/>
      <use xlink:href="#DejaVuSans-74" x="279.878906"/>
      <use xlink:href="#DejaVuSans-61" x="319.087891"/>
      <use xlink:href="#DejaVuSans-6e" x="380.367188"/>
      <use xlink:href="#DejaVuSans-63" x="443.746094"/>
      <use xlink:href="#DejaVuSans-65" x="498.726562"/>
     </g>
    </g>
   </g>
   <g id="line2d_12">
    <path d="M 80.348182 34.987273 
L 82.662787 35.071759 
L 84.977391 35.314798 
L 87.291996 35.719857 
L 89.606601 36.291947 
L 91.921205 37.037729 
L 94.23581 37.965645 
L 96.550415 39.086059 
L 98.865019 40.411442 
L 101.179624 41.956565 
L 103.494229 43.738724 
L 105.808833 45.777988 
L 108.123438 48.097448 
L 110.438043 50.723477 
L 112.752648 53.685958 
L 115.067252 57.018462 
L 117.381857 60.758311 
L 119.696462 64.946447 
L 122.011066 69.626994 
L 124.325671 74.846341 
L 126.640276 80.651503 
L 128.95488 87.087452 
L 131.269485 94.193012 
L 133.58409 101.994837 
L 135.898694 110.498961 
L 138.213299 119.67954 
L 141.685206 134.545005 
L 149.786323 170.720265 
L 152.100927 179.813846 
L 153.25823 183.848839 
L 154.415532 187.454011 
L 155.572834 190.566091 
L 156.730137 193.127312 
L 157.887439 195.087896 
L 159.044741 196.408348 
L 160.202044 197.061383 
L 161.359346 197.033295 
L 162.516648 196.324673 
L 163.673951 194.950364 
L 164.831253 192.938713 
L 165.988555 190.330129 
L 167.145858 187.175132 
L 168.30316 183.532034 
L 170.617765 175.038801 
L 172.93237 165.379601 
L 177.561579 144.526039 
L 181.033486 129.047727 
L 184.505393 114.625079 
L 186.819998 105.803775 
L 189.134602 97.677582 
L 191.449207 90.253502 
L 193.763812 83.51311 
L 196.078416 77.422262 
L 198.393021 71.938168 
L 200.707626 67.014319 
L 203.022231 62.603762 
L 205.336835 58.661173 
L 207.65144 55.144065 
L 209.966045 52.013437 
L 212.280649 49.234029 
L 214.595254 46.774337 
L 216.909859 44.606491 
L 219.224463 42.706047 
L 221.539068 41.051751 
L 223.853673 39.625286 
L 226.168278 38.411038 
L 228.482882 37.395871 
L 230.797487 36.568938 
L 233.112092 35.921511 
L 235.426696 35.44685 
L 237.741301 35.140095 
L 240.055906 34.998194 
L 242.37051 35.019853 
L 244.685115 35.205532 
L 246.99972 35.557456 
L 249.314324 36.07967 
L 251.628929 36.778125 
L 253.943534 37.660807 
L 256.258139 38.7379 
L 258.572743 40.022004 
L 260.887348 41.528401 
L 263.201953 43.275386 
L 265.516557 45.284655 
L 267.831162 47.581759 
L 270.145767 50.196631 
L 272.460371 53.164148 
L 274.774976 56.524715 
L 277.089581 60.324811 
L 279.404185 64.617375 
L 281.71879 69.461912 
L 284.033395 74.924017 
L 286.348 81.073858 
L 288.662604 87.983127 
L 290.977209 95.719441 
L 293.291814 104.336916 
L 295.606418 113.861545 
L 297.921023 124.269435 
L 301.39293 141.279999 
L 307.179442 170.688103 
L 309.494046 181.120231 
L 310.651349 185.645286 
L 311.808651 189.558847 
L 312.965954 192.752505 
L 314.123256 195.128895 
L 315.280558 196.607973 
L 316.437861 197.132727 
L 317.595163 196.673631 
L 318.752465 195.231224 
L 319.909768 192.83647 
L 321.06707 189.548797 
L 322.224372 185.452071 
L 323.381675 180.649009 
L 325.696279 169.390261 
L 329.168186 150.151628 
L 333.797396 124.243612 
L 336.112 112.333893 
L 338.426605 101.455482 
L 340.74121 91.686781 
L 343.055815 83.020519 
L 345.370419 75.398505 
L 347.685024 68.736535 
L 349.999629 62.94082 
L 352.314233 57.918011 
L 354.628838 53.58077 
L 356.943443 49.850476 
L 359.258047 46.658173 
L 361.572652 43.944528 
L 363.887257 41.659278 
L 366.201861 39.760467 
L 368.516466 38.213636 
L 370.831071 36.991062 
L 373.145676 36.071096 
L 375.46028 35.437621 
L 377.774885 35.079636 
L 380.08949 34.990959 
L 382.404094 35.170072 
L 384.718699 35.620072 
L 387.033304 36.348763 
L 389.347908 37.368863 
L 391.662513 38.698339 
L 393.977118 40.360878 
L 396.291722 42.386485 
L 398.606327 44.812196 
L 400.920932 47.682899 
L 403.235537 51.052195 
L 405.550141 54.983212 
L 407.864746 59.549172 
L 410.179351 64.83342 
L 412.493955 70.928353 
L 414.80856 77.932423 
L 417.123165 85.943886 
L 419.437769 95.04942 
L 421.752374 105.305089 
L 424.066979 116.70686 
L 426.381584 129.148592 
L 431.010793 155.892971 
L 433.325398 168.996438 
L 435.640002 180.713878 
L 436.797305 185.70804 
L 437.954607 189.940078 
L 439.111909 193.283086 
L 440.269212 195.630436 
L 441.426514 196.903799 
L 442.583816 197.059443 
L 443.741119 196.091895 
L 444.898421 194.034405 
L 446.055723 190.956153 
L 447.213026 186.956604 
L 448.370328 182.157869 
L 450.684933 170.712965 
L 452.999537 157.732616 
L 458.786049 124.50564 
L 461.100654 112.41258 
L 463.415259 101.41362 
L 465.729863 91.572419 
L 468.044468 82.867115 
L 470.359073 75.227741 
L 472.673677 68.561642 
L 474.988282 62.769447 
L 477.302887 57.754344 
L 479.617491 53.426974 
L 481.932096 49.707613 
L 484.246701 46.526767 
L 486.561306 43.8249 
L 488.87591 41.55175 
L 491.190515 39.665485 
L 493.50512 38.131847 
L 495.819724 36.923373 
L 498.134329 36.018723 
L 500.448934 35.402137 
L 502.763538 35.06302 
L 505.078143 34.995663 
L 507.392748 35.199092 
L 509.707352 35.677047 
L 512.021957 36.438087 
L 514.336562 37.495824 
L 516.651167 38.869296 
L 518.965771 40.58347 
L 521.280376 42.669875 
L 523.594981 45.167372 
L 525.909585 48.12301 
L 528.22419 51.592928 
L 530.538795 55.643176 
L 532.853399 60.350262 
L 535.168004 65.801044 
L 537.482609 72.091381 
L 539.797213 79.322567 
L 542.111818 87.594081 
L 542.111818 87.594081 
" clip-path="url(#p0c9d963201)" style="fill: none; stroke: #1f77b4; stroke-width: 1.5; stroke-linecap: square"/>
   </g>
   <g id="line2d_13">
    <path d="M 80.348182 34.987273 
L 82.662787 35.073222 
L 84.977391 35.319818 
L 87.291996 35.729604 
L 89.606601 36.306821 
L 91.921205 37.057478 
L 94.23581 37.989444 
L 96.550415 39.112591 
L 98.865019 40.439085 
L 101.179624 41.983416 
L 103.494229 43.762593 
L 105.808833 45.796838 
L 108.123438 48.109939 
L 110.438043 50.728922 
L 112.752648 53.684122 
L 115.067252 57.009801 
L 117.381857 60.744527 
L 119.696462 64.930468 
L 122.011066 69.613192 
L 124.325671 74.84075 
L 126.640276 80.659515 
L 128.95488 87.107798 
L 131.269485 94.222243 
L 133.58409 102.028031 
L 135.898694 110.529589 
L 138.213299 119.699503 
L 141.685206 134.537261 
L 150.943625 175.38536 
L 153.25823 183.824267 
L 154.415532 187.433081 
L 155.572834 190.549204 
L 156.730137 193.114609 
L 157.887439 195.079267 
L 159.044741 196.403474 
L 160.202044 197.059743 
L 161.359346 197.034203 
L 162.516648 196.327353 
L 163.673951 194.954008 
L 164.831253 192.942548 
L 165.988555 190.333469 
L 167.145858 187.177387 
L 168.30316 183.532725 
L 170.617765 175.035414 
L 172.93237 165.371792 
L 177.561579 144.511464 
L 181.033486 129.031973 
L 184.505393 114.61332 
L 186.819998 105.79715 
L 189.134602 97.677053 
L 191.449207 90.259842 
L 193.763812 83.525653 
L 196.078416 77.438736 
L 198.393021 71.956212 
L 200.707626 67.031663 
L 203.022231 62.618334 
L 205.336835 58.671833 
L 207.65144 55.150558 
L 209.966045 52.015817 
L 212.280649 49.232622 
L 214.595254 46.76974 
L 216.909859 44.599271 
L 219.224463 42.696838 
L 221.539068 41.041302 
L 223.853673 39.614362 
L 226.168278 38.400408 
L 228.482882 37.386243 
L 230.797487 36.56088 
L 233.112092 35.915143 
L 235.426696 35.44211 
L 237.741301 35.137282 
L 240.055906 34.997449 
L 242.37051 35.021218 
L 244.685115 35.209324 
L 246.99972 35.564205 
L 249.314324 36.090023 
L 251.628929 36.792747 
L 253.943534 37.680241 
L 256.258139 38.762272 
L 258.572743 40.050756 
L 260.887348 41.558323 
L 263.201953 43.298975 
L 265.516557 45.289603 
L 267.831162 47.560198 
L 270.145767 50.148949 
L 272.460371 53.091755 
L 274.774976 56.429385 
L 277.089581 60.208622 
L 279.404185 64.483085 
L 281.71879 69.31305 
L 284.033395 74.766897 
L 286.348 80.92235 
L 288.662604 87.853283 
L 290.977209 95.626904 
L 293.291814 104.295466 
L 295.606418 113.881122 
L 297.921023 124.353892 
L 301.39293 141.45035 
L 307.179442 170.892197 
L 309.494046 181.284918 
L 310.651349 185.781444 
L 311.808651 189.663275 
L 312.965954 192.824634 
L 314.123256 195.171035 
L 315.280558 196.625259 
L 316.437861 197.132727 
L 317.595163 196.665633 
L 318.752465 195.225284 
L 319.909768 192.84233 
L 321.06707 189.574815 
L 322.224372 185.504302 
L 323.381675 180.730564 
L 325.696279 169.526681 
L 328.010884 156.894128 
L 333.797396 124.314633 
L 336.112 112.351819 
L 338.426605 101.426931 
L 340.74121 91.627955 
L 343.055815 82.946333 
L 345.370419 75.321167 
L 347.685024 68.663527 
L 349.999629 62.875618 
L 352.314233 57.862105 
L 354.628838 53.534251 
L 356.943443 49.812657 
L 359.258047 46.628043 
L 361.572652 43.920995 
L 363.887257 41.641295 
L 366.201861 39.747083 
L 368.516466 38.204014 
L 370.831071 36.984476 
L 373.145676 36.066924 
L 375.46028 35.435329 
L 377.774885 35.078763 
L 380.08949 34.991107 
L 382.404094 35.170893 
L 384.718699 35.621258 
L 387.033304 36.350038 
L 389.347908 37.369972 
L 391.662513 38.699046 
L 393.977118 40.360959 
L 396.291722 42.385721 
L 398.606327 44.810374 
L 400.920932 47.679807 
L 403.235537 51.047624 
L 405.550141 54.976955 
L 407.864746 59.541033 
L 410.179351 64.823218 
L 412.493955 70.915941 
L 414.80856 77.917709 
L 417.123165 85.926868 
L 419.437769 95.030227 
L 421.752374 105.284038 
L 424.066979 116.684514 
L 426.381584 129.125805 
L 431.010793 155.87298 
L 433.325398 168.979923 
L 435.640002 180.70191 
L 436.797305 185.698539 
L 437.954607 189.933019 
L 439.111909 193.278315 
L 440.269212 195.62767 
L 441.426514 196.902643 
L 442.583816 197.05942 
L 443.741119 196.092479 
L 444.898421 194.035069 
L 446.055723 190.956407 
L 447.213026 186.956029 
L 448.370328 182.156148 
L 450.684933 170.708447 
L 452.999537 157.72534 
L 458.786049 124.495122 
L 461.100654 112.402607 
L 463.415259 101.405081 
L 465.729863 91.565996 
L 468.044468 82.863009 
L 470.359073 75.22523 
L 472.673677 68.560116 
L 474.988282 62.768442 
L 477.302887 57.753582 
L 479.617491 53.426321 
L 481.932096 49.707028 
L 484.246701 46.526256 
L 486.561306 43.824491 
L 488.87591 41.551471 
L 491.190515 39.665354 
L 493.50512 38.131861 
L 495.819724 36.923508 
L 498.134329 36.018931 
L 500.448934 35.402348 
L 502.763538 35.063147 
L 505.078143 34.995607 
L 507.392748 35.198752 
L 509.707352 35.676327 
L 512.021957 36.436902 
L 514.336562 37.494077 
L 516.651167 38.866876 
L 518.965771 40.580275 
L 521.280376 42.665834 
L 523.594981 45.162461 
L 525.909585 48.117283 
L 528.22419 51.586549 
L 530.538795 55.63647 
L 532.853399 60.343769 
L 535.168004 65.795598 
L 537.482609 72.088194 
L 539.797213 79.323327 
L 542.111818 87.601039 
L 542.111818 87.601039 
" clip-path="url(#p0c9d963201)" style="fill: none; stroke: #ff7f0e; stroke-width: 1.5; stroke-linecap: square"/>
   </g>
   <g id="patch_3">
    <path d="M 57.26 205.24 
L 57.26 26.88 
" style="fill: none; stroke: #000000; stroke-width: 0.8; stroke-linejoin: miter; stroke-linecap: square"/>
   </g>
   <g id="patch_4">
    <path d="M 565.2 205.24 
L 565.2 26.88 
" style="fill: none; stroke: #000000; stroke-width: 0.8; stroke-linejoin: miter; stroke-linecap: square"/>
   </g>
   <g id="patch_5">
    <path d="M 57.26 205.24 
L 565.2 205.24 
" style="fill: none; stroke: #000000; stroke-width: 0.8; stroke-linejoin: miter; stroke-linecap: square"/>
   </g>
   <g id="patch_6">
    <path d="M 57.26 26.88 
L 565.2 26.88 
" style="fill: none; stroke: #000000; stroke-width: 0.8; stroke-linejoin: miter; stroke-linecap: square"/>
   </g>
   <g id="text_14">
    <!-- Reflectance -->
    <g transform="translate(276.046562 20.88) scale(0.12 -0.12)">
     <defs>
      <path id="DejaVuSans-52" d="M 2841 2188 
Q 3044 2119 3236 1894 
Q 3428 1669 3622 1275 
L 4263 0 
L 3584 0 
L 2988 1197 
Q 2756 1666 2539 1819 
Q 2322 1972 1947 1972 
L 1259 1972 
L 1259 0 
L 628 0 
L 628 4666 
L 2053 4666 
Q 2853 4666 3247 4331 
Q 3641 3997 3641 3322 
Q 3641 2881 3436 2590 
Q 3231 2300 2841 2188 
z
M 1259 4147 
L 1259 2491 
L 2053 2491 
Q 2509 2491 2742 2702 
Q 2975 2913 2975 3322 
Q 2975 3731 2742 3939 
Q 2509 4147 2053 4147 
L 1259 4147 
z
" transform="scale(0.015625)"/>
     </defs>
     <use xlink:href="#DejaVuSans-52"/>
     <use xlink:href="#DejaVuSans-65" x="64.982422"/>
     <use xlink:href="#DejaVuSans-66" x="126.505859"/>
     <use xlink:href="#DejaVuSans-6c" x="161.710938"/>
     <use xlink:href="#DejaVuSans-65" x="189.494141"/>
     <use xlink:href="#DejaVuSans-63" x="251.017578"/>
     <use xlink:href="#DejaVuSans-74" x="305.998047"/>
     <use xlink:href="#DejaVuSans-61" x="345.207031"/>
     <use xlink:href="#DejaVuSans-6e" x="406.486328"/>
     <use xlink:href="#DejaVuSans-63" x="469.865234"/>
     <use xlink:href="#DejaVuSans-65" x="524.845703"/>
    </g>
   </g>
   <g id="legend_1">
    <g id="patch_7">
     <path d="M 417.039062 64.23625 
L 558.2 64.23625 
Q 560.2 64.23625 560.2 62.23625 
L 560.2 33.88 
Q 560.2 31.88 558.2 31.88 
L 417.039062 31.88 
Q 415.039062 31.88 415.039062 33.88 
L 415.039062 62.23625 
Q 415.039062 64.23625 417.039062 64.23625 
z
" style="fill: #ffffff; opacity: 0.8; stroke: #cccccc; stroke-linejoin: miter"/>
    </g>
    <g id="line2d_14">
     <path d="M 419.039062 39.978438 
L 429.039062 39.978438 
L 439.039062 39.978438 
" style="fill: none; stroke: #1f77b4; stroke-width: 1.5; stroke-linecap: square"/>
    </g>
    <g id="text_15">
     <!-- measured reflectance -->
     <g transform="translate(447.039062 43.478438) scale(0.1 -0.1)">
      <defs>
       <path id="DejaVuSans-64" d="M 2906 2969 
L 2906 4863 
L 3481 4863 
L 3481 0 
L 2906 0 
L 2906 525 
Q 2725 213 2448 61 
Q 2172 -91 1784 -91 
Q 1150 -91 751 415 
Q 353 922 353 1747 
Q 353 2572 751 3078 
Q 1150 3584 1784 3584 
Q 2172 3584 2448 3432 
Q 2725 3281 2906 2969 
z
M 947 1747 
Q 947 1113 1208 752 
Q 1469 391 1925 391 
Q 2381 391 2643 752 
Q 2906 1113 2906 1747 
Q 2906 2381 2643 2742 
Q 2381 3103 1925 3103 
Q 1469 3103 1208 2742 
Q 947 2381 947 1747 
z
" transform="scale(0.015625)"/>
      </defs>
      <use xlink:href="#DejaVuSans-6d"/>
      <use xlink:href="#DejaVuSans-65" x="97.412109"/>
      <use xlink:href="#DejaVuSans-61" x="158.935547"/>
      <use xlink:href="#DejaVuSans-73" x="220.214844"/>
      <use xlink:href="#DejaVuSans-75" x="272.314453"/>
      <use xlink:href="#DejaVuSans-72" x="335.693359"/>
      <use xlink:href="#DejaVuSans-65" x="374.556641"/>
      <use xlink:href="#DejaVuSans-64" x="436.080078"/>
      <use xlink:href="#DejaVuSans-20" x="499.556641"/>
      <use xlink:href="#DejaVuSans-72" x="531.34375"/>
      <use xlink:href="#DejaVuSans-65" x="570.207031"/>
      <use xlink:href="#DejaVuSans-66" x="631.730469"/>
      <use xlink:href="#DejaVuSans-6c" x="666.935547"/>
      <use xlink:href="#DejaVuSans-65" x="694.71875"/>
      <use xlink:href="#DejaVuSans-63" x="756.242188"/>
      <use xlink:href="#DejaVuSans-74" x="811.222656"/>
      <use xlink:href="#DejaVuSans-61" x="850.431641"/>
      <use xlink:href="#DejaVuSans-6e" x="911.710938"/>
      <use xlink:href="#DejaVuSans-63" x="975.089844"/>
      <use xlink:href="#DejaVuSans-65" x="1030.070312"/>
     </g>
    </g>
    <g id="line2d_15">
     <path d="M 419.039062 54.656563 
L 429.039062 54.656563 
L 439.039062 54.656563 
" style="fill: none; stroke: #ff7f0e; stroke-width: 1.5; stroke-linecap: square"/>
    </g>
    <g id="text_16">
     <!-- predicted reflectance -->
     <g transform="translate(447.039062 58.156563) scale(0.1 -0.1)">
      <defs>
       <path id="DejaVuSans-70" d="M 1159 525 
L 1159 -1331 
L 581 -1331 
L 581 3500 
L 1159 3500 
L 1159 2969 
Q 1341 3281 1617 3432 
Q 1894 3584 2278 3584 
Q 2916 3584 3314 3078 
Q 3713 2572 3713 1747 
Q 3713 922 3314 415 
Q 2916 -91 2278 -91 
Q 1894 -91 1617 61 
Q 1341 213 1159 525 
z
M 3116 1747 
Q 3116 2381 2855 2742 
Q 2594 3103 2138 3103 
Q 1681 3103 1420 2742 
Q 1159 2381 1159 1747 
Q 1159 1113 1420 752 
Q 1681 391 2138 391 
Q 2594 391 2855 752 
Q 3116 1113 3116 1747 
z
" transform="scale(0.015625)"/>
      </defs>
      <use xlink:href="#DejaVuSans-70"/>
      <use xlink:href="#DejaVuSans-72" x="63.476562"/>
      <use xlink:href="#DejaVuSans-65" x="102.339844"/>
      <use xlink:href="#DejaVuSans-64" x="163.863281"/>
      <use xlink:href="#DejaVuSans-69" x="227.339844"/>
      <use xlink:href="#DejaVuSans-63" x="255.123047"/>
      <use xlink:href="#DejaVuSans-74" x="310.103516"/>
      <use xlink:href="#DejaVuSans-65" x="349.3125"/>
      <use xlink:href="#DejaVuSans-64" x="410.835938"/>
      <use xlink:href="#DejaVuSans-20" x="474.3125"/>
      <use xlink:href="#DejaVuSans-72" x="506.099609"/>
      <use xlink:href="#DejaVuSans-65" x="544.962891"/>
      <use xlink:href="#DejaVuSans-66" x="606.486328"/>
      <use xlink:href="#DejaVuSans-6c" x="641.691406"/>
      <use xlink:href="#DejaVuSans-65" x="669.474609"/>
      <use xlink:href="#DejaVuSans-63" x="730.998047"/>
      <use xlink:href="#DejaVuSans-74" x="785.978516"/>
      <use xlink:href="#DejaVuSans-61" x="825.1875"/>
      <use xlink:href="#DejaVuSans-6e" x="886.466797"/>
      <use xlink:href="#DejaVuSans-63" x="949.845703"/>
      <use xlink:href="#DejaVuSans-65" x="1004.826172"/>
     </g>
    </g>
   </g>
  </g>
  <g id="axes_2">
   <g id="patch_8">
    <path d="M 57.26 441.64 
L 565.2 441.64 
L 565.2 263.28 
L 57.26 263.28 
z
" style="fill: #ffffff"/>
   </g>
   <g id="matplotlib.axis_3">
    <g id="xtick_7">
     <g id="line2d_16">
      <g>
       <use xlink:href="#maed2e43b99" x="80.348182" y="441.64" style="stroke: #000000; stroke-width: 0.8"/>
      </g>
     </g>
     <g id="text_17">
      <!-- 0.0 -->
      <g transform="translate(72.396619 456.238438) scale(0.1 -0.1)">
       <use xlink:href="#DejaVuSans-30"/>
       <use xlink:href="#DejaVuSans-2e" x="63.623047"/>
       <use xlink:href="#DejaVuSans-30" x="95.410156"/>
      </g>
     </g>
    </g>
    <g id="xtick_8">
     <g id="line2d_17">
      <g>
       <use xlink:href="#maed2e43b99" x="172.700909" y="441.64" style="stroke: #000000; stroke-width: 0.8"/>
      </g>
     </g>
     <g id="text_18">
      <!-- 0.2 -->
      <g transform="translate(164.749347 456.238438) scale(0.1 -0.1)">
       <use xlink:href="#DejaVuSans-30"/>
       <use xlink:href="#DejaVuSans-2e" x="63.623047"/>
       <use xlink:href="#DejaVuSans-32" x="95.410156"/>
      </g>
     </g>
    </g>
    <g id="xtick_9">
     <g id="line2d_18">
      <g>
       <use xlink:href="#maed2e43b99" x="265.053636" y="441.64" style="stroke: #000000; stroke-width: 0.8"/>
      </g>
     </g>
     <g id="text_19">
      <!-- 0.4 -->
      <g transform="translate(257.102074 456.238438) scale(0.1 -0.1)">
       <use xlink:href="#DejaVuSans-30"/>
       <use xlink:href="#DejaVuSans-2e" x="63.623047"/>
       <use xlink:href="#DejaVuSans-34" x="95.410156"/>
      </g>
     </g>
    </g>
    <g id="xtick_10">
     <g id="line2d_19">
      <g>
       <use xlink:href="#maed2e43b99" x="357.406364" y="441.64" style="stroke: #000000; stroke-width: 0.8"/>
      </g>
     </g>
     <g id="text_20">
      <!-- 0.6 -->
      <g transform="translate(349.454801 456.238438) scale(0.1 -0.1)">
       <use xlink:href="#DejaVuSans-30"/>
       <use xlink:href="#DejaVuSans-2e" x="63.623047"/>
       <use xlink:href="#DejaVuSans-36" x="95.410156"/>
      </g>
     </g>
    </g>
    <g id="xtick_11">
     <g id="line2d_20">
      <g>
       <use xlink:href="#maed2e43b99" x="449.759091" y="441.64" style="stroke: #000000; stroke-width: 0.8"/>
      </g>
     </g>
     <g id="text_21">
      <!-- 0.8 -->
      <g transform="translate(441.807528 456.238438) scale(0.1 -0.1)">
       <use xlink:href="#DejaVuSans-30"/>
       <use xlink:href="#DejaVuSans-2e" x="63.623047"/>
       <use xlink:href="#DejaVuSans-38" x="95.410156"/>
      </g>
     </g>
    </g>
    <g id="xtick_12">
     <g id="line2d_21">
      <g>
       <use xlink:href="#maed2e43b99" x="542.111818" y="441.64" style="stroke: #000000; stroke-width: 0.8"/>
      </g>
     </g>
     <g id="text_22">
      <!-- 1.0 -->
      <g transform="translate(534.160256 456.238438) scale(0.1 -0.1)">
       <use xlink:href="#DejaVuSans-31"/>
       <use xlink:href="#DejaVuSans-2e" x="63.623047"/>
       <use xlink:href="#DejaVuSans-30" x="95.410156"/>
      </g>
     </g>
    </g>
    <g id="text_23">
     <!-- time in hours -->
     <g transform="translate(278.140937 469.916563) scale(0.1 -0.1)">
      <use xlink:href="#DejaVuSans-74"/>
      <use xlink:href="#DejaVuSans-69" x="39.208984"/>
      <use xlink:href="#DejaVuSans-6d" x="66.992188"/>
      <use xlink:href="#DejaVuSans-65" x="164.404297"/>
      <use xlink:href="#DejaVuSans-20" x="225.927734"/>
      <use xlink:href="#DejaVuSans-69" x="257.714844"/>
      <use xlink:href="#DejaVuSans-6e" x="285.498047"/>
      <use xlink:href="#DejaVuSans-20" x="348.876953"/>
      <use xlink:href="#DejaVuSans-68" x="380.664062"/>
      <use xlink:href="#DejaVuSans-6f" x="444.042969"/>
      <use xlink:href="#DejaVuSans-75" x="505.224609"/>
      <use xlink:href="#DejaVuSans-72" x="568.603516"/>
      <use xlink:href="#DejaVuSans-73" x="609.716797"/>
     </g>
    </g>
   </g>
   <g id="matplotlib.axis_4">
    <g id="ytick_6">
     <g id="line2d_22">
      <g>
       <use xlink:href="#m6e426bfe43" x="57.26" y="433.501751" style="stroke: #000000; stroke-width: 0.8"/>
      </g>
     </g>
     <g id="text_24">
      <!-- 0 -->
      <g transform="translate(43.8975 437.30097) scale(0.1 -0.1)">
       <use xlink:href="#DejaVuSans-30"/>
      </g>
     </g>
    </g>
    <g id="ytick_7">
     <g id="line2d_23">
      <g>
       <use xlink:href="#m6e426bfe43" x="57.26" y="399.65546" style="stroke: #000000; stroke-width: 0.8"/>
      </g>
     </g>
     <g id="text_25">
      <!-- 200 -->
      <g transform="translate(31.1725 403.454679) scale(0.1 -0.1)">
       <use xlink:href="#DejaVuSans-32"/>
       <use xlink:href="#DejaVuSans-30" x="63.623047"/>
       <use xlink:href="#DejaVuSans-30" x="127.246094"/>
      </g>
     </g>
    </g>
    <g id="ytick_8">
     <g id="line2d_24">
      <g>
       <use xlink:href="#m6e426bfe43" x="57.26" y="365.809169" style="stroke: #000000; stroke-width: 0.8"/>
      </g>
     </g>
     <g id="text_26">
      <!-- 400 -->
      <g transform="translate(31.1725 369.608388) scale(0.1 -0.1)">
       <use xlink:href="#DejaVuSans-34"/>
       <use xlink:href="#DejaVuSans-30" x="63.623047"/>
       <use xlink:href="#DejaVuSans-30" x="127.246094"/>
      </g>
     </g>
    </g>
    <g id="ytick_9">
     <g id="line2d_25">
      <g>
       <use xlink:href="#m6e426bfe43" x="57.26" y="331.962879" style="stroke: #000000; stroke-width: 0.8"/>
      </g>
     </g>
     <g id="text_27">
      <!-- 600 -->
      <g transform="translate(31.1725 335.762097) scale(0.1 -0.1)">
       <use xlink:href="#DejaVuSans-36"/>
       <use xlink:href="#DejaVuSans-30" x="63.623047"/>
       <use xlink:href="#DejaVuSans-30" x="127.246094"/>
      </g>
     </g>
    </g>
    <g id="ytick_10">
     <g id="line2d_26">
      <g>
       <use xlink:href="#m6e426bfe43" x="57.26" y="298.116588" style="stroke: #000000; stroke-width: 0.8"/>
      </g>
     </g>
     <g id="text_28">
      <!-- 800 -->
      <g transform="translate(31.1725 301.915807) scale(0.1 -0.1)">
       <use xlink:href="#DejaVuSans-38"/>
       <use xlink:href="#DejaVuSans-30" x="63.623047"/>
       <use xlink:href="#DejaVuSans-30" x="127.246094"/>
      </g>
     </g>
    </g>
    <g id="ytick_11">
     <g id="line2d_27">
      <g>
       <use xlink:href="#m6e426bfe43" x="57.26" y="264.270297" style="stroke: #000000; stroke-width: 0.8"/>
      </g>
     </g>
     <g id="text_29">
      <!-- 1000 -->
      <g transform="translate(24.81 268.069516) scale(0.1 -0.1)">
       <use xlink:href="#DejaVuSans-31"/>
       <use xlink:href="#DejaVuSans-30" x="63.623047"/>
       <use xlink:href="#DejaVuSans-30" x="127.246094"/>
       <use xlink:href="#DejaVuSans-30" x="190.869141"/>
      </g>
     </g>
    </g>
    <g id="text_30">
     <!-- thickness in nm -->
     <g transform="translate(18.730313 391.852188) rotate(-90) scale(0.1 -0.1)">
      <defs>
       <path id="DejaVuSans-6b" d="M 581 4863 
L 1159 4863 
L 1159 1991 
L 2875 3500 
L 3609 3500 
L 1753 1863 
L 3688 0 
L 2938 0 
L 1159 1709 
L 1159 0 
L 581 0 
L 581 4863 
z
" transform="scale(0.015625)"/>
      </defs>
      <use xlink:href="#DejaVuSans-74"/>
      <use xlink:href="#DejaVuSans-68" x="39.208984"/>
      <use xlink:href="#DejaVuSans-69" x="102.587891"/>
      <use xlink:href="#DejaVuSans-63" x="130.371094"/>
      <use xlink:href="#DejaVuSans-6b" x="185.351562"/>
      <use xlink:href="#DejaVuSans-6e" x="243.261719"/>
      <use xlink:href="#DejaVuSans-65" x="306.640625"/>
      <use xlink:href="#DejaVuSans-73" x="368.164062"/>
      <use xlink:href="#DejaVuSans-73" x="420.263672"/>
      <use xlink:href="#DejaVuSans-20" x="472.363281"/>
      <use xlink:href="#DejaVuSans-69" x="504.150391"/>
      <use xlink:href="#DejaVuSans-6e" x="531.933594"/>
      <use xlink:href="#DejaVuSans-20" x="595.3125"/>
      <use xlink:href="#DejaVuSans-6e" x="627.099609"/>
      <use xlink:href="#DejaVuSans-6d" x="690.478516"/>
     </g>
    </g>
   </g>
   <g id="line2d_28">
    <path d="M 80.348182 433.501751 
L 115.067252 422.950078 
L 263.201953 377.569928 
L 285.190697 370.649527 
L 299.078325 366.055038 
L 311.808651 361.596417 
L 324.538977 356.88975 
L 340.74121 350.64267 
L 402.078234 326.560525 
L 529.381492 276.426457 
L 542.111818 271.388008 
L 542.111818 271.388008 
" clip-path="url(#pe0fac0f7ba)" style="fill: none; stroke: #1f77b4; stroke-width: 1.5; stroke-linecap: square"/>
   </g>
   <g id="line2d_29">
    <path d="M 80.348182 433.501751 
L 161.359346 408.794168 
L 275.932278 373.618217 
L 290.977209 368.773617 
L 303.707535 364.449467 
L 316.437861 359.906366 
L 329.168186 355.137895 
L 348.842326 347.460061 
L 501.606236 287.407097 
L 542.111818 271.387273 
L 542.111818 271.387273 
" clip-path="url(#pe0fac0f7ba)" style="fill: none; stroke: #ff7f0e; stroke-width: 1.5; stroke-linecap: square"/>
   </g>
   <g id="line2d_30">
    <path d="M 80.348182 433.532727 
L 84.977391 432.046139 
L 89.606601 430.625555 
L 94.23581 429.184273 
L 98.865019 427.782131 
L 103.494229 426.365371 
L 108.123438 424.949829 
L 112.752648 423.574563 
L 117.381857 422.166776 
L 122.011066 420.76743 
L 126.640276 419.381081 
L 131.269485 418.010081 
L 135.898694 416.629461 
L 140.527904 415.272088 
L 145.157113 413.889337 
L 149.786323 412.484124 
L 154.415532 411.125175 
L 159.044741 409.735358 
L 163.673951 408.390205 
L 168.30316 406.994711 
L 172.93237 405.665712 
L 177.561579 404.27909 
L 182.190788 402.881261 
L 186.819998 401.503626 
L 191.449207 400.117153 
L 196.078416 398.700104 
L 200.707626 397.329842 
L 205.336835 395.955452 
L 209.966045 394.53199 
L 214.595254 393.115826 
L 219.224463 391.662049 
L 223.853673 390.242481 
L 228.482882 388.836193 
L 234.269394 387.371096 
L 238.898603 385.904424 
L 243.527813 384.460186 
L 248.157022 382.920996 
L 252.786231 381.448868 
L 257.415441 379.938643 
L 262.04465 378.441312 
L 266.67386 376.877701 
L 271.303069 375.360202 
L 275.932278 373.771735 
L 280.561488 372.18368 
L 285.190697 370.602475 
L 289.819907 368.997582 
L 294.449116 367.38532 
L 299.078325 365.762283 
L 303.707535 364.121436 
L 308.336744 362.473692 
L 312.965954 360.777403 
L 317.595163 359.128849 
L 322.224372 357.401102 
L 326.853582 355.666491 
L 331.482791 353.939459 
L 336.112 352.217662 
L 340.74121 350.459864 
L 345.370419 348.679029 
L 349.999629 346.898931 
L 354.628838 345.073982 
L 359.258047 343.313486 
L 363.887257 341.490431 
L 368.516466 339.672121 
L 373.145676 337.865426 
L 377.774885 336.020193 
L 382.404094 334.186458 
L 388.190606 332.389138 
L 392.819815 330.47734 
L 397.449025 328.593042 
L 402.078234 326.72422 
L 406.707444 324.860847 
L 411.336653 322.991859 
L 415.965862 321.159382 
L 420.595072 319.266942 
L 425.224281 317.371959 
L 429.853491 315.515638 
L 434.4827 313.631014 
L 439.111909 311.784932 
L 443.741119 309.896509 
L 448.370328 308.043547 
L 452.999537 306.158286 
L 457.628747 304.32878 
L 462.257956 302.465345 
L 466.887166 300.631338 
L 471.516375 298.758338 
L 476.145584 296.95234 
L 480.774794 295.128636 
L 485.404003 293.280515 
L 490.033213 291.517542 
L 494.662422 289.715704 
L 499.291631 287.896265 
L 503.920841 286.117765 
L 508.55005 284.344993 
L 513.17926 282.587525 
L 517.808469 280.791186 
L 522.437678 279.072885 
L 527.066888 277.332059 
L 531.696097 275.589834 
L 536.325306 273.797043 
L 542.111818 272.074278 
" clip-path="url(#pe0fac0f7ba)" style="fill: none; stroke-dasharray: 5.55,2.4; stroke-dashoffset: 0; stroke: #2ca02c; stroke-width: 1.5"/>
   </g>
   <g id="patch_9">
    <path d="M 57.26 441.64 
L 57.26 263.28 
" style="fill: none; stroke: #000000; stroke-width: 0.8; stroke-linejoin: miter; stroke-linecap: square"/>
   </g>
   <g id="patch_10">
    <path d="M 565.2 441.64 
L 565.2 263.28 
" style="fill: none; stroke: #000000; stroke-width: 0.8; stroke-linejoin: miter; stroke-linecap: square"/>
   </g>
   <g id="patch_11">
    <path d="M 57.26 441.64 
L 565.2 441.64 
" style="fill: none; stroke: #000000; stroke-width: 0.8; stroke-linejoin: miter; stroke-linecap: square"/>
   </g>
   <g id="patch_12">
    <path d="M 57.26 263.28 
L 565.2 263.28 
" style="fill: none; stroke: #000000; stroke-width: 0.8; stroke-linejoin: miter; stroke-linecap: square"/>
   </g>
   <g id="text_31">
    <!-- Thickness -->
    <g transform="translate(281.576875 257.28) scale(0.12 -0.12)">
     <defs>
      <path id="DejaVuSans-54" d="M -19 4666 
L 3928 4666 
L 3928 4134 
L 2272 4134 
L 2272 0 
L 1638 0 
L 1638 4134 
L -19 4134 
L -19 4666 
z
" transform="scale(0.015625)"/>
     </defs>
     <use xlink:href="#DejaVuSans-54"/>
     <use xlink:href="#DejaVuSans-68" x="61.083984"/>
     <use xlink:href="#DejaVuSans-69" x="124.462891"/>
     <use xlink:href="#DejaVuSans-63" x="152.246094"/>
     <use xlink:href="#DejaVuSans-6b" x="207.226562"/>
     <use xlink:href="#DejaVuSans-6e" x="265.136719"/>
     <use xlink:href="#DejaVuSans-65" x="328.515625"/>
     <use xlink:href="#DejaVuSans-73" x="390.039062"/>
     <use xlink:href="#DejaVuSans-73" x="442.138672"/>
    </g>
   </g>
   <g id="legend_2">
    <g id="patch_13">
     <path d="M 428.353125 315.314375 
L 558.2 315.314375 
Q 560.2 315.314375 560.2 313.314375 
L 560.2 270.28 
Q 560.2 268.28 558.2 268.28 
L 428.353125 268.28 
Q 426.353125 268.28 426.353125 270.28 
L 426.353125 313.314375 
Q 426.353125 315.314375 428.353125 315.314375 
z
" style="fill: #ffffff; opacity: 0.8; stroke: #cccccc; stroke-linejoin: miter"/>
    </g>
    <g id="line2d_31">
     <path d="M 430.353125 276.378438 
L 440.353125 276.378438 
L 450.353125 276.378438 
" style="fill: none; stroke: #1f77b4; stroke-width: 1.5; stroke-linecap: square"/>
    </g>
    <g id="text_32">
     <!-- true thickness -->
     <g transform="translate(458.353125 279.878438) scale(0.1 -0.1)">
      <use xlink:href="#DejaVuSans-74"/>
      <use xlink:href="#DejaVuSans-72" x="39.208984"/>
      <use xlink:href="#DejaVuSans-75" x="80.322266"/>
      <use xlink:href="#DejaVuSans-65" x="143.701172"/>
      <use xlink:href="#DejaVuSans-20" x="205.224609"/>
      <use xlink:href="#DejaVuSans-74" x="237.011719"/>
      <use xlink:href="#DejaVuSans-68" x="276.220703"/>
      <use xlink:href="#DejaVuSans-69" x="339.599609"/>
      <use xlink:href="#DejaVuSans-63" x="367.382812"/>
      <use xlink:href="#DejaVuSans-6b" x="422.363281"/>
      <use xlink:href="#DejaVuSans-6e" x="480.273438"/>
      <use xlink:href="#DejaVuSans-65" x="543.652344"/>
      <use xlink:href="#DejaVuSans-73" x="605.175781"/>
      <use xlink:href="#DejaVuSans-73" x="657.275391"/>
     </g>
    </g>
    <g id="line2d_32">
     <path d="M 430.353125 291.056563 
L 440.353125 291.056563 
L 450.353125 291.056563 
" style="fill: none; stroke: #ff7f0e; stroke-width: 1.5; stroke-linecap: square"/>
    </g>
    <g id="text_33">
     <!-- predicted thickness -->
     <g transform="translate(458.353125 294.556563) scale(0.1 -0.1)">
      <use xlink:href="#DejaVuSans-70"/>
      <use xlink:href="#DejaVuSans-72" x="63.476562"/>
      <use xlink:href="#DejaVuSans-65" x="102.339844"/>
      <use xlink:href="#DejaVuSans-64" x="163.863281"/>
      <use xlink:href="#DejaVuSans-69" x="227.339844"/>
      <use xlink:href="#DejaVuSans-63" x="255.123047"/>
      <use xlink:href="#DejaVuSans-74" x="310.103516"/>
      <use xlink:href="#DejaVuSans-65" x="349.3125"/>
      <use xlink:href="#DejaVuSans-64" x="410.835938"/>
      <use xlink:href="#DejaVuSans-20" x="474.3125"/>
      <use xlink:href="#DejaVuSans-74" x="506.099609"/>
      <use xlink:href="#DejaVuSans-68" x="545.308594"/>
      <use xlink:href="#DejaVuSans-69" x="608.6875"/>
      <use xlink:href="#DejaVuSans-63" x="636.470703"/>
      <use xlink:href="#DejaVuSans-6b" x="691.451172"/>
      <use xlink:href="#DejaVuSans-6e" x="749.361328"/>
      <use xlink:href="#DejaVuSans-65" x="812.740234"/>
      <use xlink:href="#DejaVuSans-73" x="874.263672"/>
      <use xlink:href="#DejaVuSans-73" x="926.363281"/>
     </g>
    </g>
    <g id="line2d_33">
     <path d="M 430.353125 305.734688 
L 440.353125 305.734688 
L 450.353125 305.734688 
" style="fill: none; stroke-dasharray: 5.55,2.4; stroke-dashoffset: 0; stroke: #2ca02c; stroke-width: 1.5"/>
    </g>
    <g id="text_34">
     <!-- initial prediction -->
     <g transform="translate(458.353125 309.234688) scale(0.1 -0.1)">
      <use xlink:href="#DejaVuSans-69"/>
      <use xlink:href="#DejaVuSans-6e" x="27.783203"/>
      <use xlink:href="#DejaVuSans-69" x="91.162109"/>
      <use xlink:href="#DejaVuSans-74" x="118.945312"/>
      <use xlink:href="#DejaVuSans-69" x="158.154297"/>
      <use xlink:href="#DejaVuSans-61" x="185.9375"/>
      <use xlink:href="#DejaVuSans-6c" x="247.216797"/>
      <use xlink:href="#DejaVuSans-20" x="275"/>
      <use xlink:href="#DejaVuSans-70" x="306.787109"/>
      <use xlink:href="#DejaVuSans-72" x="370.263672"/>
      <use xlink:href="#DejaVuSans-65" x="409.126953"/>
      <use xlink:href="#DejaVuSans-64" x="470.650391"/>
      <use xlink:href="#DejaVuSans-69" x="534.126953"/>
      <use xlink:href="#DejaVuSans-63" x="561.910156"/>
      <use xlink:href="#DejaVuSans-74" x="616.890625"/>
      <use xlink:href="#DejaVuSans-69" x="656.099609"/>
      <use xlink:href="#DejaVuSans-6f" x="683.882812"/>
      <use xlink:href="#DejaVuSans-6e" x="745.064453"/>
     </g>
    </g>
   </g>
  </g>
  <g id="axes_3">
   <g id="patch_14">
    <path d="M 57.26 678.04 
L 565.2 678.04 
L 565.2 499.68 
L 57.26 499.68 
z
" style="fill: #ffffff"/>
   </g>
   <g id="matplotlib.axis_5">
    <g id="xtick_13">
     <g id="line2d_34">
      <g>
       <use xlink:href="#maed2e43b99" x="80.348182" y="678.04" style="stroke: #000000; stroke-width: 0.8"/>
      </g>
     </g>
     <g id="text_35">
      <!-- 0.0 -->
      <g transform="translate(72.396619 692.638438) scale(0.1 -0.1)">
       <use xlink:href="#DejaVuSans-30"/>
       <use xlink:href="#DejaVuSans-2e" x="63.623047"/>
       <use xlink:href="#DejaVuSans-30" x="95.410156"/>
      </g>
     </g>
    </g>
    <g id="xtick_14">
     <g id="line2d_35">
      <g>
       <use xlink:href="#maed2e43b99" x="172.700909" y="678.04" style="stroke: #000000; stroke-width: 0.8"/>
      </g>
     </g>
     <g id="text_36">
      <!-- 0.2 -->
      <g transform="translate(164.749347 692.638438) scale(0.1 -0.1)">
       <use xlink:href="#DejaVuSans-30"/>
       <use xlink:href="#DejaVuSans-2e" x="63.623047"/>
       <use xlink:href="#DejaVuSans-32" x="95.410156"/>
      </g>
     </g>
    </g>
    <g id="xtick_15">
     <g id="line2d_36">
      <g>
       <use xlink:href="#maed2e43b99" x="265.053636" y="678.04" style="stroke: #000000; stroke-width: 0.8"/>
      </g>
     </g>
     <g id="text_37">
      <!-- 0.4 -->
      <g transform="translate(257.102074 692.638438) scale(0.1 -0.1)">
       <use xlink:href="#DejaVuSans-30"/>
       <use xlink:href="#DejaVuSans-2e" x="63.623047"/>
       <use xlink:href="#DejaVuSans-34" x="95.410156"/>
      </g>
     </g>
    </g>
    <g id="xtick_16">
     <g id="line2d_37">
      <g>
       <use xlink:href="#maed2e43b99" x="357.406364" y="678.04" style="stroke: #000000; stroke-width: 0.8"/>
      </g>
     </g>
     <g id="text_38">
      <!-- 0.6 -->
      <g transform="translate(349.454801 692.638438) scale(0.1 -0.1)">
       <use xlink:href="#DejaVuSans-30"/>
       <use xlink:href="#DejaVuSans-2e" x="63.623047"/>
       <use xlink:href="#DejaVuSans-36" x="95.410156"/>
      </g>
     </g>
    </g>
    <g id="xtick_17">
     <g id="line2d_38">
      <g>
       <use xlink:href="#maed2e43b99" x="449.759091" y="678.04" style="stroke: #000000; stroke-width: 0.8"/>
      </g>
     </g>
     <g id="text_39">
      <!-- 0.8 -->
      <g transform="translate(441.807528 692.638438) scale(0.1 -0.1)">
       <use xlink:href="#DejaVuSans-30"/>
       <use xlink:href="#DejaVuSans-2e" x="63.623047"/>
       <use xlink:href="#DejaVuSans-38" x="95.410156"/>
      </g>
     </g>
    </g>
    <g id="xtick_18">
     <g id="line2d_39">
      <g>
       <use xlink:href="#maed2e43b99" x="542.111818" y="678.04" style="stroke: #000000; stroke-width: 0.8"/>
      </g>
     </g>
     <g id="text_40">
      <!-- 1.0 -->
      <g transform="translate(534.160256 692.638438) scale(0.1 -0.1)">
       <use xlink:href="#DejaVuSans-31"/>
       <use xlink:href="#DejaVuSans-2e" x="63.623047"/>
       <use xlink:href="#DejaVuSans-30" x="95.410156"/>
      </g>
     </g>
    </g>
    <g id="text_41">
     <!-- time in hours -->
     <g transform="translate(278.140937 706.316563) scale(0.1 -0.1)">
      <use xlink:href="#DejaVuSans-74"/>
      <use xlink:href="#DejaVuSans-69" x="39.208984"/>
      <use xlink:href="#DejaVuSans-6d" x="66.992188"/>
      <use xlink:href="#DejaVuSans-65" x="164.404297"/>
      <use xlink:href="#DejaVuSans-20" x="225.927734"/>
      <use xlink:href="#DejaVuSans-69" x="257.714844"/>
      <use xlink:href="#DejaVuSans-6e" x="285.498047"/>
      <use xlink:href="#DejaVuSans-20" x="348.876953"/>
      <use xlink:href="#DejaVuSans-68" x="380.664062"/>
      <use xlink:href="#DejaVuSans-6f" x="444.042969"/>
      <use xlink:href="#DejaVuSans-75" x="505.224609"/>
      <use xlink:href="#DejaVuSans-72" x="568.603516"/>
      <use xlink:href="#DejaVuSans-73" x="609.716797"/>
     </g>
    </g>
   </g>
   <g id="matplotlib.axis_6">
    <g id="ytick_12">
     <g id="line2d_40">
      <g>
       <use xlink:href="#m6e426bfe43" x="57.26" y="678.035898" style="stroke: #000000; stroke-width: 0.8"/>
      </g>
     </g>
     <g id="text_42">
      <!-- 750 -->
      <g transform="translate(31.1725 681.835116) scale(0.1 -0.1)">
       <defs>
        <path id="DejaVuSans-37" d="M 525 4666 
L 3525 4666 
L 3525 4397 
L 1831 0 
L 1172 0 
L 2766 4134 
L 525 4134 
L 525 4666 
z
" transform="scale(0.015625)"/>
       </defs>
       <use xlink:href="#DejaVuSans-37"/>
       <use xlink:href="#DejaVuSans-35" x="63.623047"/>
       <use xlink:href="#DejaVuSans-30" x="127.246094"/>
      </g>
     </g>
    </g>
    <g id="ytick_13">
     <g id="line2d_41">
      <g>
       <use xlink:href="#m6e426bfe43" x="57.26" y="654.952294" style="stroke: #000000; stroke-width: 0.8"/>
      </g>
     </g>
     <g id="text_43">
      <!-- 800 -->
      <g transform="translate(31.1725 658.751513) scale(0.1 -0.1)">
       <use xlink:href="#DejaVuSans-38"/>
       <use xlink:href="#DejaVuSans-30" x="63.623047"/>
       <use xlink:href="#DejaVuSans-30" x="127.246094"/>
      </g>
     </g>
    </g>
    <g id="ytick_14">
     <g id="line2d_42">
      <g>
       <use xlink:href="#m6e426bfe43" x="57.26" y="631.86869" style="stroke: #000000; stroke-width: 0.8"/>
      </g>
     </g>
     <g id="text_44">
      <!-- 850 -->
      <g transform="translate(31.1725 635.667909) scale(0.1 -0.1)">
       <use xlink:href="#DejaVuSans-38"/>
       <use xlink:href="#DejaVuSans-35" x="63.623047"/>
       <use xlink:href="#DejaVuSans-30" x="127.246094"/>
      </g>
     </g>
    </g>
    <g id="ytick_15">
     <g id="line2d_43">
      <g>
       <use xlink:href="#m6e426bfe43" x="57.26" y="608.785086" style="stroke: #000000; stroke-width: 0.8"/>
      </g>
     </g>
     <g id="text_45">
      <!-- 900 -->
      <g transform="translate(31.1725 612.584305) scale(0.1 -0.1)">
       <defs>
        <path id="DejaVuSans-39" d="M 703 97 
L 703 672 
Q 941 559 1184 500 
Q 1428 441 1663 441 
Q 2288 441 2617 861 
Q 2947 1281 2994 2138 
Q 2813 1869 2534 1725 
Q 2256 1581 1919 1581 
Q 1219 1581 811 2004 
Q 403 2428 403 3163 
Q 403 3881 828 4315 
Q 1253 4750 1959 4750 
Q 2769 4750 3195 4129 
Q 3622 3509 3622 2328 
Q 3622 1225 3098 567 
Q 2575 -91 1691 -91 
Q 1453 -91 1209 -44 
Q 966 3 703 97 
z
M 1959 2075 
Q 2384 2075 2632 2365 
Q 2881 2656 2881 3163 
Q 2881 3666 2632 3958 
Q 2384 4250 1959 4250 
Q 1534 4250 1286 3958 
Q 1038 3666 1038 3163 
Q 1038 2656 1286 2365 
Q 1534 2075 1959 2075 
z
" transform="scale(0.015625)"/>
       </defs>
       <use xlink:href="#DejaVuSans-39"/>
       <use xlink:href="#DejaVuSans-30" x="63.623047"/>
       <use xlink:href="#DejaVuSans-30" x="127.246094"/>
      </g>
     </g>
    </g>
    <g id="ytick_16">
     <g id="line2d_44">
      <g>
       <use xlink:href="#m6e426bfe43" x="57.26" y="585.701483" style="stroke: #000000; stroke-width: 0.8"/>
      </g>
     </g>
     <g id="text_46">
      <!-- 950 -->
      <g transform="translate(31.1725 589.500701) scale(0.1 -0.1)">
       <use xlink:href="#DejaVuSans-39"/>
       <use xlink:href="#DejaVuSans-35" x="63.623047"/>
       <use xlink:href="#DejaVuSans-30" x="127.246094"/>
      </g>
     </g>
    </g>
    <g id="ytick_17">
     <g id="line2d_45">
      <g>
       <use xlink:href="#m6e426bfe43" x="57.26" y="562.617879" style="stroke: #000000; stroke-width: 0.8"/>
      </g>
     </g>
     <g id="text_47">
      <!-- 1000 -->
      <g transform="translate(24.81 566.417098) scale(0.1 -0.1)">
       <use xlink:href="#DejaVuSans-31"/>
       <use xlink:href="#DejaVuSans-30" x="63.623047"/>
       <use xlink:href="#DejaVuSans-30" x="127.246094"/>
       <use xlink:href="#DejaVuSans-30" x="190.869141"/>
      </g>
     </g>
    </g>
    <g id="ytick_18">
     <g id="line2d_46">
      <g>
       <use xlink:href="#m6e426bfe43" x="57.26" y="539.534275" style="stroke: #000000; stroke-width: 0.8"/>
      </g>
     </g>
     <g id="text_48">
      <!-- 1050 -->
      <g transform="translate(24.81 543.333494) scale(0.1 -0.1)">
       <use xlink:href="#DejaVuSans-31"/>
       <use xlink:href="#DejaVuSans-30" x="63.623047"/>
       <use xlink:href="#DejaVuSans-35" x="127.246094"/>
       <use xlink:href="#DejaVuSans-30" x="190.869141"/>
      </g>
     </g>
    </g>
    <g id="ytick_19">
     <g id="line2d_47">
      <g>
       <use xlink:href="#m6e426bfe43" x="57.26" y="516.450671" style="stroke: #000000; stroke-width: 0.8"/>
      </g>
     </g>
     <g id="text_49">
      <!-- 1100 -->
      <g transform="translate(24.81 520.24989) scale(0.1 -0.1)">
       <use xlink:href="#DejaVuSans-31"/>
       <use xlink:href="#DejaVuSans-31" x="63.623047"/>
       <use xlink:href="#DejaVuSans-30" x="127.246094"/>
       <use xlink:href="#DejaVuSans-30" x="190.869141"/>
      </g>
     </g>
    </g>
    <g id="text_50">
     <!-- growth rate in nm/h -->
     <g transform="translate(18.730312 638.627969) rotate(-90) scale(0.1 -0.1)">
      <defs>
       <path id="DejaVuSans-67" d="M 2906 1791 
Q 2906 2416 2648 2759 
Q 2391 3103 1925 3103 
Q 1463 3103 1205 2759 
Q 947 2416 947 1791 
Q 947 1169 1205 825 
Q 1463 481 1925 481 
Q 2391 481 2648 825 
Q 2906 1169 2906 1791 
z
M 3481 434 
Q 3481 -459 3084 -895 
Q 2688 -1331 1869 -1331 
Q 1566 -1331 1297 -1286 
Q 1028 -1241 775 -1147 
L 775 -588 
Q 1028 -725 1275 -790 
Q 1522 -856 1778 -856 
Q 2344 -856 2625 -561 
Q 2906 -266 2906 331 
L 2906 616 
Q 2728 306 2450 153 
Q 2172 0 1784 0 
Q 1141 0 747 490 
Q 353 981 353 1791 
Q 353 2603 747 3093 
Q 1141 3584 1784 3584 
Q 2172 3584 2450 3431 
Q 2728 3278 2906 2969 
L 2906 3500 
L 3481 3500 
L 3481 434 
z
" transform="scale(0.015625)"/>
       <path id="DejaVuSans-77" d="M 269 3500 
L 844 3500 
L 1563 769 
L 2278 3500 
L 2956 3500 
L 3675 769 
L 4391 3500 
L 4966 3500 
L 4050 0 
L 3372 0 
L 2619 2869 
L 1863 0 
L 1184 0 
L 269 3500 
z
" transform="scale(0.015625)"/>
       <path id="DejaVuSans-2f" d="M 1625 4666 
L 2156 4666 
L 531 -594 
L 0 -594 
L 1625 4666 
z
" transform="scale(0.015625)"/>
      </defs>
      <use xlink:href="#DejaVuSans-67"/>
      <use xlink:href="#DejaVuSans-72" x="63.476562"/>
      <use xlink:href="#DejaVuSans-6f" x="102.339844"/>
      <use xlink:href="#DejaVuSans-77" x="163.521484"/>
      <use xlink:href="#DejaVuSans-74" x="245.308594"/>
      <use xlink:href="#DejaVuSans-68" x="284.517578"/>
      <use xlink:href="#DejaVuSans-20" x="347.896484"/>
      <use xlink:href="#DejaVuSans-72" x="379.683594"/>
      <use xlink:href="#DejaVuSans-61" x="420.796875"/>
      <use xlink:href="#DejaVuSans-74" x="482.076172"/>
      <use xlink:href="#DejaVuSans-65" x="521.285156"/>
      <use xlink:href="#DejaVuSans-20" x="582.808594"/>
      <use xlink:href="#DejaVuSans-69" x="614.595703"/>
      <use xlink:href="#DejaVuSans-6e" x="642.378906"/>
      <use xlink:href="#DejaVuSans-20" x="705.757812"/>
      <use xlink:href="#DejaVuSans-6e" x="737.544922"/>
      <use xlink:href="#DejaVuSans-6d" x="800.923828"/>
      <use xlink:href="#DejaVuSans-2f" x="898.335938"/>
      <use xlink:href="#DejaVuSans-68" x="932.027344"/>
     </g>
    </g>
   </g>
   <g id="line2d_48">
    <path d="M 80.348182 645.739522 
L 83.820089 644.369865 
L 87.291996 643.225538 
L 90.763903 642.282054 
L 95.393112 641.292623 
L 100.022322 640.558716 
L 105.808833 639.922441 
L 111.595345 639.517094 
L 119.696462 639.205578 
L 131.269485 639.03311 
L 155.572834 638.964522 
L 205.336835 638.821368 
L 218.067161 638.560849 
L 229.640185 638.103273 
L 240.055906 637.470942 
L 248.157022 636.749884 
L 253.943534 636.003681 
L 258.572743 635.165309 
L 262.04465 634.321304 
L 265.516557 633.217777 
L 267.831162 632.29834 
L 270.145767 631.198482 
L 272.460371 629.892723 
L 274.774976 628.352763 
L 277.089581 626.556226 
L 279.404185 624.484763 
L 281.71879 622.12214 
L 284.033395 619.464712 
L 286.348 616.513022 
L 288.662604 613.27273 
L 292.134511 607.904271 
L 295.606418 601.984576 
L 299.078325 595.610329 
L 303.707535 586.606927 
L 316.437861 561.4625 
L 319.909768 555.213556 
L 323.381675 549.507805 
L 325.696279 546.07007 
L 328.010884 542.962919 
L 330.325489 540.209275 
L 332.640093 537.825412 
L 334.954698 535.816677 
L 337.269303 534.172524 
L 339.583907 532.870616 
L 341.898512 531.873826 
L 344.213117 531.135356 
L 346.527722 530.604192 
L 349.999629 530.089843 
L 354.628838 529.73111 
L 360.41535 529.53781 
L 371.988373 529.422409 
L 456.471445 528.969486 
L 470.359073 528.571707 
L 483.089398 527.978874 
L 517.808469 526.171827 
L 531.696097 525.788524 
L 542.111818 525.611968 
L 542.111818 525.611968 
" clip-path="url(#p787c8ef50b)" style="fill: none; stroke: #1f77b4; stroke-width: 1.5; stroke-linecap: square"/>
   </g>
   <g id="line2d_49">
    <path d="M 80.348182 641.878798 
L 98.865019 641.787862 
L 104.651531 641.512808 
L 108.123438 641.031572 
L 117.381857 639.497553 
L 124.325671 638.253467 
L 125.482973 638.133235 
L 139.370602 639.80151 
L 140.527904 639.751842 
L 142.842509 639.430943 
L 152.100927 638.933223 
L 161.359346 638.748243 
L 172.93237 638.805277 
L 182.190788 638.985422 
L 191.449207 639.331341 
L 194.921114 639.250957 
L 200.707626 638.869806 
L 206.494138 638.456601 
L 218.067161 637.92563 
L 225.010975 637.823165 
L 231.954789 637.831514 
L 234.269394 637.498229 
L 238.898603 637.584772 
L 240.055906 637.461049 
L 243.527813 636.791447 
L 249.314324 636.01512 
L 253.943534 635.563805 
L 257.415441 635.370854 
L 258.572743 635.438594 
L 259.730046 635.719191 
L 263.201953 637.035972 
L 264.359255 637.656433 
L 265.516557 638.123462 
L 268.988464 635.053433 
L 274.774976 629.539492 
L 278.246883 625.88348 
L 281.71879 621.765685 
L 282.876093 620.212273 
L 287.505302 612.725985 
L 297.921023 595.45507 
L 308.336744 577.751712 
L 318.752465 559.621956 
L 329.168186 541.072536 
L 331.482791 536.922335 
L 333.797396 534.803296 
L 336.112 532.824565 
L 337.269303 531.967088 
L 339.583907 531.082272 
L 340.74121 530.73435 
L 343.055815 530.363889 
L 348.842326 530.059359 
L 374.302978 529.782973 
L 469.20177 528.688917 
L 490.033213 527.611604 
L 520.123074 526.134056 
L 542.111818 525.236586 
L 542.111818 525.236586 
" clip-path="url(#p787c8ef50b)" style="fill: none; stroke: #ff7f0e; stroke-width: 1.5; stroke-linecap: square"/>
   </g>
   <g id="line2d_50">
    <path d="M 80.348182 619.754938 
L 84.977391 628.735542 
L 89.606601 634.900012 
L 94.23581 637.409298 
L 98.865019 640.745824 
L 103.494229 638.922545 
L 108.123438 644.56825 
L 112.752648 645.623399 
L 117.381857 642.346972 
L 122.011066 645.263984 
L 126.640276 649.120784 
L 131.269485 649.900326 
L 135.898694 651.754379 
L 140.527904 651.46434 
L 145.157113 644.955288 
L 149.786323 648.193782 
L 154.415532 650.28862 
L 159.044741 652.165692 
L 163.673951 651.393252 
L 168.30316 653.591225 
L 172.93237 654.798342 
L 177.561579 645.43318 
L 182.190788 646.655987 
L 186.819998 648.201113 
L 191.449207 642.838297 
L 196.078416 645.0441 
L 200.707626 650.848347 
L 205.336835 643.609834 
L 209.966045 637.926044 
L 214.595254 633.801312 
L 219.224463 633.338249 
L 223.853673 639.799646 
L 228.482882 669.932727 
L 234.269394 660.803851 
L 238.898603 628.226904 
L 243.527813 618.360075 
L 248.157022 614.565453 
L 252.786231 618.506356 
L 257.415441 615.077157 
L 262.04465 607.813545 
L 266.67386 605.069283 
L 271.303069 601.687362 
L 275.932278 592.08743 
L 280.561488 593.07543 
L 285.190697 590.784507 
L 289.819907 586.558897 
L 294.449116 584.090127 
L 299.078325 580.200843 
L 303.707535 576.839234 
L 308.336744 569.295542 
L 312.965954 569.185374 
L 317.595163 564.905261 
L 322.224372 553.196111 
L 326.853582 553.293406 
L 331.482791 555.036961 
L 336.112 550.850811 
L 340.74121 542.817977 
L 345.370419 539.783908 
L 349.999629 533.781676 
L 354.628838 536.448678 
L 359.258047 536.706495 
L 363.887257 528.840195 
L 368.516466 531.066122 
L 373.145676 527.402962 
L 377.774885 523.723841 
L 382.404094 573.167354 
L 388.190606 561.36574 
L 392.819815 507.787273 
L 397.449025 513.634613 
L 402.078234 516.481667 
L 406.707444 516.459171 
L 411.336653 520.662802 
L 415.965862 517.471903 
L 420.595072 508.967393 
L 425.224281 513.881769 
L 429.853491 515.29107 
L 434.4827 516.68431 
L 439.111909 516.167416 
L 443.741119 515.231226 
L 448.370328 515.661489 
L 452.999537 518.853055 
L 457.628747 521.822706 
L 462.257956 521.210136 
L 466.887166 519.908818 
L 471.516375 523.719779 
L 476.145584 530.427016 
L 480.774794 524.69581 
L 485.404003 532.958937 
L 490.033213 539.25624 
L 494.662422 531.57343 
L 499.291631 534.748735 
L 503.920841 541.098358 
L 508.55005 543.959979 
L 513.17926 540.753381 
L 517.808469 546.082558 
L 522.437678 553.635773 
L 527.066888 550.380605 
L 531.696097 543.310191 
L 536.325306 586.570828 
L 542.111818 649.246576 
" clip-path="url(#p787c8ef50b)" style="fill: none; stroke-dasharray: 5.55,2.4; stroke-dashoffset: 0; stroke: #2ca02c; stroke-width: 1.5"/>
   </g>
   <g id="patch_15">
    <path d="M 57.26 678.04 
L 57.26 499.68 
" style="fill: none; stroke: #000000; stroke-width: 0.8; stroke-linejoin: miter; stroke-linecap: square"/>
   </g>
   <g id="patch_16">
    <path d="M 565.2 678.04 
L 565.2 499.68 
" style="fill: none; stroke: #000000; stroke-width: 0.8; stroke-linejoin: miter; stroke-linecap: square"/>
   </g>
   <g id="patch_17">
    <path d="M 57.26 678.04 
L 565.2 678.04 
" style="fill: none; stroke: #000000; stroke-width: 0.8; stroke-linejoin: miter; stroke-linecap: square"/>
   </g>
   <g id="patch_18">
    <path d="M 57.26 499.68 
L 565.2 499.68 
" style="fill: none; stroke: #000000; stroke-width: 0.8; stroke-linejoin: miter; stroke-linecap: square"/>
   </g>
   <g id="text_51">
    <!-- Growth Rate -->
    <g transform="translate(273.854687 493.68) scale(0.12 -0.12)">
     <defs>
      <path id="DejaVuSans-47" d="M 3809 666 
L 3809 1919 
L 2778 1919 
L 2778 2438 
L 4434 2438 
L 4434 434 
Q 4069 175 3628 42 
Q 3188 -91 2688 -91 
Q 1594 -91 976 548 
Q 359 1188 359 2328 
Q 359 3472 976 4111 
Q 1594 4750 2688 4750 
Q 3144 4750 3555 4637 
Q 3966 4525 4313 4306 
L 4313 3634 
Q 3963 3931 3569 4081 
Q 3175 4231 2741 4231 
Q 1884 4231 1454 3753 
Q 1025 3275 1025 2328 
Q 1025 1384 1454 906 
Q 1884 428 2741 428 
Q 3075 428 3337 486 
Q 3600 544 3809 666 
z
" transform="scale(0.015625)"/>
     </defs>
     <use xlink:href="#DejaVuSans-47"/>
     <use xlink:href="#DejaVuSans-72" x="77.490234"/>
     <use xlink:href="#DejaVuSans-6f" x="116.353516"/>
     <use xlink:href="#DejaVuSans-77" x="177.535156"/>
     <use xlink:href="#DejaVuSans-74" x="259.322266"/>
     <use xlink:href="#DejaVuSans-68" x="298.53125"/>
     <use xlink:href="#DejaVuSans-20" x="361.910156"/>
     <use xlink:href="#DejaVuSans-52" x="393.697266"/>
     <use xlink:href="#DejaVuSans-61" x="460.929688"/>
     <use xlink:href="#DejaVuSans-74" x="522.208984"/>
     <use xlink:href="#DejaVuSans-65" x="561.417969"/>
    </g>
   </g>
   <g id="legend_3">
    <g id="patch_19">
     <path d="M 417.307812 673.04 
L 558.2 673.04 
Q 560.2 673.04 560.2 671.04 
L 560.2 628.005625 
Q 560.2 626.005625 558.2 626.005625 
L 417.307812 626.005625 
Q 415.307812 626.005625 415.307812 628.005625 
L 415.307812 671.04 
Q 415.307812 673.04 417.307812 673.04 
z
" style="fill: #ffffff; opacity: 0.8; stroke: #cccccc; stroke-linejoin: miter"/>
    </g>
    <g id="line2d_51">
     <path d="M 419.307812 634.104063 
L 429.307812 634.104063 
L 439.307812 634.104063 
" style="fill: none; stroke: #1f77b4; stroke-width: 1.5; stroke-linecap: square"/>
    </g>
    <g id="text_52">
     <!-- true growth rate -->
     <g transform="translate(447.307812 637.604063) scale(0.1 -0.1)">
      <use xlink:href="#DejaVuSans-74"/>
      <use xlink:href="#DejaVuSans-72" x="39.208984"/>
      <use xlink:href="#DejaVuSans-75" x="80.322266"/>
      <use xlink:href="#DejaVuSans-65" x="143.701172"/>
      <use xlink:href="#DejaVuSans-20" x="205.224609"/>
      <use xlink:href="#DejaVuSans-67" x="237.011719"/>
      <use xlink:href="#DejaVuSans-72" x="300.488281"/>
      <use xlink:href="#DejaVuSans-6f" x="339.351562"/>
      <use xlink:href="#DejaVuSans-77" x="400.533203"/>
      <use xlink:href="#DejaVuSans-74" x="482.320312"/>
      <use xlink:href="#DejaVuSans-68" x="521.529297"/>
      <use xlink:href="#DejaVuSans-20" x="584.908203"/>
      <use xlink:href="#DejaVuSans-72" x="616.695312"/>
      <use xlink:href="#DejaVuSans-61" x="657.808594"/>
      <use xlink:href="#DejaVuSans-74" x="719.087891"/>
      <use xlink:href="#DejaVuSans-65" x="758.296875"/>
     </g>
    </g>
    <g id="line2d_52">
     <path d="M 419.307812 648.782187 
L 429.307812 648.782187 
L 439.307812 648.782187 
" style="fill: none; stroke: #ff7f0e; stroke-width: 1.5; stroke-linecap: square"/>
    </g>
    <g id="text_53">
     <!-- predicted growth rate -->
     <g transform="translate(447.307812 652.282187) scale(0.1 -0.1)">
      <use xlink:href="#DejaVuSans-70"/>
      <use xlink:href="#DejaVuSans-72" x="63.476562"/>
      <use xlink:href="#DejaVuSans-65" x="102.339844"/>
      <use xlink:href="#DejaVuSans-64" x="163.863281"/>
      <use xlink:href="#DejaVuSans-69" x="227.339844"/>
      <use xlink:href="#DejaVuSans-63" x="255.123047"/>
      <use xlink:href="#DejaVuSans-74" x="310.103516"/>
      <use xlink:href="#DejaVuSans-65" x="349.3125"/>
      <use xlink:href="#DejaVuSans-64" x="410.835938"/>
      <use xlink:href="#DejaVuSans-20" x="474.3125"/>
      <use xlink:href="#DejaVuSans-67" x="506.099609"/>
      <use xlink:href="#DejaVuSans-72" x="569.576172"/>
      <use xlink:href="#DejaVuSans-6f" x="608.439453"/>
      <use xlink:href="#DejaVuSans-77" x="669.621094"/>
      <use xlink:href="#DejaVuSans-74" x="751.408203"/>
      <use xlink:href="#DejaVuSans-68" x="790.617188"/>
      <use xlink:href="#DejaVuSans-20" x="853.996094"/>
      <use xlink:href="#DejaVuSans-72" x="885.783203"/>
      <use xlink:href="#DejaVuSans-61" x="926.896484"/>
      <use xlink:href="#DejaVuSans-74" x="988.175781"/>
      <use xlink:href="#DejaVuSans-65" x="1027.384766"/>
     </g>
    </g>
    <g id="line2d_53">
     <path d="M 419.307812 663.460312 
L 429.307812 663.460312 
L 439.307812 663.460312 
" style="fill: none; stroke-dasharray: 5.55,2.4; stroke-dashoffset: 0; stroke: #2ca02c; stroke-width: 1.5"/>
    </g>
    <g id="text_54">
     <!-- initial prediction -->
     <g transform="translate(447.307812 666.960312) scale(0.1 -0.1)">
      <use xlink:href="#DejaVuSans-69"/>
      <use xlink:href="#DejaVuSans-6e" x="27.783203"/>
      <use xlink:href="#DejaVuSans-69" x="91.162109"/>
      <use xlink:href="#DejaVuSans-74" x="118.945312"/>
      <use xlink:href="#DejaVuSans-69" x="158.154297"/>
      <use xlink:href="#DejaVuSans-61" x="185.9375"/>
      <use xlink:href="#DejaVuSans-6c" x="247.216797"/>
      <use xlink:href="#DejaVuSans-20" x="275"/>
      <use xlink:href="#DejaVuSans-70" x="306.787109"/>
      <use xlink:href="#DejaVuSans-72" x="370.263672"/>
      <use xlink:href="#DejaVuSans-65" x="409.126953"/>
      <use xlink:href="#DejaVuSans-64" x="470.650391"/>
      <use xlink:href="#DejaVuSans-69" x="534.126953"/>
      <use xlink:href="#DejaVuSans-63" x="561.910156"/>
      <use xlink:href="#DejaVuSans-74" x="616.890625"/>
      <use xlink:href="#DejaVuSans-69" x="656.099609"/>
      <use xlink:href="#DejaVuSans-6f" x="683.882812"/>
      <use xlink:href="#DejaVuSans-6e" x="745.064453"/>
     </g>
    </g>
   </g>
  </g>
 </g>
 <defs>
  <clipPath id="p0c9d963201">
   <rect x="57.26" y="26.88" width="507.94" height="178.36"/>
  </clipPath>
  <clipPath id="pe0fac0f7ba">
   <rect x="57.26" y="263.28" width="507.94" height="178.36"/>
  </clipPath>
  <clipPath id="p787c8ef50b">
   <rect x="57.26" y="499.68" width="507.94" height="178.36"/>
  </clipPath>
 </defs>
</svg>
